<?xml version="1.0" encoding="UTF-8" standalone="no"?>
<!-- Created with Inkscape (http://www.inkscape.org/) -->

<svg
   xmlns:dc="http://purl.org/dc/elements/1.1/"
   xmlns:cc="http://creativecommons.org/ns#"
   xmlns:rdf="http://www.w3.org/1999/02/22-rdf-syntax-ns#"
   xmlns:svg="http://www.w3.org/2000/svg"
   xmlns="http://www.w3.org/2000/svg"
   xmlns:sodipodi="http://sodipodi.sourceforge.net/DTD/sodipodi-0.dtd"
   xmlns:inkscape="http://www.inkscape.org/namespaces/inkscape"
   width="128"
   height="128"
   viewBox="0 0 128 128"
   id="svg4159"
   version="1.1"
   inkscape:version="0.91 r13725"
   sodipodi:docname="icon.svg">
  <defs
     id="defs4161" />
  <sodipodi:namedview
     id="base"
     pagecolor="#ffffff"
     bordercolor="#666666"
     borderopacity="1.0"
     inkscape:pageopacity="0.0"
     inkscape:pageshadow="2"
     inkscape:zoom="1.4142136"
     inkscape:cx="-224.51009"
     inkscape:cy="95.294784"
     inkscape:document-units="px"
     inkscape:current-layer="layer1"
     showgrid="true"
     units="px"
     inkscape:window-width="2560"
     inkscape:window-height="1017"
     inkscape:window-x="-8"
     inkscape:window-y="-8"
     inkscape:window-maximized="1"
     inkscape:snap-global="true"
     inkscape:object-paths="false"
     inkscape:object-nodes="true"
     inkscape:snap-bbox="false"
     inkscape:bbox-nodes="true"
     inkscape:snap-object-midpoints="false"
     inkscape:snap-center="false"
     inkscape:snap-intersection-paths="false"
     inkscape:snap-grids="true">
    <inkscape:grid
       type="xygrid"
       id="grid4707" />
  </sodipodi:namedview>
  <metadata
     id="metadata4164">
    <rdf:RDF>
      <cc:Work
         rdf:about="">
        <dc:format>image/svg+xml</dc:format>
        <dc:type
           rdf:resource="http://purl.org/dc/dcmitype/StillImage" />
        <dc:title></dc:title>
      </cc:Work>
    </rdf:RDF>
  </metadata>
  <g
     inkscape:label="Layer 1"
     inkscape:groupmode="layer"
     id="layer1"
     transform="translate(0,-924.36214)">
    <g
       id="g5559">
      <path
         style="fill:#000000;fill-rule:evenodd;stroke:#000000;stroke-width:2;stroke-linecap:round;stroke-linejoin:round;stroke-miterlimit:4;stroke-dasharray:none;stroke-opacity:1"
         d="m 34.825009,934.62886 -24.57196,96.34334 100.585941,17.8544 11.13694,-106.94989 z"
         id="path5540"
         inkscape:connector-curvature="0"
         sodipodi:nodetypes="ccccc" />
      <path
         sodipodi:nodetypes="ccccc"
         inkscape:connector-curvature="0"
         id="path5482"
         d="m 34.648232,932.86109 -24.57196,96.34331 100.585938,17.8544 11.13694,-106.94986 z"
         style="fill:#c87137;fill-rule:evenodd;stroke:#502d16;stroke-width:2;stroke-linecap:round;stroke-linejoin:round;stroke-opacity:1;stroke-miterlimit:4;stroke-dasharray:none" />
      <path
         sodipodi:nodetypes="cccccc"
         inkscape:connector-curvature="0"
         id="path5530"
         d="m 39.272987,938.84485 -22.060554,86.50015 60.936096,11.2538 29.204811,-6.6667 8.91321,-86.67457 z"
         style="fill:#000000;fill-rule:evenodd;stroke:none;stroke-width:2;stroke-linecap:round;stroke-linejoin:round;stroke-miterlimit:4;stroke-dasharray:none;stroke-opacity:1" />
      <path
         style="fill:#ffeeaa;fill-rule:evenodd;stroke:none;stroke-width:2;stroke-linecap:round;stroke-linejoin:round;stroke-miterlimit:4;stroke-dasharray:none;stroke-opacity:1"
         d="m 38.022987,936.21985 -22.060554,86.50015 60.936096,11.2538 29.204811,-6.6667 10.16321,-84.04957 z"
         id="path5507"
         inkscape:connector-curvature="0"
         sodipodi:nodetypes="cccccc" />
      <g
         transform="translate(0.375,1.375)"
         style="fill:#000000;stroke:#000000"
         id="g5532">
        <path
           sodipodi:nodetypes="cccscccc"
           inkscape:connector-curvature="0"
           id="path5534"
           transform="translate(0,924.36214)"
           d="M 77,3.75 73.494141,8.4101562 63.992188,7.703125 c 0,0 -6.173983,13.672614 11.302734,14.490234 17.476717,0.81762 21.93164,-12.015625 21.93164,-12.015625 L 87.390625,9.4453125 87.75,4.5 Z"
           style="fill:#000000;fill-rule:evenodd;stroke:#000000;stroke-width:2;stroke-linecap:round;stroke-linejoin:round;stroke-miterlimit:4;stroke-dasharray:none;stroke-opacity:1" />
        <path
           inkscape:connector-curvature="0"
           id="path5536"
           d="m 78,931.73714 6.25,0.375 0,0 0,0"
           style="color:#000000;clip-rule:nonzero;display:inline;overflow:visible;visibility:visible;opacity:1;isolation:auto;mix-blend-mode:normal;color-interpolation:sRGB;color-interpolation-filters:linearRGB;solid-color:#000000;solid-opacity:1;fill:#000000;fill-opacity:1;fill-rule:evenodd;stroke:#000000;stroke-width:2;stroke-linecap:round;stroke-linejoin:round;stroke-miterlimit:4;stroke-dasharray:none;stroke-dashoffset:0;stroke-opacity:1;color-rendering:auto;image-rendering:auto;shape-rendering:auto;text-rendering:auto;enable-background:accumulate" />
        <path
           style="color:#000000;clip-rule:nonzero;display:inline;overflow:visible;visibility:visible;opacity:1;isolation:auto;mix-blend-mode:normal;color-interpolation:sRGB;color-interpolation-filters:linearRGB;solid-color:#000000;solid-opacity:1;fill:#000000;fill-opacity:1;fill-rule:evenodd;stroke:#000000;stroke-width:2;stroke-linecap:round;stroke-linejoin:round;stroke-miterlimit:4;stroke-dasharray:none;stroke-dashoffset:0;stroke-opacity:1;color-rendering:auto;image-rendering:auto;shape-rendering:auto;text-rendering:auto;enable-background:accumulate"
           d="m 76.5,935.23714 6.25,0.375 0,0 0,0"
           id="path5538"
           inkscape:connector-curvature="0" />
      </g>
      <g
         transform="translate(-0.375,0)"
         id="g5509">
        <path
           style="fill:#917c6f;fill-rule:evenodd;stroke:#483e37;stroke-width:2;stroke-linecap:round;stroke-linejoin:round;stroke-miterlimit:4;stroke-dasharray:none;stroke-opacity:1"
           d="M 77,3.75 73.494141,8.4101562 63.992188,7.703125 c 0,0 -6.173983,13.672614 11.302734,14.490234 17.476717,0.81762 21.93164,-12.015625 21.93164,-12.015625 L 87.390625,9.4453125 87.75,4.5 Z"
           transform="translate(0,924.36214)"
           id="path5484"
           inkscape:connector-curvature="0"
           sodipodi:nodetypes="cccscccc" />
        <path
           style="color:#000000;clip-rule:nonzero;display:inline;overflow:visible;visibility:visible;opacity:1;isolation:auto;mix-blend-mode:normal;color-interpolation:sRGB;color-interpolation-filters:linearRGB;solid-color:#000000;solid-opacity:1;fill:#917c6f;fill-opacity:1;fill-rule:evenodd;stroke:#483e37;stroke-width:2;stroke-linecap:round;stroke-linejoin:round;stroke-miterlimit:4;stroke-dasharray:none;stroke-dashoffset:0;stroke-opacity:1;color-rendering:auto;image-rendering:auto;shape-rendering:auto;text-rendering:auto;enable-background:accumulate"
           d="m 78,931.73714 6.25,0.375 0,0 0,0"
           id="path5489"
           inkscape:connector-curvature="0" />
        <path
           inkscape:connector-curvature="0"
           id="path5505"
           d="m 76.5,935.23714 6.25,0.375 0,0 0,0"
           style="color:#000000;clip-rule:nonzero;display:inline;overflow:visible;visibility:visible;opacity:1;isolation:auto;mix-blend-mode:normal;color-interpolation:sRGB;color-interpolation-filters:linearRGB;solid-color:#000000;solid-opacity:1;fill:#917c6f;fill-opacity:1;fill-rule:evenodd;stroke:#483e37;stroke-width:2;stroke-linecap:round;stroke-linejoin:round;stroke-miterlimit:4;stroke-dasharray:none;stroke-dashoffset:0;stroke-opacity:1;color-rendering:auto;image-rendering:auto;shape-rendering:auto;text-rendering:auto;enable-background:accumulate" />
      </g>
      <path
         sodipodi:nodetypes="cccc"
         inkscape:connector-curvature="0"
         id="path5514"
         d="m 99.525278,1020.8959 -22.626749,13.0779 29.204811,-6.6667 c -4.21043,1.1697 -9.344949,-1.6861 -6.578062,-6.4112 z"
         style="color:#000000;clip-rule:nonzero;display:inline;overflow:visible;visibility:visible;opacity:1;isolation:auto;mix-blend-mode:normal;color-interpolation:sRGB;color-interpolation-filters:linearRGB;solid-color:#000000;solid-opacity:1;fill:#d3bc5f;fill-opacity:1;fill-rule:evenodd;stroke:none;stroke-width:2;stroke-linecap:round;stroke-linejoin:round;stroke-miterlimit:4;stroke-dasharray:none;stroke-dashoffset:0;stroke-opacity:1;color-rendering:auto;image-rendering:auto;shape-rendering:auto;text-rendering:auto;enable-background:accumulate" />
      <g
         id="text5546"
         style="font-style:normal;font-weight:normal;font-size:17.0444603px;line-height:125%;font-family:sans-serif;letter-spacing:0px;word-spacing:0px;fill:#000000;fill-opacity:1;stroke:none;stroke-width:1px;stroke-linecap:butt;stroke-linejoin:miter;stroke-opacity:1"
         transform="matrix(1.2729345,0.11559553,-0.21043936,0.76647632,0,0)">
        <path
           id="path5551"
           style="font-style:normal;font-variant:normal;font-weight:normal;font-stretch:normal;font-family:'Segoe Script';-inkscape-font-specification:'Segoe Script'"
           d="m 240.19331,1208.9391 q 0,0.1082 -0.025,0.2663 -0.025,0.1582 -0.0749,0.3246 -0.0416,0.1581 -0.10819,0.3079 -0.0583,0.1415 -0.13316,0.2247 -0.19974,0.2414 -0.71573,0.2414 0,-0.5659 -0.15813,-0.9404 -0.0749,-0.1748 -0.27464,-0.2913 -0.19142,-0.1249 -0.43277,-0.2081 -0.24135,-0.083 -0.49103,-0.1165 -0.24135,-0.042 -0.41612,-0.042 -0.39948,0 -0.77399,0.017 -0.36619,0.017 -0.72406,0.075 -0.34955,0.05 -0.71573,0.1498 -0.35787,0.092 -0.74903,0.2497 -0.29961,0.1248 -0.62419,0.2996 -0.32457,0.1665 -0.59922,0.3828 -0.27464,0.2164 -0.47438,0.4744 -0.19974,0.258 -0.24967,0.566 -0.0166,0.233 0.14148,0.5326 0.15813,0.2996 0.42445,0.5826 0.27464,0.2829 0.62418,0.516 0.35787,0.233 0.74071,0.3412 0.0666,0.025 0.30793,0.1082 0.24135,0.083 0.51599,0.1748 0.28297,0.091 0.516,0.1747 0.24135,0.075 0.30793,0.092 1.88088,0.4827 2.78803,1.1485 0.91548,0.6575 0.91548,1.6145 0,0.308 -0.14148,0.6159 -0.13316,0.2996 -0.34123,0.5826 -0.20806,0.2746 -0.44941,0.5076 -0.24135,0.2331 -0.44942,0.3912 -0.24135,0.1914 -0.54928,0.3995 -0.30793,0.1997 -0.65748,0.3911 -0.34954,0.1915 -0.72405,0.3579 -0.37452,0.1665 -0.75735,0.2913 -0.37451,0.1248 -0.79064,0.2247 -0.4078,0.1082 -0.8156,0.1831 -0.39948,0.075 -0.77399,0.1165 -0.36619,0.05 -0.65748,0.05 -0.21638,0 -0.56593,-0.067 -0.34122,-0.058 -0.67412,-0.1748 -0.3329,-0.1082 -0.57425,-0.2663 -0.23303,-0.1498 -0.23303,-0.3246 0,-0.1082 0.025,-0.2663 0.0333,-0.1581 0.0832,-0.308 0.0583,-0.1498 0.12484,-0.2496 0.0749,-0.1082 0.16645,-0.1082 0.16645,0 0.34122,0.058 0.18309,0.05 0.42445,0.1166 0.24967,0.066 0.58257,0.1248 0.34122,0.05 0.82393,0.05 0.49935,0 1.03199,-0.1 0.54096,-0.1082 1.05695,-0.283 0.516,-0.1748 0.98206,-0.3995 0.47438,-0.2247 0.84889,-0.466 0.17477,-0.1166 0.38283,-0.2664 0.21639,-0.1581 0.39948,-0.3412 0.1831,-0.1831 0.30794,-0.3911 0.12483,-0.2081 0.12483,-0.4328 0,-0.3163 -0.46606,-0.6076 -0.45773,-0.2829 -0.94044,-0.4411 -0.47438,-0.1581 -0.84889,-0.2496 -0.45774,-0.1165 -1.03199,-0.308 -0.56593,-0.1914 -1.24837,-0.4577 -1.13186,-0.4328 -1.91418,-1.265 -0.78231,-0.8323 -0.78231,-2.0057 -0.0166,-0.5493 0.3329,-1.057 0.35787,-0.5077 0.95709,-0.9404 0.59922,-0.4328 1.36488,-0.7657 0.774,-0.3412 1.5896,-0.5326 0.16645,-0.033 0.39948,-0.075 0.24135,-0.042 0.49103,-0.067 0.25799,-0.033 0.49102,-0.05 0.24136,-0.025 0.40781,-0.025 0.19974,0 0.49934,0.033 0.30794,0.025 0.62419,0.075 0.32458,0.05 0.60754,0.1248 0.29129,0.075 0.46606,0.1748 0.42445,0.2247 0.6658,0.5409 0.24135,0.3163 0.24135,0.6159 z" />
        <path
           id="path5553"
           style="font-style:normal;font-variant:normal;font-weight:normal;font-stretch:normal;font-family:'Segoe Script';-inkscape-font-specification:'Segoe Script'"
           d="m 252.50228,1212.3097 q 0,0.1498 -0.0416,0.258 -0.0416,0.1082 -0.11651,0.1831 -0.0749,0.075 -0.17477,0.1415 -0.0999,0.058 -0.20806,0.1165 -0.27465,0.1248 -0.65748,0.2081 -0.37451,0.083 -0.78232,0.1498 -0.39947,0.058 -0.79895,0.1082 -0.39116,0.042 -0.71574,0.091 -0.60754,0.092 -1.0736,0.1498 -0.46606,0.05 -0.80728,0.1 -0.34122,0.05 -0.56593,0.1082 -0.22471,0.058 -0.35787,0.1664 -0.17477,0.7574 -0.36619,1.5397 -0.18309,0.774 -0.31625,1.4564 -0.025,0.1165 -0.0583,0.2497 -0.025,0.1248 -0.0583,0.2663 -0.0582,0.2913 -0.0915,0.516 -0.0333,0.2164 -0.0333,0.4161 0,0.283 0.0583,0.4578 0.0333,0.091 0.0749,0.2413 0.0416,0.1415 0.10819,0.3329 0.13316,0.3912 0.13316,0.5576 0,0.2664 -0.21639,0.5743 -0.20806,0.3079 -0.46606,0.3079 -0.27464,0 -0.56593,-0.4161 -0.14148,-0.2081 -0.24967,-0.4161 -0.10819,-0.1998 -0.19142,-0.4078 -0.13316,-0.3995 -0.13316,-0.7823 0,-0.083 0.008,-0.1665 0.008,-0.091 0.025,-0.1914 0.0333,-0.1831 0.0999,-0.4578 0.0333,-0.1331 0.0499,-0.2247 0.025,-0.1 0.0416,-0.1581 0.19974,-0.9238 0.3329,-1.548 0.14148,-0.6242 0.20806,-0.9737 0.17477,-0.7823 0.17477,-0.8822 0,-0.1331 -0.0999,-0.1997 -0.0915,-0.075 -0.2247,-0.075 -0.15813,0 -0.35787,0.017 -0.19974,0.01 -0.44109,0.042 -0.24135,0.033 -0.39948,0.05 -0.15813,0.01 -0.23303,0.01 -0.29961,0 -0.54929,-0.092 -0.24135,-0.091 -0.41612,-0.258 -0.1831,-0.1747 -0.28297,-0.4078 -0.0999,-0.2413 -0.0999,-0.5409 0.23303,0.033 0.47439,0.05 0.24967,0.01 0.51599,0.01 0.11652,0 0.34955,-0.01 0.24135,-0.017 0.59922,-0.05 0.36618,-0.033 0.62418,-0.05 0.26632,-0.017 0.43277,-0.017 0.19974,0 0.44109,-0.6159 0.11652,-0.3162 0.21639,-0.6408 0.10819,-0.3246 0.19142,-0.6741 0.0915,-0.3496 0.1498,-0.6159 0.0666,-0.2746 0.10819,-0.466 0.0166,-0.05 0.0749,-0.3662 0.0416,-0.1665 0.0666,-0.308 0.0333,-0.1498 0.0499,-0.2663 0.0583,-0.3162 0.12484,-0.5826 0.0749,-0.2663 0.16645,-0.4827 0.18309,-0.4327 0.59089,-0.4327 0.61587,0 0.61587,0.6824 0,0.4245 -0.1831,0.9737 -0.79063,2.5218 -0.79063,3.0794 0,0.3079 0.30793,0.3079 0.75735,0 1.53134,-0.033 0.78231,-0.042 1.51469,-0.1082 0.38283,-0.033 0.67412,-0.067 0.29961,-0.042 0.54929,-0.075 0.24967,-0.042 0.47438,-0.075 0.23303,-0.033 0.49103,-0.067 0.0499,-0.01 0.12483,-0.01 0.0832,-0.01 0.15813,0.017 0.0749,0.025 0.13316,0.091 0.0583,0.058 0.0583,0.1831 z" />
        <path
           id="path5555"
           style="font-style:normal;font-variant:normal;font-weight:normal;font-stretch:normal;font-family:'Segoe Script';-inkscape-font-specification:'Segoe Script'"
           d="m 261.42399,1216.4626 q 0,0.075 -0.0333,0.1748 -0.0333,0.1 -0.0832,0.2081 -0.0499,0.1082 -0.10819,0.208 -0.0583,0.092 -0.10819,0.1665 -0.15813,0.2164 -0.39948,0.4328 -0.23303,0.2163 -0.53264,0.3994 -0.29129,0.1748 -0.64083,0.2913 -0.34123,0.1082 -0.71574,0.1082 -0.4827,0 -0.8905,-0.1581 -0.39948,-0.1665 -0.71574,-0.516 -0.30793,-0.3496 -0.53264,-0.9072 -0.21638,-0.5576 -0.34122,-1.3482 -0.23303,0.3079 -0.54929,0.7157 -0.30793,0.4078 -0.68244,0.8323 -0.36619,0.4244 -0.78231,0.8405 -0.40781,0.4079 -0.82393,0.7324 -0.41612,0.3246 -0.82393,0.5243 -0.39948,0.1998 -0.76567,0.1998 -0.0832,0 -0.27464,-0.1082 -0.18309,-0.1165 -0.38283,-0.2913 -0.19974,-0.1748 -0.37451,-0.3995 -0.17478,-0.2247 -0.23303,-0.4494 -0.14149,-0.491 -0.14149,-0.9987 0,-0.516 0.0832,-1.0153 0.0999,-0.5576 0.29129,-1.1652 0.19974,-0.6075 0.4078,-1.1818 0.20806,-0.5825 0.37451,-1.0985 0.16645,-0.5244 0.19974,-0.9155 0.0333,-0.058 0.13316,-0.1332 0.0999,-0.083 0.21638,-0.1498 0.11652,-0.075 0.22471,-0.1165 0.11652,-0.05 0.1831,-0.05 0.0999,0 0.21638,0.066 0.11652,0.067 0.21639,0.1665 0.0999,0.1 0.15812,0.2081 0.0666,0.1082 0.0666,0.1914 0,0.067 -0.0499,0.2247 -0.0416,0.1581 -0.11652,0.3662 -0.0749,0.1997 -0.17477,0.4244 -0.0999,0.2164 -0.19974,0.3995 -0.19142,0.4411 -0.38283,0.8406 -0.1831,0.3911 -0.3329,0.7906 -0.14981,0.3912 -0.24968,0.8239 -0.0916,0.4245 -0.0916,0.9322 0,0.1331 0.0333,0.3412 0.0333,0.1997 0.0916,0.3995 0.0666,0.1914 0.15813,0.3329 0.0999,0.1331 0.23303,0.1331 0.13316,0 0.29961,-0.067 0.16645,-0.066 0.34122,-0.1581 0.17477,-0.1 0.3329,-0.2081 0.16645,-0.1165 0.29129,-0.208 0.32457,-0.2414 0.64915,-0.5659 0.3329,-0.3246 0.61587,-0.6575 0.29128,-0.3329 0.51599,-0.6242 0.23303,-0.2996 0.34955,-0.4827 0.18309,-0.2913 0.34122,-0.6325 0.16645,-0.3496 0.30793,-0.6908 0.1498,-0.3495 0.29961,-0.6741 0.1498,-0.3329 0.30793,-0.5826 0.16645,-0.2497 0.34955,-0.3995 0.18309,-0.1581 0.41612,-0.1581 0.1831,0 0.27464,0.067 0.0999,0.067 0.14148,0.1664 0.0499,0.1 0.0583,0.2164 0.008,0.1165 0.008,0.2164 0,0.067 -0.0999,0.2996 -0.0999,0.2247 -0.21638,0.5493 -0.11651,0.3163 -0.21638,0.6991 -0.0999,0.3745 -0.0999,0.7407 0,0.541 0.11651,0.9987 0.11652,0.4577 0.32458,0.799 0.20806,0.3412 0.49102,0.5326 0.29129,0.1914 0.63251,0.1914 0.37452,0 0.80729,-0.1415 0.43276,-0.1415 0.84057,-0.4411 0.025,-0.025 0.0999,-0.091 0.0832,-0.075 0.17477,-0.1498 0.0999,-0.075 0.18309,-0.1332 0.0832,-0.058 0.12484,-0.058 0.0666,0 0.12484,0.042 0.0583,0.042 0.0583,0.1331 z" />
        <path
           id="path5557"
           style="font-style:normal;font-variant:normal;font-weight:normal;font-stretch:normal;font-family:'Segoe Script';-inkscape-font-specification:'Segoe Script'"
           d="m 275.6388,1213.35 q 0,0.075 -0.0749,0.1748 -0.0749,0.091 -0.17477,0.1831 -0.0999,0.083 -0.20807,0.1581 -0.0999,0.067 -0.16644,0.1 -0.0166,0.01 -0.14981,0.033 -0.12484,0.025 -0.29961,0.05 -0.16645,0.025 -0.3329,0.05 -0.16645,0.025 -0.24967,0.033 -0.258,0.025 -0.54929,0.05 -0.28296,0.025 -0.54928,0.058 -0.258,0.025 -0.47438,0.058 -0.21639,0.033 -0.32458,0.075 -0.008,0.075 -0.0416,0.2996 -0.025,0.2164 -0.0666,0.5077 -0.0333,0.2913 -0.0832,0.6242 -0.0416,0.3245 -0.0832,0.6158 -0.0333,0.283 -0.0666,0.4994 -0.025,0.2164 -0.0333,0.2829 -0.0416,0.3579 -0.11652,0.9072 -0.0666,0.541 -0.16645,1.1402 -0.0915,0.5992 -0.21638,1.1818 -0.12484,0.5825 -0.27465,1.0153 -0.17477,0.491 -0.39947,0.9321 -0.21639,0.4411 -0.49935,0.774 -0.28297,0.3329 -0.63251,0.5243 -0.34955,0.1915 -0.78232,0.1915 -0.21638,0 -0.41612,-0.1 -0.19974,-0.092 -0.35787,-0.2414 -0.15813,-0.1498 -0.258,-0.3245 -0.0915,-0.1748 -0.0915,-0.3413 0,-0.1082 0,-0.1831 0,-0.075 0.0166,-0.1165 0.025,-0.042 0.0749,-0.067 0.0499,-0.017 0.15813,-0.017 0.0333,0 0.13316,0.017 0.10819,0.025 0.22471,0.042 0.12484,0.025 0.24135,0.042 0.11652,0.025 0.1831,0.025 0.2247,0 0.44941,-0.1331 0.22471,-0.1332 0.42445,-0.3912 0.19974,-0.2497 0.34954,-0.6242 0.15813,-0.3662 0.24135,-0.8405 0.23303,-1.1985 0.36619,-2.2221 0.13316,-1.0237 0.23303,-1.9974 0.0166,-0.1332 0.0416,-0.3413 0.025,-0.208 0.0499,-0.4327 0.025,-0.2247 0.0416,-0.4328 0.0167,-0.2081 0.0167,-0.3496 0,-0.1664 -0.0749,-0.2996 -0.0666,-0.1414 -0.36619,-0.208 -0.29961,0 -0.64916,0.017 -0.34954,0.017 -0.69077,0.033 -0.34122,0.017 -0.66579,0.042 -0.32458,0.017 -0.57426,0.025 -0.76567,0.042 -1.34824,0.091 -0.57425,0.042 -1.09857,0.042 -0.0416,0.3162 -0.0916,0.6574 -0.0416,0.3413 -0.0832,0.6825 -0.0416,0.3412 -0.0915,0.6741 -0.0416,0.3246 -0.0749,0.6075 -0.0666,0.5743 -0.15813,1.2567 -0.0832,0.6742 -0.21638,1.598 -0.0832,0.4827 -0.1831,0.8988 -0.0999,0.4244 -0.25799,0.7989 -0.14981,0.3829 -0.36619,0.7324 -0.21639,0.3579 -0.52432,0.7074 -0.59922,0.6742 -1.38153,0.6742 -0.1082,0 -0.258,-0.042 -0.14148,-0.042 -0.27464,-0.1165 -0.13316,-0.075 -0.22471,-0.1831 -0.0915,-0.1 -0.0915,-0.233 0,-0.1082 0.0416,-0.258 0.0333,-0.1498 0.0999,-0.2913 0.0666,-0.1331 0.15813,-0.233 0.0832,-0.092 0.19142,-0.092 0.13316,0 0.38283,0.05 0.24968,0.05 0.38284,0.05 0.19974,-0.1248 0.34122,-0.3162 0.1498,-0.1915 0.258,-0.4411 0.10819,-0.2497 0.18309,-0.541 0.0832,-0.2913 0.14148,-0.6075 0.15813,-0.824 0.27465,-1.5231 0.11651,-0.699 0.19974,-1.3565 0.0915,-0.6575 0.15812,-1.315 0.0666,-0.6658 0.11652,-1.4148 0.0166,-0.1248 -0.0749,-0.2247 -0.0915,-0.1082 -0.20807,-0.2081 -0.10819,-0.1 -0.19974,-0.1997 -0.0832,-0.1082 -0.0666,-0.233 0,-0.1498 0.44942,-0.7158 0.45773,-0.5576 0.50767,-0.8905 0.0333,-0.1664 0.0749,-0.466 0.0499,-0.2996 0.0999,-0.6242 0.0583,-0.3246 0.10819,-0.6242 0.0499,-0.2996 0.0832,-0.4744 0.0666,-0.3162 0.19142,-0.6991 0.13316,-0.3911 0.31625,-0.7823 0.1831,-0.3912 0.41613,-0.7573 0.24135,-0.3746 0.53264,-0.6575 0.2996,-0.2913 0.64915,-0.4661 0.35787,-0.1748 0.76567,-0.1748 0.30793,0 0.58257,0.1249 0.28297,0.1165 0.49103,0.3246 0.20806,0.208 0.3329,0.491 0.12484,0.2746 0.12484,0.5826 0,0.8072 -0.60754,1.7144 -0.34955,0.5326 -0.64916,0.5326 l -0.0333,0 q 0.14981,-0.5825 0.14981,-1.2317 0,-0.1248 -0.025,-0.3662 -0.0166,-0.2413 -0.0749,-0.4827 -0.0583,-0.2413 -0.16645,-0.4161 -0.1082,-0.1831 -0.29129,-0.1831 -0.26632,0 -0.48271,0.1581 -0.21638,0.1498 -0.39115,0.4078 -0.16645,0.2497 -0.29961,0.566 -0.12484,0.3162 -0.22471,0.6408 -0.0999,0.3246 -0.17477,0.6325 -0.0666,0.2996 -0.11652,0.516 -0.11651,0.5243 -0.19974,0.982 -0.0749,0.4578 -0.10819,0.8573 0,0.2163 0.0499,0.3578 0.0499,0.1332 0.1498,0.2081 0.10819,0.075 0.26632,0.1082 0.15813,0.025 0.36619,0.025 0.67412,0 1.20676,-0.01 0.54096,-0.01 1.04864,-0.033 0.50767,-0.033 1.03198,-0.083 0.52432,-0.05 1.16515,-0.1248 0.23303,-0.1165 0.31626,-0.283 0.0832,-0.1748 0.0999,-0.2913 0.0333,-0.1664 0.0666,-0.4244 0.0416,-0.2663 0.0999,-0.6159 0.0666,-0.4244 0.13316,-0.799 0.0749,-0.3828 0.17477,-0.7407 0.0999,-0.3661 0.24135,-0.724 0.14148,-0.3662 0.34122,-0.749 0.88219,-1.6729 2.43017,-1.6729 0.3329,0 0.62419,0.1166 0.29128,0.1165 0.50767,0.3245 0.21638,0.2081 0.34122,0.4994 0.12484,0.2913 0.12484,0.6408 0,0.4078 -0.0999,0.8073 -0.0999,0.3912 -0.4078,0.8489 -0.34955,0.5326 -0.64916,0.5326 l -0.0333,0 q 0.14981,-0.5825 0.14981,-1.2317 0,-0.7657 -0.24135,-1.1069 -0.24136,-0.3412 -0.56593,-0.3412 -0.20807,0 -0.41613,0.1332 -0.19974,0.1248 -0.38283,0.3162 -0.17478,0.1831 -0.31626,0.3995 -0.14148,0.2164 -0.21638,0.3828 -0.14148,0.308 -0.27464,0.7407 -0.13316,0.4245 -0.24136,0.8822 -0.10819,0.4577 -0.18309,0.9072 -0.0749,0.4411 -0.0999,0.7906 0,0.2164 0.025,0.3579 0.0333,0.1331 0.0915,0.208 0.0583,0.075 0.14981,0.1082 0.0915,0.025 0.20806,0.025 0.14981,0 0.47438,0 0.3329,-0.01 0.70741,-0.01 0.38284,-0.01 0.74903,-0.01 0.37451,0 0.61586,0.01 0.0333,0.01 0.0999,0.017 0.0666,0.01 0.13316,0.033 0.0666,0.017 0.11652,0.058 0.0499,0.033 0.0499,0.1 z" />
      </g>
    </g>
    <path
       style="color:#000000;clip-rule:nonzero;display:inline;overflow:visible;visibility:visible;opacity:1;isolation:auto;mix-blend-mode:normal;color-interpolation:sRGB;color-interpolation-filters:linearRGB;solid-color:#000000;solid-opacity:1;fill:#000000;fill-opacity:1;fill-rule:evenodd;stroke:#000000;stroke-width:2;stroke-linecap:round;stroke-linejoin:round;stroke-miterlimit:4;stroke-dasharray:none;stroke-dashoffset:0;stroke-opacity:1;color-rendering:auto;image-rendering:auto;shape-rendering:auto;text-rendering:auto;enable-background:accumulate"
       d="m 99.010337,982.01915 -57.509627,15.94304 -1.105363,0.30746 -5.206273,6.54985 c -0.07106,-0.09 -0.136101,-0.1999 -0.209164,-0.2822 l -4.289911,5.9419 -0.01569,0.021 0.02,0.01 6.740872,2.8826 c 0.02098,-0.1064 0.02196,-0.2333 0.03686,-0.3464 l 7.831634,2.933 1.107926,-0.305 57.509649,-15.94293 c 2.4465,-0.67363 3.32828,-5.19275 1.97249,-10.0834 -1.35593,-4.89062 -4.43787,-8.30593 -6.883203,-7.62804 z"
       id="path5656"
       inkscape:connector-curvature="0"
       inkscape:transform-center-x="-38.697079"
       inkscape:transform-center-y="-11.734827" />
    <g
       id="g5632"
       transform="matrix(0.38041759,1.0838355,-1.0838355,0.38041759,1124.9441,533.84407)">
      <g
         transform="translate(200,3.95495)"
         id="g5624">
        <path
           inkscape:connector-curvature="0"
           id="path5626"
           d="m -124,964.40719 c -4.41828,0 -8,1.79086 -8,4 l 0,51.95491 c 0,2.2091 3.58172,4 8,4 4.41828,0 8,-1.7909 8,-4 l 0,-51.95491 c 0,-2.20914 -3.58172,-4 -8,-4 z"
           style="color:#000000;clip-rule:nonzero;display:inline;overflow:visible;visibility:visible;opacity:1;isolation:auto;mix-blend-mode:normal;color-interpolation:sRGB;color-interpolation-filters:linearRGB;solid-color:#000000;solid-opacity:1;fill:#d35f5f;fill-opacity:1;fill-rule:evenodd;stroke:#501616;stroke-width:1.74116123;stroke-linecap:round;stroke-linejoin:round;stroke-miterlimit:4;stroke-dasharray:none;stroke-dashoffset:0;stroke-opacity:1;color-rendering:auto;image-rendering:auto;shape-rendering:auto;text-rendering:auto;enable-background:accumulate"
           sodipodi:nodetypes="sssssss" />
        <path
           inkscape:connector-curvature="0"
           id="path5628"
           transform="translate(0,924.36214)"
           d="m -124,92 a 8,4 0 0 0 -8,4 l 0,1 8,11 8,-11 0,-1 a 8,4 0 0 0 -8,-4 z"
           style="color:#000000;clip-rule:nonzero;display:inline;overflow:visible;visibility:visible;opacity:1;isolation:auto;mix-blend-mode:normal;color-interpolation:sRGB;color-interpolation-filters:linearRGB;solid-color:#000000;solid-opacity:1;fill:#c8ab37;fill-opacity:1;fill-rule:evenodd;stroke:#504416;stroke-width:1.74116123;stroke-linecap:round;stroke-linejoin:round;stroke-miterlimit:4;stroke-dasharray:none;stroke-dashoffset:0;stroke-opacity:1;color-rendering:auto;image-rendering:auto;shape-rendering:auto;text-rendering:auto;enable-background:accumulate" />
        <path
           sodipodi:nodetypes="cccc"
           inkscape:connector-curvature="0"
           id="path5630"
           d="m -124,1032.3621 -4,-5 c 2.06178,-1.0112 6,-1 8,0 z"
           style="fill:#000000;fill-rule:evenodd;stroke:#000000;stroke-width:1.74116123;stroke-linecap:round;stroke-linejoin:round;stroke-miterlimit:4;stroke-dasharray:none;stroke-opacity:1" />
      </g>
    </g>
  </g>
</svg>
