<?xml version="1.0" encoding="UTF-8" standalone="no"?>
<!-- Created with Inkscape (http://www.inkscape.org/) -->

<svg
   xmlns:dc="http://purl.org/dc/elements/1.1/"
   xmlns:cc="http://creativecommons.org/ns#"
   xmlns:rdf="http://www.w3.org/1999/02/22-rdf-syntax-ns#"
   xmlns:svg="http://www.w3.org/2000/svg"
   xmlns="http://www.w3.org/2000/svg"
   xmlns:sodipodi="http://sodipodi.sourceforge.net/DTD/sodipodi-0.dtd"
   xmlns:inkscape="http://www.inkscape.org/namespaces/inkscape"
   width="128"
   height="128"
   viewBox="0 0 128 128"
   id="svg4159"
   version="1.1"
   inkscape:version="0.91 r13725"
   sodipodi:docname="icon.svg">
  <defs
     id="defs4161" />
  <sodipodi:namedview
     id="base"
     pagecolor="#ffffff"
     bordercolor="#666666"
     borderopacity="1.0"
     inkscape:pageopacity="0.0"
     inkscape:pageshadow="2"
     inkscape:zoom="2.8284271"
     inkscape:cx="-41.341959"
     inkscape:cy="80.591371"
     inkscape:document-units="px"
     inkscape:current-layer="layer1"
     showgrid="false"
     units="px"
     inkscape:window-width="2560"
     inkscape:window-height="1017"
     inkscape:window-x="-8"
     inkscape:window-y="-8"
     inkscape:window-maximized="1"
     inkscape:snap-global="true"
     inkscape:object-paths="false"
     inkscape:object-nodes="true"
     inkscape:snap-bbox="false"
     inkscape:bbox-nodes="true"
     inkscape:snap-object-midpoints="false"
     inkscape:snap-center="false"
     inkscape:snap-intersection-paths="true"
     inkscape:snap-grids="true">
    <inkscape:grid
       type="xygrid"
       id="grid4707" />
  </sodipodi:namedview>
  <metadata
     id="metadata4164">
    <rdf:RDF>
      <cc:Work
         rdf:about="">
        <dc:format>image/svg+xml</dc:format>
        <dc:type
           rdf:resource="http://purl.org/dc/dcmitype/StillImage" />
        <dc:title></dc:title>
      </cc:Work>
    </rdf:RDF>
  </metadata>
  <g
     inkscape:label="Layer 1"
     inkscape:groupmode="layer"
     id="layer1"
     transform="translate(0,-924.36214)">
    <path
       style="color:#000000;clip-rule:nonzero;display:inline;overflow:visible;visibility:visible;opacity:1;isolation:auto;mix-blend-mode:normal;color-interpolation:sRGB;color-interpolation-filters:linearRGB;solid-color:#000000;solid-opacity:1;fill:#784421;fill-opacity:1;fill-rule:evenodd;stroke:#28170b;stroke-width:2;stroke-linecap:round;stroke-linejoin:round;stroke-miterlimit:4;stroke-dasharray:none;stroke-dashoffset:0;stroke-opacity:1;color-rendering:auto;image-rendering:auto;shape-rendering:auto;text-rendering:auto;enable-background:accumulate"
       d="m 77.879381,937.24973 19.347801,92.48507 -12.904698,-1.4142 -23.977669,-92.17408 z"
       id="path5674"
       inkscape:connector-curvature="0"
       sodipodi:nodetypes="ccccc" />
    <path
       style="fill:#c87137;fill-rule:evenodd;stroke:#502d16;stroke-width:2;stroke-linecap:round;stroke-linejoin:round;stroke-opacity:1;stroke-miterlimit:4;stroke-dasharray:none"
       d="m 60.344815,936.14652 17.534566,1.10321 10.676254,107.35107 -16.827595,-1.4215 -5.444098,-91.58783 -27.185596,87.72653 -15.23674,-1.6761 z"
       id="path5672"
       inkscape:connector-curvature="0"
       sodipodi:nodetypes="cccccccc" />
    <path
       style="color:#000000;clip-rule:nonzero;display:inline;overflow:visible;visibility:visible;opacity:1;isolation:auto;mix-blend-mode:normal;color-interpolation:sRGB;color-interpolation-filters:linearRGB;solid-color:#000000;solid-opacity:1;fill:#c87137;fill-opacity:1;fill-rule:evenodd;stroke:#502d16;stroke-width:2;stroke-linecap:round;stroke-linejoin:round;stroke-miterlimit:4;stroke-dasharray:none;stroke-dashoffset:0;stroke-opacity:1;color-rendering:auto;image-rendering:auto;shape-rendering:auto;text-rendering:auto;enable-background:accumulate"
       d="m 9.5435076,1004.5881 -5.879294,3.7174 100.7627164,10.2442 4.59746,-4.3224 z"
       id="path5690"
       inkscape:connector-curvature="0"
       sodipodi:nodetypes="ccccc" />
    <path
       style="fill:#447821;fill-rule:evenodd;stroke:#2d5016;stroke-width:2;stroke-linecap:round;stroke-linejoin:round;stroke-miterlimit:4;stroke-dasharray:none;stroke-opacity:1"
       d="m 9.5435076,1004.5881 c 2.2625244,0.2758 99.4808824,9.6392 99.4808824,9.6392 l 2.2977,-68.36386 -94.142562,-4.15832 z"
       id="path5670"
       inkscape:connector-curvature="0"
       sodipodi:nodetypes="ccccc" />
    <g
       transform="matrix(0.94904377,0.08591276,-0.06571127,1.0477436,0,0)"
       style="font-style:normal;font-weight:normal;font-size:22.18347359px;line-height:125%;font-family:sans-serif;letter-spacing:0px;word-spacing:0px;fill:#ffffff;fill-opacity:1;stroke:none;stroke-width:1px;stroke-linecap:butt;stroke-linejoin:miter;stroke-opacity:1"
       id="text5706">
      <path
         d="m 94.749947,913.57804 0.04333,0.63907 q 0,0.56326 -1.418963,0.56326 -0.151644,0 -0.433271,-0.36828 -0.259962,-0.34662 -0.389943,-0.30329 -0.11915,0 -1.191496,0.29245 -1.061513,0.29246 -1.267317,0.37912 -1.310645,0.42244 -1.841402,0.42244 -0.498261,0 -0.801551,-0.33579 -0.292458,-0.33578 -0.292458,-0.64991 0,-0.57408 0.97486,-0.83404 0.985691,-0.2708 1.71142,-0.40078 2.328832,-0.4766 2.729607,-0.7149 0.11915,-2.06886 0.48743,-4.74431 l 0.617411,-4.57101 q -0.628243,0 -1.743916,0.75822 -1.982214,1.29982 -3.487831,1.29982 -0.48743,0 -0.48743,-0.68241 0,-0.43327 0.162477,-0.57408 0.173308,-0.14081 1.516448,-0.7149 1.34314,-0.58491 3.379514,-1.79807 2.036373,-1.21316 2.220514,-1.21316 0.346616,0 0.595747,0.4766 0.249131,0.4766 0.249131,0.83404 0,0.30329 -0.314121,0.61742 -1.061514,4.63599 -1.234823,7.10564 -0.173308,2.45881 -0.05416,2.87042 0.823215,-0.0325 2.372159,-0.46577 2.133859,-0.57408 3.444509,-0.57408 0.25996,0.49826 0.25996,0.84488 0,0.36828 -0.10832,0.4766 -0.10832,0.10831 -0.714897,0.31412 -0.606579,0.2058 -2.090533,0.40077 -2.177186,0.30329 -2.892083,0.64991 z"
         style="font-style:normal;font-variant:normal;font-weight:normal;font-stretch:normal;font-family:'Segoe Print';-inkscape-font-specification:'Segoe Print';fill:#ffffff"
         id="path5734" />
      <path
         d="m 113.54308,909.4728 q -0.22747,0.29245 -0.99653,0.29245 -0.28162,0 -0.93153,-0.0758 -0.73656,-0.0866 -1.06151,-0.0866 l -0.7149,0 q -0.31412,0 -0.56325,0.0108 l -0.51993,0 q -0.25996,0 -0.55242,0.0108 -0.2383,0.46577 -0.2383,1.47312 0,1.23482 -0.0542,1.54895 -0.0542,0.30329 -0.0217,0.86654 0.0325,0.55242 -0.59575,0.55242 -0.46576,0 -0.61741,-0.17331 -0.14081,-0.18414 -0.14081,-0.64991 0,-0.24913 0.18414,-1.70058 0.0867,-0.70407 0.17331,-1.91723 -0.69324,-0.065 -2.09054,-0.065 -0.2383,0 -0.63907,0.10832 -0.42244,0.0975 -0.55242,0.0975 -0.29246,0 -0.53076,-0.21663 -0.22747,-0.22747 -0.22747,-0.51993 0,-0.21663 0.15165,-0.45493 0.16248,-0.24913 0.35745,-0.24913 0.37911,0 0.79072,0.0758 0.42244,0.0758 0.62824,0.0758 l 2.17719,-0.10831 q 0.12998,-0.41161 0.12998,-0.84488 0,-0.58492 -0.0867,-1.99305 -0.0433,-0.58492 -0.0433,-1.00735 0,-0.36828 0.21663,-0.73656 0.22747,-0.36829 0.56325,-0.36829 0.17331,0 0.37912,0.35745 0.21663,0.35745 0.21663,0.55242 0,0.56326 -0.0975,1.50562 -0.0975,0.94236 -0.0975,1.28898 0,0.55242 0.065,1.10484 0.21664,0.0758 1.26732,0.0758 l 2.48047,-0.0433 q 1.00736,0 1.29982,0.21663 0.29246,0.21664 0.29246,0.99653 z"
         style="font-style:normal;font-variant:normal;font-weight:normal;font-stretch:normal;font-family:'Segoe Print';-inkscape-font-specification:'Segoe Print';fill:#ffffff"
         id="path5736" />
      <path
         d="m 120.36709,912.2024 q 0.56325,-0.0433 1.71142,-0.0433 1.41897,0 4.71182,0.2058 0.89904,0.0433 1.14817,0.0325 0.25997,-0.0108 0.67157,-0.17331 0.44411,-0.17331 0.67157,-0.17331 0.18414,0 0.42244,0.28162 0.24913,0.2708 0.24913,0.46577 0,0.70407 -0.73656,1.10484 -0.73656,0.38995 -1.31064,0.38995 l -0.40078,0 q -1.03985,0 -1.52728,-0.14082 -1.50561,-0.40077 -3.74779,-0.40077 -1.91723,0 -3.36868,0.46576 -1.45146,0.46577 -1.88473,0.9857 -0.48743,0.58491 -0.73656,0.72572 -0.2383,0.15165 -0.66074,0.15165 -0.84488,0 -0.84488,-0.74739 0,-1.13734 0.93153,-2.00388 0.93154,-0.87738 3.13039,-1.99305 1.28898,-0.63907 1.5706,-0.87737 0.28163,-0.2383 1.54895,-1.3973 1.27815,-1.159 1.93888,-1.99305 0.66074,-0.83404 0.94237,-1.48395 0.29246,-0.66074 0.29246,-1.21316 0,-0.75822 -0.89904,-1.53811 -0.89904,-0.79072 -1.66809,-0.79072 -0.66074,0 -1.99305,0.83405 -1.33231,0.82321 -1.98222,1.59227 -0.42243,0.49826 -1.28898,0.49826 -0.2058,0 -0.4441,-0.46577 -0.2383,-0.46576 -0.2383,-0.74739 0,-0.2058 0.0542,-0.28163 0.0542,-0.0758 1.08318,-0.81238 1.03985,-0.73656 1.86306,-1.26732 0.83405,-0.54159 1.6681,-0.82321 0.83404,-0.28163 2.14469,-0.28163 1.11567,0 2.09053,0.93153 0.98569,0.92071 1.46229,1.81974 0.4766,0.88821 0.4766,1.01819 0,1.48395 -2.22052,4.10524 -2.20968,2.62129 -4.83097,4.04025 z"
         style="font-style:normal;font-variant:normal;font-weight:normal;font-stretch:normal;font-family:'Segoe Print';-inkscape-font-specification:'Segoe Print';fill:#ffffff"
         id="path5738" />
      <path
         d="m 142.39892,909.4728 q -0.22747,0.29245 -0.99652,0.29245 -0.28163,0 -0.93153,-0.0758 -0.73656,-0.0866 -1.06152,-0.0866 l -0.7149,0 q -0.31412,0 -0.56325,0.0108 l -0.51992,0 q -0.25997,0 -0.55242,0.0108 -0.2383,0.46577 -0.2383,1.47312 0,1.23482 -0.0542,1.54895 -0.0542,0.30329 -0.0217,0.86654 0.0325,0.55242 -0.59575,0.55242 -0.46577,0 -0.61741,-0.17331 -0.14082,-0.18414 -0.14082,-0.64991 0,-0.24913 0.18414,-1.70058 0.0867,-0.70407 0.17331,-1.91723 -0.69323,-0.065 -2.09053,-0.065 -0.2383,0 -0.63907,0.10832 -0.42244,0.0975 -0.55243,0.0975 -0.29245,0 -0.53075,-0.21663 -0.22747,-0.22747 -0.22747,-0.51993 0,-0.21663 0.15165,-0.45493 0.16247,-0.24913 0.35744,-0.24913 0.37912,0 0.79072,0.0758 0.42244,0.0758 0.62825,0.0758 l 2.17718,-0.10831 q 0.12998,-0.41161 0.12998,-0.84488 0,-0.58492 -0.0867,-1.99305 -0.0433,-0.58492 -0.0433,-1.00735 0,-0.36828 0.21664,-0.73656 0.22747,-0.36829 0.56325,-0.36829 0.17331,0 0.37911,0.35745 0.21664,0.35745 0.21664,0.55242 0,0.56326 -0.0975,1.50562 -0.0975,0.94236 -0.0975,1.28898 0,0.55242 0.065,1.10484 0.21663,0.0758 1.26731,0.0758 l 2.48048,-0.0433 q 1.00736,0 1.29981,0.21663 0.29246,0.21664 0.29246,0.99653 z"
         style="font-style:normal;font-variant:normal;font-weight:normal;font-stretch:normal;font-family:'Segoe Print';-inkscape-font-specification:'Segoe Print';fill:#ffffff"
         id="path5740" />
      <path
         d="m 148.47555,908.32463 q -0.79072,0 -0.79072,-0.46577 0,-0.25996 0.15164,-0.57408 0.15165,-0.32496 0.87738,-0.9532 l 1.92805,-1.64643 q 1.1915,-1.01818 2.61046,-2.02554 -0.59575,-0.0975 -3.18454,0.21664 -2.00388,0.24913 -2.80543,0.24913 -1.86307,0 -1.86307,-1.70059 0,-0.33579 0.21664,-0.58492 0.22747,-0.25996 0.55242,-0.25996 0.2383,0 0.58491,0.24913 0.43328,0.30329 0.67157,0.38994 0.24914,0.0867 0.72573,0.0867 0.76906,0 2.81626,-0.19497 2.69712,-0.31412 4.30022,-0.31412 1.33231,0 1.33231,0.86654 0,0.61741 -0.55242,1.05068 -0.54159,0.43327 -1.58144,1.05068 -1.37564,0.82322 -1.92806,1.23482 -0.54159,0.40078 -1.08318,1.06152 1.1915,-0.0867 1.79808,-0.0867 1.31064,0 2.25301,0.33579 0.94236,0.32495 1.40813,0.85571 0.4766,0.53076 0.72573,0.85571 0.24913,0.32495 0.24913,1.16983 0,0.72573 -1.06152,2.3505 -1.06151,1.61393 -3.50949,2.56713 -2.44798,0.95319 -4.77681,0.95319 -0.67157,0 -1.93889,-0.16247 -1.25649,-0.17331 -1.54894,-0.61742 -0.28163,-0.4441 -0.28163,-0.89903 0,-1.13734 1.07235,-1.13734 0.0433,0 0.16247,0.0542 l 0.74739,0.31412 q 1.23483,0.56325 2.25301,0.56325 0.88821,0 2.70795,-0.34661 1.81974,-0.35745 3.05456,-1.50562 1.23482,-1.159 1.23482,-1.85223 0,-1.18067 -1.24565,-1.55978 -1.23483,-0.38994 -2.75127,-0.38994 -2.1122,0 -3.53116,0.80155 z"
         style="font-style:normal;font-variant:normal;font-weight:normal;font-stretch:normal;font-family:'Segoe Print';-inkscape-font-specification:'Segoe Print';fill:#ffffff"
         id="path5742" />
      <path
         d="m 171.25477,909.4728 q -0.22747,0.29245 -0.99652,0.29245 -0.28163,0 -0.93153,-0.0758 -0.73656,-0.0866 -1.06152,-0.0866 l -0.7149,0 q -0.31412,0 -0.56325,0.0108 l -0.51992,0 q -0.25997,0 -0.55242,0.0108 -0.2383,0.46577 -0.2383,1.47312 0,1.23482 -0.0542,1.54895 -0.0542,0.30329 -0.0217,0.86654 0.0325,0.55242 -0.59575,0.55242 -0.46577,0 -0.61741,-0.17331 -0.14082,-0.18414 -0.14082,-0.64991 0,-0.24913 0.18414,-1.70058 0.0867,-0.70407 0.17331,-1.91723 -0.69323,-0.065 -2.09053,-0.065 -0.2383,0 -0.63907,0.10832 -0.42244,0.0975 -0.55243,0.0975 -0.29245,0 -0.53075,-0.21663 -0.22747,-0.22747 -0.22747,-0.51993 0,-0.21663 0.15165,-0.45493 0.16247,-0.24913 0.35744,-0.24913 0.37912,0 0.79072,0.0758 0.42244,0.0758 0.62825,0.0758 l 2.17718,-0.10831 q 0.12998,-0.41161 0.12998,-0.84488 0,-0.58492 -0.0866,-1.99305 -0.0433,-0.58492 -0.0433,-1.00735 0,-0.36828 0.21664,-0.73656 0.22747,-0.36829 0.56325,-0.36829 0.17331,0 0.37911,0.35745 0.21664,0.35745 0.21664,0.55242 0,0.56326 -0.0975,1.50562 -0.0975,0.94236 -0.0975,1.28898 0,0.55242 0.065,1.10484 0.21663,0.0758 1.26731,0.0758 l 2.48048,-0.0433 q 1.00736,0 1.29981,0.21663 0.29246,0.21664 0.29246,0.99653 z"
         style="font-style:normal;font-variant:normal;font-weight:normal;font-stretch:normal;font-family:'Segoe Print';-inkscape-font-specification:'Segoe Print';fill:#ffffff"
         id="path5744" />
    </g>
    <g
       transform="matrix(0.91308853,0.11757977,-0.0886273,1.0837714,0,0)"
       style="font-style:normal;font-weight:normal;font-size:23.70393181px;line-height:125%;font-family:sans-serif;letter-spacing:0px;word-spacing:0px;fill:#ffffff;fill-opacity:1;stroke:none;stroke-width:1px;stroke-linecap:butt;stroke-linejoin:miter;stroke-opacity:1"
       id="text5712">
      <path
         d="m 122.04033,898.01505 q -1.59723,-0.57871 -3.84262,-0.4514 -0.38195,1.31946 -0.38195,2.46531 l 0.0116,0.52083 0,0.47455 0.0116,0.52083 q 0.0116,0.4514 0,0.61344 -0.0116,0.15046 0.30092,0.53241 0.30093,0.37037 0.30093,0.50926 0,0.34723 -0.38195,0.7639 -0.37037,0.42824 -0.71759,0.42824 -0.91437,0 -1.21529,-0.42824 -0.30093,-0.41667 -0.30093,-1.26159 0,-0.45139 0.0926,-1.42362 0.081,-0.93751 0.10417,-1.41205 0.0463,-1.1227 0.27778,-2.16438 -0.27778,-0.0463 -0.82177,-0.0463 -2.4653,0 -3.99309,0.40509 -1.66669,0.4514 -3.00929,0.4514 -0.55556,0 -1.25001,-0.78705 0.52084,-1.4352 5.65977,-5.49774 1.64354,-1.28473 2.66207,-2.21066 1.06482,-0.98381 2.3727,-1.95604 1.30789,-0.97223 1.53937,-0.97223 0.93751,0 0.93751,0.47454 -0.081,0.33565 -0.65973,2.40743 -1.00695,3.9468 -1.27316,5.76394 0.75232,0.28936 2.73151,0.28936 l 0.79862,0 q 0.65973,0 0.96066,0.27778 0.3125,0.2662 0.3125,1.14584 0,0.26621 -0.20834,0.47454 -0.20833,0.20834 -0.47454,0.20834 -0.32408,0 -0.54399,-0.11574 z m -4.20142,-7.75471 q -0.42825,0.42825 -1.96762,1.64354 -1.28473,1.01853 -1.81714,1.58566 -1.23844,1.30788 -3.39124,2.85882 0,0.17362 0.20834,0.17362 0.45139,-0.18519 3.39123,-0.38195 1.65511,-0.11574 2.41901,-0.33565 0.0926,-0.74075 0.33565,-1.66668 0.82177,-3.12504 0.82177,-3.87736 z"
         style="font-style:normal;font-variant:normal;font-weight:normal;font-stretch:normal;font-family:'Segoe Print';-inkscape-font-specification:'Segoe Print';fill:#ffffff"
         id="path5721" />
      <path
         d="m 136.68168,897.70254 q -0.24306,0.31251 -1.06483,0.31251 -0.30092,0 -0.99538,-0.081 -0.78704,-0.0926 -1.13427,-0.0926 l -0.76389,0 q -0.33565,0 -0.60186,0.0116 l -0.55556,0 q -0.27778,0 -0.59028,0.0116 -0.25464,0.49769 -0.25464,1.57409 0,1.31946 -0.0579,1.65511 -0.0579,0.32408 -0.0231,0.92594 0.0347,0.59028 -0.63658,0.59028 -0.49769,0 -0.65972,-0.18519 -0.15047,-0.19676 -0.15047,-0.69445 0,-0.26621 0.19676,-1.81715 0.0926,-0.75232 0.18519,-2.04863 -0.74075,-0.0694 -2.23382,-0.0694 -0.25463,0 -0.68288,0.11574 -0.45139,0.10417 -0.59028,0.10417 -0.3125,0 -0.56713,-0.23149 -0.24306,-0.24305 -0.24306,-0.55556 0,-0.23148 0.16204,-0.48611 0.17361,-0.26621 0.38194,-0.26621 0.4051,0 0.84492,0.081 0.45139,0.081 0.6713,0.081 l 2.32641,-0.11574 q 0.13889,-0.43982 0.13889,-0.90279 0,-0.62501 -0.0926,-2.12965 -0.0463,-0.62501 -0.0463,-1.0764 0,-0.39352 0.23149,-0.78704 0.24306,-0.39353 0.60186,-0.39353 0.18518,0 0.40509,0.38195 0.23149,0.38195 0.23149,0.59029 0,0.60185 -0.10417,1.60881 -0.10417,1.00695 -0.10417,1.37733 0,0.59028 0.0694,1.18056 0.23148,0.081 1.35418,0.081 l 2.65048,-0.0463 q 1.0764,0 1.38891,0.23148 0.3125,0.23148 0.3125,1.06482 z"
         style="font-style:normal;font-variant:normal;font-weight:normal;font-stretch:normal;font-family:'Segoe Print';-inkscape-font-specification:'Segoe Print';fill:#ffffff"
         id="path5723" />
      <path
         d="m 145.81371,890.80433 q -0.65973,0.62501 -1.56251,1.96761 -0.24306,0.3588 -0.39353,0.56714 -0.16203,0.21991 -0.21991,0.3125 0.64816,0.39352 2.5116,0.65973 2.38428,0.34722 3.5417,0.78704 1.169,0.43982 1.67826,1.28474 0.52084,0.83334 0.52084,2.28011 0,0.90279 -0.83334,2.02548 -0.83334,1.1227 -2.77781,2.12965 -1.94446,1.00696 -4.30559,1.00696 -1.93289,0 -3.3218,-0.7639 -1.37732,-0.76389 -1.37732,-1.28473 0,-1.11112 1.40047,-1.11112 0.31251,0 0.67131,0.28935 1.28473,0.90279 2.95141,0.90279 1.77085,0 3.6343,-1.05325 1.87502,-1.05325 1.87502,-2.01391 0,-1.22687 -0.91437,-1.87502 -0.90278,-0.65973 -2.8241,-0.86806 l -2.61576,-0.28936 q -1.09955,-0.13889 -1.70141,-0.56713 -0.60186,-0.43982 -0.60186,-0.8102 0,-0.39352 0.42825,-0.89121 0.0926,-0.12732 1.00695,-1.45835 1.8866,-2.81252 2.37271,-2.96299 0.49769,-0.16204 6.25006,-0.34722 1.01853,-0.0232 2.1065,-0.33566 0.85649,-0.23148 1.06483,-0.23148 0.7176,0 1.25001,0.42825 0.38195,0.19676 0.38195,0.42824 0,0.33565 -0.42825,0.84492 -0.42824,0.50926 -1.23843,0.625 -0.79862,0.11574 -2.00234,0.11574 l -3.86578,-0.11574 q -1.7014,0 -2.66206,0.32408 z"
         style="font-style:normal;font-variant:normal;font-weight:normal;font-stretch:normal;font-family:'Segoe Print';-inkscape-font-specification:'Segoe Print';fill:#ffffff"
         id="path5725" />
      <path
         d="m 167.51531,897.70254 q -0.24306,0.31251 -1.06482,0.31251 -0.30093,0 -0.99538,-0.081 -0.78705,-0.0926 -1.13427,-0.0926 l -0.7639,0 q -0.33565,0 -0.60186,0.0116 l -0.55556,0 q -0.27778,0 -0.59028,0.0116 -0.25463,0.49769 -0.25463,1.57409 0,1.31946 -0.0579,1.65511 -0.0579,0.32408 -0.0231,0.92594 0.0347,0.59028 -0.63658,0.59028 -0.49769,0 -0.65973,-0.18519 -0.15047,-0.19676 -0.15047,-0.69445 0,-0.26621 0.19676,-1.81715 0.0926,-0.75232 0.18519,-2.04863 -0.74075,-0.0694 -2.23382,-0.0694 -0.25463,0 -0.68287,0.11574 -0.4514,0.10417 -0.59029,0.10417 -0.3125,0 -0.56713,-0.23149 -0.24306,-0.24305 -0.24306,-0.55556 0,-0.23148 0.16204,-0.48611 0.17361,-0.26621 0.38195,-0.26621 0.40509,0 0.84491,0.081 0.4514,0.081 0.6713,0.081 l 2.32642,-0.11574 q 0.13889,-0.43982 0.13889,-0.90279 0,-0.62501 -0.0926,-2.12965 -0.0463,-0.62501 -0.0463,-1.0764 0,-0.39352 0.23148,-0.78704 0.24306,-0.39353 0.60186,-0.39353 0.18518,0 0.40509,0.38195 0.23149,0.38195 0.23149,0.59029 0,0.60185 -0.10417,1.60881 -0.10417,1.00695 -0.10417,1.37733 0,0.59028 0.0694,1.18056 0.23148,0.081 1.35418,0.081 l 2.65049,-0.0463 q 1.07639,0 1.3889,0.23148 0.3125,0.23148 0.3125,1.06482 z"
         style="font-style:normal;font-variant:normal;font-weight:normal;font-stretch:normal;font-family:'Segoe Print';-inkscape-font-specification:'Segoe Print';fill:#ffffff"
         id="path5727" />
      <path
         d="m 179.57561,889.92469 q -0.4051,0 -0.56714,0.10417 -1.51621,0.42824 -3.25234,2.60419 -0.3125,0.41667 -1.0764,1.15742 -0.83334,0.79862 -1.26159,1.42362 -0.41667,0.61344 -0.79862,1.72456 -0.37037,1.11112 -0.37037,2.07178 0,0.59028 0.24306,1.08797 0.24306,0.49769 1.49307,1.28474 -0.23149,-1.81715 0.63658,-3.40282 0.86806,-1.59723 2.18752,-2.29168 1.31946,-0.70603 4.08569,-0.70603 1.33103,0 2.39585,0.92594 1.0764,0.91436 1.0764,2.19909 0,0.84492 -0.69445,1.77085 -0.69445,0.92594 -2.28011,1.93289 -1.58567,1.00695 -2.52318,1.36575 -0.92593,0.3588 -3.39123,0.3588 -1.28474,0 -2.29169,-0.43982 -0.99538,-0.43981 -1.92132,-1.52779 -0.91436,-1.08797 -0.91436,-1.97918 0,-1.99076 0.53242,-3.20605 0.53241,-1.22687 1.49307,-2.56947 0.97223,-1.35418 1.86344,-2.17595 0.30093,-0.27778 0.97223,-1.00695 1.26159,-1.38891 2.1065,-1.96761 0.85649,-0.57871 1.64354,-0.57871 0.39352,0 0.74075,0.27778 0.34722,0.2662 0.34722,0.6713 0,0.79862 -0.47454,0.89121 z m 3.20605,7.70841 q -1.30788,-0.94908 -3.04401,-0.94908 -4.12041,0 -4.38662,4.86115 0.38195,0.11575 1.0301,0.11575 l 1.13427,-0.0463 q 1.13427,0 3.19448,-1.42363 2.07178,-1.42362 2.07178,-2.55789 z"
         style="font-style:normal;font-variant:normal;font-weight:normal;font-stretch:normal;font-family:'Segoe Print';-inkscape-font-specification:'Segoe Print';fill:#ffffff"
         id="path5729" />
      <path
         d="m 197.71236,894.01038 q -0.25464,0 -0.70603,-0.19676 -0.49769,-0.17361 -0.72917,-0.17361 -0.17362,0 -0.50927,0.0579 -0.34722,0.0694 -0.53241,0.0694 -0.3588,0 -1.04168,-0.0694 -0.69445,-0.0695 -1.14584,-0.0695 -0.85649,0 -2.25697,0.16204 -1.41205,0.17361 -2.30326,0.17361 -0.49769,0 -0.72917,-0.15046 -0.23149,-0.16204 -0.23149,-0.7176 0,-0.33565 0.19676,-0.61343 0.20834,-0.28936 1.21529,-0.4514 1.00696,-0.17361 1.63196,-0.17361 0.25464,0 0.72918,0.0579 0.63658,0.0463 2.17594,0.0116 1.53937,-0.0463 2.37271,-0.23149 0.0695,-0.0232 0.87964,-0.0116 0.82177,0.0116 1.34261,0.40509 0.53241,0.38195 0.53241,0.92594 0,0.99538 -0.89121,0.99538 z m -4.06254,5.41672 -1.41205,0 -3.6343,0.0579 q -0.18518,0 -0.52084,-0.48612 -0.33565,-0.48611 -0.33565,-0.72917 0,-0.34723 0.78705,-0.52084 0.78704,-0.18519 1.40047,-0.18519 l 2.90512,0.0694 q 0.3588,0 0.84492,-0.081 0.57871,-0.10417 1.35418,-0.10417 1.42362,0 2.58104,0.27778 1.15742,0.27778 1.15742,0.96066 0,0.32408 -0.18519,0.64815 -0.18518,0.31251 -0.37037,0.31251 -0.30093,0 -1.08797,-0.13889 -0.96066,-0.13889 -1.46992,-0.10417 -0.50927,0.0231 -2.01391,0.0231 z"
         style="font-style:normal;font-variant:normal;font-weight:normal;font-stretch:normal;font-family:'Segoe Print';-inkscape-font-specification:'Segoe Print';fill:#ffffff"
         id="path5731" />
    </g>
  </g>
</svg>
