<?xml version="1.0" encoding="UTF-8" standalone="no"?>
<!-- Created with Inkscape (http://www.inkscape.org/) -->

<svg
   xmlns:dc="http://purl.org/dc/elements/1.1/"
   xmlns:cc="http://creativecommons.org/ns#"
   xmlns:rdf="http://www.w3.org/1999/02/22-rdf-syntax-ns#"
   xmlns:svg="http://www.w3.org/2000/svg"
   xmlns="http://www.w3.org/2000/svg"
   xmlns:sodipodi="http://sodipodi.sourceforge.net/DTD/sodipodi-0.dtd"
   xmlns:inkscape="http://www.inkscape.org/namespaces/inkscape"
   width="128"
   height="128"
   viewBox="0 0 128 128"
   id="svg4159"
   version="1.1"
   inkscape:version="0.91 r13725"
   sodipodi:docname="icon.svg">
  <defs
     id="defs4161" />
  <sodipodi:namedview
     id="base"
     pagecolor="#ffffff"
     bordercolor="#666666"
     borderopacity="1.0"
     inkscape:pageopacity="0.0"
     inkscape:pageshadow="2"
     inkscape:zoom="5.6568542"
     inkscape:cx="11.047246"
     inkscape:cy="70.633607"
     inkscape:document-units="px"
     inkscape:current-layer="layer1"
     showgrid="false"
     units="px"
     inkscape:window-width="2560"
     inkscape:window-height="1017"
     inkscape:window-x="-8"
     inkscape:window-y="-8"
     inkscape:window-maximized="1"
     inkscape:snap-global="true"
     inkscape:object-paths="false"
     inkscape:object-nodes="true">
    <inkscape:grid
       type="xygrid"
       id="grid4707" />
  </sodipodi:namedview>
  <metadata
     id="metadata4164">
    <rdf:RDF>
      <cc:Work
         rdf:about="">
        <dc:format>image/svg+xml</dc:format>
        <dc:type
           rdf:resource="http://purl.org/dc/dcmitype/StillImage" />
        <dc:title></dc:title>
      </cc:Work>
    </rdf:RDF>
  </metadata>
  <g
     inkscape:label="Layer 1"
     inkscape:groupmode="layer"
     id="layer1"
     transform="translate(0,-924.36214)">
    <path
       style="color:#000000;clip-rule:nonzero;display:inline;overflow:visible;visibility:visible;opacity:1;isolation:auto;mix-blend-mode:normal;color-interpolation:sRGB;color-interpolation-filters:linearRGB;solid-color:#000000;solid-opacity:1;fill:#000000;fill-opacity:1;fill-rule:evenodd;stroke:#000000;stroke-width:2;stroke-linecap:round;stroke-linejoin:round;stroke-miterlimit:4;stroke-dasharray:none;stroke-dashoffset:0;stroke-opacity:1;color-rendering:auto;image-rendering:auto;shape-rendering:auto;text-rendering:auto;enable-background:accumulate"
       d="M 38.75,17.5 38.5,41 10.482422,101.28516 6,100.625 l 2,6 88.219896,16.38564 L 115.25,48.5 l 0.5,-24.75 -2,-6 -0.11719,5.828125 z"
       transform="translate(0,924.36214)"
       id="path5377"
       inkscape:connector-curvature="0"
       sodipodi:nodetypes="ccccccccccc" />
    <path
       style="color:#000000;clip-rule:nonzero;display:inline;overflow:visible;visibility:visible;opacity:1;isolation:auto;mix-blend-mode:normal;color-interpolation:sRGB;color-interpolation-filters:linearRGB;solid-color:#000000;solid-opacity:1;fill:#6f7c91;fill-opacity:1;fill-rule:evenodd;stroke:#373e48;stroke-width:2;stroke-linecap:round;stroke-linejoin:round;stroke-miterlimit:4;stroke-dasharray:none;stroke-dashoffset:0;stroke-opacity:1;color-rendering:auto;image-rendering:auto;shape-rendering:auto;text-rendering:auto;enable-background:accumulate"
       d="m 6,1024.9871 86.62868,12.7626 20.62132,-70.88756 0.5,-24.75 -77,-6.25 -0.25,23.5 z"
       id="path4709"
       inkscape:connector-curvature="0"
       sodipodi:nodetypes="ccccccc" />
    <ellipse
       ry="5.2559662"
       rx="6.9397864"
       cy="972.46509"
       cx="45.403881"
       id="ellipse5185"
       style="color:#000000;clip-rule:nonzero;display:inline;overflow:visible;visibility:visible;opacity:1;isolation:auto;mix-blend-mode:normal;color-interpolation:sRGB;color-interpolation-filters:linearRGB;solid-color:#000000;solid-opacity:1;fill:#000000;fill-opacity:1;fill-rule:evenodd;stroke:#000000;stroke-width:1.99999988;stroke-linecap:round;stroke-linejoin:round;stroke-miterlimit:4;stroke-dasharray:none;stroke-dashoffset:0;stroke-opacity:1;color-rendering:auto;image-rendering:auto;shape-rendering:auto;text-rendering:auto;enable-background:accumulate" />
    <ellipse
       style="color:#000000;clip-rule:nonzero;display:inline;overflow:visible;visibility:visible;opacity:1;isolation:auto;mix-blend-mode:normal;color-interpolation:sRGB;color-interpolation-filters:linearRGB;solid-color:#000000;solid-opacity:1;fill:#000000;fill-opacity:1;fill-rule:evenodd;stroke:#000000;stroke-width:1.99999988;stroke-linecap:round;stroke-linejoin:round;stroke-miterlimit:4;stroke-dasharray:none;stroke-dashoffset:0;stroke-opacity:1;color-rendering:auto;image-rendering:auto;shape-rendering:auto;text-rendering:auto;enable-background:accumulate"
       id="ellipse5193"
       cx="63.081551"
       cy="974.40961"
       rx="6.9397864"
       ry="5.2559662" />
    <ellipse
       ry="5.2559662"
       rx="6.9397864"
       cy="976.35419"
       cx="80.935997"
       id="ellipse5201"
       style="color:#000000;clip-rule:nonzero;display:inline;overflow:visible;visibility:visible;opacity:1;isolation:auto;mix-blend-mode:normal;color-interpolation:sRGB;color-interpolation-filters:linearRGB;solid-color:#000000;solid-opacity:1;fill:#000000;fill-opacity:1;fill-rule:evenodd;stroke:#000000;stroke-width:1.99999988;stroke-linecap:round;stroke-linejoin:round;stroke-miterlimit:4;stroke-dasharray:none;stroke-dashoffset:0;stroke-opacity:1;color-rendering:auto;image-rendering:auto;shape-rendering:auto;text-rendering:auto;enable-background:accumulate" />
    <ellipse
       style="color:#000000;clip-rule:nonzero;display:inline;overflow:visible;visibility:visible;opacity:1;isolation:auto;mix-blend-mode:normal;color-interpolation:sRGB;color-interpolation-filters:linearRGB;solid-color:#000000;solid-opacity:1;fill:#000000;fill-opacity:1;fill-rule:evenodd;stroke:#000000;stroke-width:1.99999988;stroke-linecap:round;stroke-linejoin:round;stroke-miterlimit:4;stroke-dasharray:none;stroke-dashoffset:0;stroke-opacity:1;color-rendering:auto;image-rendering:auto;shape-rendering:auto;text-rendering:auto;enable-background:accumulate"
       id="ellipse5209"
       cx="99.143997"
       cy="978.47552"
       rx="6.9397864"
       ry="5.2559662" />
    <ellipse
       style="color:#000000;clip-rule:nonzero;display:inline;overflow:visible;visibility:visible;opacity:1;isolation:auto;mix-blend-mode:normal;color-interpolation:sRGB;color-interpolation-filters:linearRGB;solid-color:#000000;solid-opacity:1;fill:#000000;fill-opacity:1;fill-rule:evenodd;stroke:#000000;stroke-width:1.99999988;stroke-linecap:round;stroke-linejoin:round;stroke-miterlimit:4;stroke-dasharray:none;stroke-dashoffset:0;stroke-opacity:1;color-rendering:auto;image-rendering:auto;shape-rendering:auto;text-rendering:auto;enable-background:accumulate"
       id="ellipse5217"
       cx="38.70916"
       cy="985.81964"
       rx="7.1393547"
       ry="5.7058454" />
    <ellipse
       ry="5.7058454"
       rx="7.1393547"
       cy="987.9306"
       cx="56.895187"
       id="ellipse5225"
       style="color:#000000;clip-rule:nonzero;display:inline;overflow:visible;visibility:visible;opacity:1;isolation:auto;mix-blend-mode:normal;color-interpolation:sRGB;color-interpolation-filters:linearRGB;solid-color:#000000;solid-opacity:1;fill:#000000;fill-opacity:1;fill-rule:evenodd;stroke:#000000;stroke-width:1.99999988;stroke-linecap:round;stroke-linejoin:round;stroke-miterlimit:4;stroke-dasharray:none;stroke-dashoffset:0;stroke-opacity:1;color-rendering:auto;image-rendering:auto;shape-rendering:auto;text-rendering:auto;enable-background:accumulate" />
    <ellipse
       style="color:#000000;clip-rule:nonzero;display:inline;overflow:visible;visibility:visible;opacity:1;isolation:auto;mix-blend-mode:normal;color-interpolation:sRGB;color-interpolation-filters:linearRGB;solid-color:#000000;solid-opacity:1;fill:#000000;fill-opacity:1;fill-rule:evenodd;stroke:#000000;stroke-width:1.99999988;stroke-linecap:round;stroke-linejoin:round;stroke-miterlimit:4;stroke-dasharray:none;stroke-dashoffset:0;stroke-opacity:1;color-rendering:auto;image-rendering:auto;shape-rendering:auto;text-rendering:auto;enable-background:accumulate"
       id="ellipse5233"
       cx="75.263077"
       cy="990.04163"
       rx="7.1393547"
       ry="5.7058454" />
    <ellipse
       ry="5.7058454"
       rx="7.1393547"
       cy="992.34448"
       cx="93.994682"
       id="ellipse5241"
       style="color:#000000;clip-rule:nonzero;display:inline;overflow:visible;visibility:visible;opacity:1;isolation:auto;mix-blend-mode:normal;color-interpolation:sRGB;color-interpolation-filters:linearRGB;solid-color:#000000;solid-opacity:1;fill:#000000;fill-opacity:1;fill-rule:evenodd;stroke:#000000;stroke-width:1.99999988;stroke-linecap:round;stroke-linejoin:round;stroke-miterlimit:4;stroke-dasharray:none;stroke-dashoffset:0;stroke-opacity:1;color-rendering:auto;image-rendering:auto;shape-rendering:auto;text-rendering:auto;enable-background:accumulate" />
    <ellipse
       ry="6.3786201"
       rx="7.3572311"
       cy="1000.1075"
       cx="32.20871"
       id="ellipse5249"
       style="color:#000000;clip-rule:nonzero;display:inline;overflow:visible;visibility:visible;opacity:1;isolation:auto;mix-blend-mode:normal;color-interpolation:sRGB;color-interpolation-filters:linearRGB;solid-color:#000000;solid-opacity:1;fill:#000000;fill-opacity:1;fill-rule:evenodd;stroke:#000000;stroke-width:2;stroke-linecap:round;stroke-linejoin:round;stroke-miterlimit:4;stroke-dasharray:none;stroke-dashoffset:0;stroke-opacity:1;color-rendering:auto;image-rendering:auto;shape-rendering:auto;text-rendering:auto;enable-background:accumulate" />
    <ellipse
       style="color:#000000;clip-rule:nonzero;display:inline;overflow:visible;visibility:visible;opacity:1;isolation:auto;mix-blend-mode:normal;color-interpolation:sRGB;color-interpolation-filters:linearRGB;solid-color:#000000;solid-opacity:1;fill:#000000;fill-opacity:1;fill-rule:evenodd;stroke:#000000;stroke-width:2;stroke-linecap:round;stroke-linejoin:round;stroke-miterlimit:4;stroke-dasharray:none;stroke-dashoffset:0;stroke-opacity:1;color-rendering:auto;image-rendering:auto;shape-rendering:auto;text-rendering:auto;enable-background:accumulate"
       id="ellipse5257"
       cx="50.949738"
       cy="1002.4673"
       rx="7.3572311"
       ry="6.3786201" />
    <ellipse
       ry="6.3786201"
       rx="7.3572311"
       cy="1004.8273"
       cx="69.878174"
       id="ellipse5265"
       style="color:#000000;clip-rule:nonzero;display:inline;overflow:visible;visibility:visible;opacity:1;isolation:auto;mix-blend-mode:normal;color-interpolation:sRGB;color-interpolation-filters:linearRGB;solid-color:#000000;solid-opacity:1;fill:#000000;fill-opacity:1;fill-rule:evenodd;stroke:#000000;stroke-width:2;stroke-linecap:round;stroke-linejoin:round;stroke-miterlimit:4;stroke-dasharray:none;stroke-dashoffset:0;stroke-opacity:1;color-rendering:auto;image-rendering:auto;shape-rendering:auto;text-rendering:auto;enable-background:accumulate" />
    <ellipse
       style="color:#000000;clip-rule:nonzero;display:inline;overflow:visible;visibility:visible;opacity:1;isolation:auto;mix-blend-mode:normal;color-interpolation:sRGB;color-interpolation-filters:linearRGB;solid-color:#000000;solid-opacity:1;fill:#000000;fill-opacity:1;fill-rule:evenodd;stroke:#000000;stroke-width:2;stroke-linecap:round;stroke-linejoin:round;stroke-miterlimit:4;stroke-dasharray:none;stroke-dashoffset:0;stroke-opacity:1;color-rendering:auto;image-rendering:auto;shape-rendering:auto;text-rendering:auto;enable-background:accumulate"
       id="ellipse5273"
       cx="89.181427"
       cy="1007.4017"
       rx="7.3572311"
       ry="6.3786201" />
    <ellipse
       style="color:#000000;clip-rule:nonzero;display:inline;overflow:visible;visibility:visible;opacity:1;isolation:auto;mix-blend-mode:normal;color-interpolation:sRGB;color-interpolation-filters:linearRGB;solid-color:#000000;solid-opacity:1;fill:#000000;fill-opacity:1;fill-rule:evenodd;stroke:#000000;stroke-width:2;stroke-linecap:round;stroke-linejoin:round;stroke-miterlimit:4;stroke-dasharray:none;stroke-dashoffset:0;stroke-opacity:1;color-rendering:auto;image-rendering:auto;shape-rendering:auto;text-rendering:auto;enable-background:accumulate"
       id="ellipse5281"
       cx="24.895546"
       cy="1015.6981"
       rx="7.6480422"
       ry="6.9370742" />
    <ellipse
       ry="6.9370742"
       rx="7.6480422"
       cy="1018.2645"
       cx="44.377346"
       id="ellipse5289"
       style="color:#000000;clip-rule:nonzero;display:inline;overflow:visible;visibility:visible;opacity:1;isolation:auto;mix-blend-mode:normal;color-interpolation:sRGB;color-interpolation-filters:linearRGB;solid-color:#000000;solid-opacity:1;fill:#000000;fill-opacity:1;fill-rule:evenodd;stroke:#000000;stroke-width:2;stroke-linecap:round;stroke-linejoin:round;stroke-miterlimit:4;stroke-dasharray:none;stroke-dashoffset:0;stroke-opacity:1;color-rendering:auto;image-rendering:auto;shape-rendering:auto;text-rendering:auto;enable-background:accumulate" />
    <ellipse
       style="color:#000000;clip-rule:nonzero;display:inline;overflow:visible;visibility:visible;opacity:1;isolation:auto;mix-blend-mode:normal;color-interpolation:sRGB;color-interpolation-filters:linearRGB;solid-color:#000000;solid-opacity:1;fill:#000000;fill-opacity:1;fill-rule:evenodd;stroke:#000000;stroke-width:2;stroke-linecap:round;stroke-linejoin:round;stroke-miterlimit:4;stroke-dasharray:none;stroke-dashoffset:0;stroke-opacity:1;color-rendering:auto;image-rendering:auto;shape-rendering:auto;text-rendering:auto;enable-background:accumulate"
       id="ellipse5297"
       cx="64.05397"
       cy="1020.8311"
       rx="7.6480422"
       ry="6.9370742" />
    <ellipse
       ry="6.9370742"
       rx="7.6480422"
       cy="1023.6309"
       cx="84.120224"
       id="ellipse5305"
       style="color:#000000;clip-rule:nonzero;display:inline;overflow:visible;visibility:visible;opacity:1;isolation:auto;mix-blend-mode:normal;color-interpolation:sRGB;color-interpolation-filters:linearRGB;solid-color:#000000;solid-opacity:1;fill:#000000;fill-opacity:1;fill-rule:evenodd;stroke:#000000;stroke-width:2;stroke-linecap:round;stroke-linejoin:round;stroke-miterlimit:4;stroke-dasharray:none;stroke-dashoffset:0;stroke-opacity:1;color-rendering:auto;image-rendering:auto;shape-rendering:auto;text-rendering:auto;enable-background:accumulate" />
    <path
       style="color:#000000;clip-rule:nonzero;display:inline;overflow:visible;visibility:visible;opacity:1;isolation:auto;mix-blend-mode:normal;color-interpolation:sRGB;color-interpolation-filters:linearRGB;solid-color:#000000;solid-opacity:1;fill:#66ff00;fill-opacity:1;fill-rule:evenodd;stroke:#225500;stroke-width:2;stroke-linecap:round;stroke-linejoin:round;stroke-miterlimit:4;stroke-dasharray:none;stroke-dashoffset:0;stroke-opacity:1;color-rendering:auto;image-rendering:auto;shape-rendering:auto;text-rendering:auto;enable-background:accumulate"
       d="m 42.27996,940.87455 c -0.176776,0.70711 -0.353553,15.55635 -0.353553,15.55635 l 66.234283,6.88541 0.40533,-17.09557 z"
       id="path4727"
       inkscape:connector-curvature="0"
       sodipodi:nodetypes="ccccc" />
    <g
       id="g4832"
       transform="translate(-0.5,-8.25)">
      <ellipse
         ry="5.2559662"
         rx="6.9397864"
         cy="977.71509"
         cx="45.653881"
         id="path4711"
         style="color:#000000;clip-rule:nonzero;display:inline;overflow:visible;visibility:visible;opacity:1;isolation:auto;mix-blend-mode:normal;color-interpolation:sRGB;color-interpolation-filters:linearRGB;solid-color:#000000;solid-opacity:1;fill:#c8beb7;fill-opacity:1;fill-rule:evenodd;stroke:#483e37;stroke-width:1.99999988;stroke-linecap:round;stroke-linejoin:round;stroke-miterlimit:4;stroke-dasharray:none;stroke-dashoffset:0;stroke-opacity:1;color-rendering:auto;image-rendering:auto;shape-rendering:auto;text-rendering:auto;enable-background:accumulate" />
      <g
         transform="matrix(1.1019736,0.19309516,-0.34508112,0.84699534,0,0)"
         style="font-style:normal;font-weight:normal;font-size:12.72777939px;line-height:125%;font-family:sans-serif;letter-spacing:0px;word-spacing:0px;fill:#000000;fill-opacity:1;stroke:none;stroke-width:1px;stroke-linecap:butt;stroke-linejoin:miter;stroke-opacity:1"
         id="text4738">
        <path
           d="m 380.19707,1064.6361 q 0,0.1616 -0.0621,0.2672 -0.0932,0.1243 -0.19887,0.2548 -0.10565,0.1305 -0.21752,0.261 -0.10565,0.1306 -0.21752,0.2611 -0.10565,0.1243 -0.19887,0.2299 -0.087,0.099 -0.2113,0.261 -0.11808,0.1616 -0.2548,0.3543 -0.13051,0.1926 -0.26724,0.3915 -0.13051,0.1989 -0.24237,0.3729 -0.11187,0.1678 -0.19266,0.2921 -0.0746,0.1181 -0.0994,0.1491 -0.24859,0.3791 -0.52204,0.8577 -0.27345,0.4785 -0.50961,0.9632 -0.13672,0.2859 -0.27345,0.5656 -0.13672,0.2734 -0.2548,0.5282 -0.11187,0.2548 -0.19887,0.4848 -0.087,0.2299 -0.1243,0.4226 -0.0373,0.1305 -0.0373,0.4288 0,0.1119 -0.0311,0.2299 -0.0311,0.1119 -0.10565,0.2051 -0.0684,0.093 -0.18023,0.1554 -0.10565,0.062 -0.2548,0.062 -0.14916,0 -0.26102,-0.081 -0.11187,-0.081 -0.18644,-0.2051 -0.0746,-0.1243 -0.11808,-0.2673 -0.0373,-0.1491 -0.0373,-0.2734 0,-0.1989 0.31695,-0.9011 0.22373,-0.4786 0.44746,-0.926 0.22373,-0.4475 0.45989,-0.8763 0.23616,-0.4351 0.48475,-0.8577 0.2548,-0.4288 0.54068,-0.8576 0.0684,-0.099 0.19887,-0.2983 0.13673,-0.2051 0.2921,-0.4288 0.15537,-0.2237 0.30452,-0.4288 0.15537,-0.2113 0.26102,-0.3232 0.11186,-0.1181 0.24237,-0.2734 0.13673,-0.1554 0.24859,-0.3046 l -0.11808,-0.087 q -0.2113,0.012 -0.47853,0.031 -0.26102,0.012 -0.5469,0.025 -0.27966,0.012 -0.57176,0.025 -0.29209,0.013 -0.56554,0.019 -0.40395,0.012 -0.90113,0.025 -0.49097,0.01 -0.95707,0.019 -0.46611,0.012 -0.83278,0.019 -0.36667,0.01 -0.50961,0.01 -0.087,0 -0.15536,-0.043 -0.0622,-0.043 -0.11187,-0.1118 -0.0435,-0.075 -0.0684,-0.1554 -0.0249,-0.087 -0.0249,-0.1678 0,-0.093 0.0435,-0.1927 0.0435,-0.099 0.11187,-0.1802 0.0746,-0.087 0.16158,-0.1367 0.0932,-0.056 0.18644,-0.056 0.17402,0 0.44125,0.019 0.26723,0.012 0.60283,0.037 0.34181,0.019 0.74577,0.037 0.40396,0.012 0.85142,0.012 0.20508,0 0.45989,-0.01 0.2548,-0.01 0.53446,-0.012 0.27967,-0.012 0.57797,-0.031 0.29831,-0.019 0.5904,-0.037 0.22995,-0.019 0.42882,-0.037 0.20509,-0.025 0.39774,-0.043 0.19266,-0.019 0.38532,-0.031 0.19265,-0.012 0.40396,-0.012 0.16158,0 0.26723,0.099 0.11186,0.093 0.11186,0.2735 z"
           style="font-style:normal;font-variant:normal;font-weight:normal;font-stretch:normal;font-family:'Segoe Script';-inkscape-font-specification:'Segoe Script'"
           id="path5414" />
      </g>
    </g>
    <g
       id="g4837"
       transform="translate(17.17767,-6.3054563)">
      <ellipse
         style="color:#000000;clip-rule:nonzero;display:inline;overflow:visible;visibility:visible;opacity:1;isolation:auto;mix-blend-mode:normal;color-interpolation:sRGB;color-interpolation-filters:linearRGB;solid-color:#000000;solid-opacity:1;fill:#c8beb7;fill-opacity:1;fill-rule:evenodd;stroke:#483e37;stroke-width:1.99999988;stroke-linecap:round;stroke-linejoin:round;stroke-miterlimit:4;stroke-dasharray:none;stroke-dashoffset:0;stroke-opacity:1;color-rendering:auto;image-rendering:auto;shape-rendering:auto;text-rendering:auto;enable-background:accumulate"
         id="ellipse4839"
         cx="45.653881"
         cy="977.71509"
         rx="6.9397864"
         ry="5.2559662" />
      <g
         transform="matrix(1.1019736,0.19309516,-0.34508112,0.84699534,0,0)"
         style="font-style:normal;font-weight:normal;font-size:12.72777939px;line-height:125%;font-family:sans-serif;letter-spacing:0px;word-spacing:0px;fill:#000000;fill-opacity:1;stroke:none;stroke-width:1px;stroke-linecap:butt;stroke-linejoin:miter;stroke-opacity:1"
         id="text4841">
        <path
           d="m 379.06599,1066.1028 q 0,0.1678 -0.27966,0.5469 -0.13672,0.1864 -0.2548,0.3293 -0.11808,0.143 -0.21752,0.2424 -0.2113,0.23 -0.37288,0.348 -0.087,0.062 -0.24238,0.1741 -0.15537,0.1056 -0.38531,0.2672 -0.22995,0.1616 -0.39153,0.2859 -0.15537,0.1243 -0.24859,0.2113 0.19887,0.081 0.40396,0.2051 0.2113,0.118 0.42881,0.292 0.22373,0.1741 0.41018,0.3667 0.19265,0.1927 0.35424,0.4102 0.32316,0.4226 0.32316,0.8141 0,0.143 -0.0186,0.2983 -0.0187,0.1492 -0.0497,0.317 -0.0621,0.3231 -0.2113,0.5034 -0.19887,0.2486 -0.76441,0.4536 -0.56554,0.1989 -1.16837,0.3108 -0.30453,0.062 -0.55311,0.087 -0.24859,0.031 -0.44125,0.031 -0.44746,0 -1.11865,-0.1492 -0.67119,-0.1616 -0.93221,-0.3853 -0.34181,-0.3045 -0.34181,-0.9322 0,-0.2983 0.11186,-0.5158 0.0621,-0.1057 0.15537,-0.2548 0.0994,-0.1492 0.24237,-0.3356 0.16159,-0.2113 0.3791,-0.3916 0.22373,-0.1864 0.44125,-0.3293 0.21752,-0.1492 0.4226,-0.2921 0.2113,-0.143 0.44746,-0.3232 -0.11808,-0.068 -0.33559,-0.1802 -0.2113,-0.1181 -0.42261,-0.2424 -0.2113,-0.1243 -0.36045,-0.2237 -0.14915,-0.1057 -0.29209,-0.2362 -0.18644,-0.1678 -0.41639,-0.5407 -0.21752,-0.3667 -0.21752,-0.5904 -0.0124,-0.3791 0.18023,-0.6712 0.19887,-0.2921 0.5034,-0.5282 0.31073,-0.2362 0.68983,-0.4351 0.3791,-0.205 0.73334,-0.4163 0.55311,-0.3419 1.32374,-0.3419 0.13051,-0.01 0.36667,0.062 0.23616,0.068 0.47232,0.174 0.24237,0.1057 0.43503,0.2237 0.19887,0.1181 0.2548,0.2176 0.10565,0.1553 0.17402,0.5966 0.0311,0.2175 0.0497,0.3418 0.0186,0.1243 0.0311,0.1553 0.0311,-0.037 0.0684,-0.093 0.0435,-0.056 0.0932,-0.1367 0.0932,-0.1554 0.14294,-0.2175 0.14294,0.037 0.26723,0.1989 0.13051,0.1615 0.13051,0.2983 z m -1.54125,0.2299 q 0,-0.2486 -0.0808,-0.4537 -0.0808,-0.2051 -0.22995,-0.3542 -0.14915,-0.1492 -0.35424,-0.23 -0.20508,-0.081 -0.45367,-0.081 -0.2921,0 -0.72713,0.1864 -0.4226,0.174 -0.81413,0.4412 -0.37288,0.2548 -0.53447,0.5034 -0.0994,0.143 -0.0994,0.2176 0,0.2423 0.19266,0.4661 0.19265,0.2237 0.49717,0.4288 0.15537,0.099 0.31696,0.1988 0.16158,0.1 0.34181,0.1989 0.18022,0.1 0.29209,0.1678 0.11186,0.062 0.16158,0.093 0.13051,-0.1056 0.28588,-0.2361 0.15537,-0.1367 0.3356,-0.2983 0.18644,-0.1554 0.34181,-0.317 0.16158,-0.1678 0.27344,-0.3294 0.11808,-0.1615 0.18645,-0.3107 0.0684,-0.1554 0.0684,-0.2921 z m 0.087,4.313 q 0,-0.2734 -0.28587,-0.6152 -0.2921,-0.348 -0.67741,-0.6153 -0.39774,-0.2734 -0.67741,-0.3729 -0.64633,0.4289 -1.2678,1.0255 -0.62769,0.5904 -0.62769,1.0751 0,0.261 0.34803,0.4102 0.35424,0.1491 0.64633,0.1491 0.18022,0 0.41017,-0.012 0.22995,-0.012 0.50961,-0.037 0.28588,-0.025 0.50339,-0.062 0.21752,-0.043 0.37289,-0.093 0.0621,-0.025 0.14294,-0.062 0.0808,-0.043 0.18644,-0.1119 0.20508,-0.1305 0.29209,-0.2175 0.12429,-0.1243 0.12429,-0.3294 l 0,-0.1305 z"
           style="font-style:normal;font-variant:normal;font-weight:normal;font-stretch:normal;font-family:'Segoe Script';-inkscape-font-specification:'Segoe Script'"
           id="path5411" />
      </g>
    </g>
    <g
       transform="translate(35.032117,-4.3609127)"
       id="g4845">
      <ellipse
         ry="5.2559662"
         rx="6.9397864"
         cy="977.71509"
         cx="45.653881"
         id="ellipse4847"
         style="color:#000000;clip-rule:nonzero;display:inline;overflow:visible;visibility:visible;opacity:1;isolation:auto;mix-blend-mode:normal;color-interpolation:sRGB;color-interpolation-filters:linearRGB;solid-color:#000000;solid-opacity:1;fill:#c8beb7;fill-opacity:1;fill-rule:evenodd;stroke:#483e37;stroke-width:1.99999988;stroke-linecap:round;stroke-linejoin:round;stroke-miterlimit:4;stroke-dasharray:none;stroke-dashoffset:0;stroke-opacity:1;color-rendering:auto;image-rendering:auto;shape-rendering:auto;text-rendering:auto;enable-background:accumulate" />
      <g
         transform="matrix(1.1019736,0.19309516,-0.34508112,0.84699534,0,0)"
         style="font-style:normal;font-weight:normal;font-size:12.72777939px;line-height:125%;font-family:sans-serif;letter-spacing:0px;word-spacing:0px;fill:#000000;fill-opacity:1;stroke:none;stroke-width:1px;stroke-linecap:butt;stroke-linejoin:miter;stroke-opacity:1"
         id="text4849">
        <path
           d="m 379.32701,1065.6056 q 0,0.1926 -0.14915,0.5345 -0.19887,0.4785 -0.34181,0.8576 -0.14294,0.3729 -0.22995,0.6587 -0.11808,0.3667 -0.28588,0.9571 -0.16158,0.5842 -0.37909,1.4108 -0.0435,0.1926 -0.0932,0.3853 -0.0435,0.1864 -0.0746,0.3294 -0.0311,0.1429 -0.0621,0.348 -0.0249,0.1989 -0.0249,0.3977 0,0.9322 -0.4226,0.9322 -0.31074,0 -0.42882,-0.2051 -0.10565,-0.1553 -0.1678,-0.3728 -0.0621,-0.2176 -0.0621,-0.3916 0,-0.2113 0.15537,-0.7954 0.0808,-0.3046 0.16779,-0.6091 0.087,-0.3045 0.17402,-0.6215 0.0932,-0.3169 0.16779,-0.5655 0.0746,-0.2548 0.1243,-0.435 l -0.11187,-0.081 q -0.24237,0.1429 -0.49718,0.2796 -0.24858,0.1368 -0.5096,0.2673 -0.50961,0.2548 -0.83899,0.3231 -0.64634,0.1119 -1.12487,0.1119 -0.24237,0 -0.58419,-0.2735 -0.32938,-0.2734 -0.57797,-0.6463 -0.23616,-0.3667 -0.23616,-0.5966 0,-0.6339 0.31696,-1.1684 0.32316,-0.5282 0.74576,-0.8949 0.21752,-0.1864 0.50961,-0.4164 0.29831,-0.2299 0.68362,-0.5096 0.18645,-0.1305 0.63391,-0.2797 0.22373,-0.081 0.44746,-0.1367 0.22373,-0.062 0.44124,-0.1118 0.44746,-0.093 0.70227,-0.093 0.24859,0 0.43503,0.056 0.19266,0.056 0.35424,0.1616 0.1678,0.1056 0.32938,0.2548 0.16158,0.1429 0.36046,0.3169 0.14293,0.1057 0.22373,0.174 0.0808,0.062 0.10565,0.093 0.0497,0.062 0.12429,0.3543 z m -1.08136,0.1305 q -0.10565,-0.2859 -0.41017,-0.4102 -0.31696,-0.1243 -0.65877,-0.1243 -0.60904,0 -1.03786,0.1492 -0.4226,0.1491 -0.90735,0.522 -0.21752,0.1616 -0.42882,0.3667 -0.2113,0.2051 -0.4226,0.4599 -0.4226,0.4972 -0.4226,0.9073 0,0.4102 0.26102,0.6339 0.26723,0.2175 0.68362,0.2175 0.45368,0 1.1373,-0.3169 0.70226,-0.3356 1.21187,-0.6774 0.38531,-0.2672 0.45989,-0.3915 0.1243,-0.2238 0.18644,-0.4226 0.0684,-0.2113 0.15537,-0.4661 0.087,-0.2548 0.19266,-0.4475 z"
           style="font-style:normal;font-variant:normal;font-weight:normal;font-stretch:normal;font-family:'Segoe Script';-inkscape-font-specification:'Segoe Script'"
           id="path5402" />
      </g>
    </g>
    <g
       id="g4853"
       transform="translate(53.240116,-2.2395924)">
      <ellipse
         style="color:#000000;clip-rule:nonzero;display:inline;overflow:visible;visibility:visible;opacity:1;isolation:auto;mix-blend-mode:normal;color-interpolation:sRGB;color-interpolation-filters:linearRGB;solid-color:#000000;solid-opacity:1;fill:#c8beb7;fill-opacity:1;fill-rule:evenodd;stroke:#483e37;stroke-width:1.99999988;stroke-linecap:round;stroke-linejoin:round;stroke-miterlimit:4;stroke-dasharray:none;stroke-dashoffset:0;stroke-opacity:1;color-rendering:auto;image-rendering:auto;shape-rendering:auto;text-rendering:auto;enable-background:accumulate"
         id="ellipse4855"
         cx="45.653881"
         cy="977.71509"
         rx="6.9397864"
         ry="5.2559662" />
      <g
         transform="matrix(1.1019736,0.19309516,-0.34508112,0.84699534,0,0)"
         style="font-style:normal;font-weight:normal;font-size:12.72777939px;line-height:125%;font-family:sans-serif;letter-spacing:0px;word-spacing:0px;fill:#000000;fill-opacity:1;stroke:none;stroke-width:1px;stroke-linecap:butt;stroke-linejoin:miter;stroke-opacity:1"
         id="text4857">
        <path
           d="m 380.12784,1070.5501 q 0,0.2486 -0.087,0.578 -0.0808,0.3045 -0.24859,0.4537 -0.54068,0.4661 -0.98193,0.6836 -0.4226,0.2113 -1.03786,0.2113 -0.66498,0 -0.88249,-0.3853 -0.22995,-0.4412 -0.22995,-0.8017 0,-0.4475 0.24859,-0.9509 0.24859,-0.5096 0.60904,-0.8576 0.34803,-0.3418 0.64634,-0.3418 0.33559,-0.01 0.68983,0.087 0.35424,0.087 0.63391,0.2672 0.28587,0.1741 0.4661,0.4413 0.18023,0.261 0.17401,0.6152 z m -1.44182,-5.587 q 0,0.261 -0.35424,0.4475 -0.14293,0.2548 -0.28587,0.4909 -0.13673,0.2362 -0.28588,0.4723 -0.14915,0.2362 -0.31074,0.4848 -0.16158,0.2424 -0.33559,0.5096 -0.17402,0.2672 -0.36667,0.5593 -0.18645,0.2921 -0.39775,0.6277 -0.2113,0.3294 -0.3791,0.6153 -0.16779,0.2796 -0.2983,0.5158 -0.1243,0.2362 -0.27967,0.5593 -0.15536,0.3232 -0.34802,0.7458 -0.18644,0.4226 -0.3356,0.7395 -0.14294,0.3108 -0.24859,0.5283 -0.0311,0.062 -0.19265,0.2051 -0.16159,0.1491 -0.2113,0.1491 -0.32317,0 -0.32317,-0.4288 0,-0.1243 0.14294,-0.5904 0.13672,-0.4164 0.31695,-0.8452 0.18023,-0.4288 0.38531,-0.839 0.21131,-0.4164 0.44125,-0.8017 0.23616,-0.3915 0.48475,-0.7333 0.12429,-0.174 0.2548,-0.3605 0.13673,-0.1926 0.27345,-0.4101 0.14294,-0.2176 0.31695,-0.4972 0.17402,-0.2859 0.39153,-0.6464 0.21752,-0.3604 0.37289,-0.6152 0.15536,-0.261 0.26102,-0.4226 -0.24859,-0.062 -0.43504,-0.099 -0.18022,-0.043 -0.2983,-0.062 -0.21752,-0.043 -0.68984,-0.043 -0.18023,0 -0.31695,0.01 -0.13051,0 -0.21752,0.01 0.1243,0.2797 0.1243,0.6029 0,0.5593 -0.34803,1.1435 -0.34802,0.5842 -0.8452,0.8514 -0.18023,0.087 -0.32938,0.1554 -0.14294,0.062 -0.26102,0.1056 -0.21752,0.081 -0.47854,0.081 -0.50339,0 -0.6774,-0.3729 -0.17401,-0.3729 -0.17401,-0.9508 0,-0.1989 0.14915,-0.6588 0.0746,-0.2362 0.13672,-0.404 0.0684,-0.174 0.11808,-0.2858 0.15537,-0.3108 0.36046,-0.5594 0.2113,-0.2548 0.45367,-0.435 0.24859,-0.1802 0.53447,-0.2797 0.29209,-0.099 0.62147,-0.099 0.26102,0 0.57797,0.3294 0.3356,0.05 0.77685,0.093 0.44746,0.043 1.013,0.081 0.56554,0.037 0.91978,0.068 0.35424,0.025 0.50961,0.037 0.087,0.099 0.087,0.2299 z m -3.88421,1.1249 q 0,-0.3046 -0.19887,-1.0317 -0.0373,0 -0.0932,0.012 -0.0559,0.01 -0.11808,0.019 -0.0621,0.01 -0.11808,0.012 -0.0559,0.01 -0.0932,0.01 -0.2113,0.013 -0.44125,0.3356 -0.23616,0.3294 -0.39152,0.7334 -0.16159,0.4101 -0.16159,0.6339 0,0.05 -0.006,0.087 0,0.037 0,0.087 0,0.2486 0.11186,0.3107 0.26724,0.143 0.50961,0.143 0.3791,0 0.68984,-0.4599 0.31073,-0.4723 0.31073,-0.8887 z m 4.54919,4.5181 q 0,-0.1554 -0.13051,-0.2921 -0.12429,-0.143 -0.27966,-0.1802 -0.0435,-0.013 -0.11808,-0.043 -0.0684,-0.037 -0.17401,-0.1 -0.2113,-0.1243 -0.2921,-0.1243 -0.13672,0 -0.27966,0.099 -0.14294,0.099 -0.26102,0.2858 -0.11808,0.1803 -0.19887,0.4289 -0.0746,0.2485 -0.0746,0.5469 0,0.3542 0.13673,0.4847 0.15537,-0.037 0.32316,-0.037 0.0435,0 0.13051,0.012 0.087,0.013 0.13673,0.013 0.12429,0 0.47232,-0.1989 0.17401,-0.099 0.27345,-0.1678 0.10565,-0.075 0.14293,-0.1181 0.19266,-0.2299 0.19266,-0.609 z"
           style="font-style:normal;font-variant:normal;font-weight:normal;font-stretch:normal;font-family:'Segoe Script';-inkscape-font-specification:'Segoe Script'"
           id="path5399" />
      </g>
    </g>
    <g
       id="g4861"
       transform="matrix(1.0287571,0,0,1.085594,-8.5075948,-78.581993)">
      <ellipse
         style="color:#000000;clip-rule:nonzero;display:inline;overflow:visible;visibility:visible;opacity:1;isolation:auto;mix-blend-mode:normal;color-interpolation:sRGB;color-interpolation-filters:linearRGB;solid-color:#000000;solid-opacity:1;fill:#c8beb7;fill-opacity:1;fill-rule:evenodd;stroke:#483e37;stroke-width:1.89251721;stroke-linecap:round;stroke-linejoin:round;stroke-miterlimit:4;stroke-dasharray:none;stroke-dashoffset:0;stroke-opacity:1;color-rendering:auto;image-rendering:auto;shape-rendering:auto;text-rendering:auto;enable-background:accumulate"
         id="ellipse4863"
         cx="45.653881"
         cy="977.71509"
         rx="6.9397864"
         ry="5.2559662" />
      <g
         transform="matrix(1.1019736,0.19309516,-0.34508112,0.84699534,0,0)"
         style="font-style:normal;font-weight:normal;font-size:12.72777939px;line-height:125%;font-family:sans-serif;letter-spacing:0px;word-spacing:0px;fill:#000000;fill-opacity:1;stroke:none;stroke-width:1px;stroke-linecap:butt;stroke-linejoin:miter;stroke-opacity:1"
         id="text4865">
        <path
           d="m 380.07278,1069.1728 q 0,0.143 -0.11187,0.2548 -0.11186,0.1119 -0.2548,0.1119 -0.17401,0 -0.29209,-0.062 -0.31695,-0.1181 -0.73956,-0.1865 -0.41638,-0.068 -0.82656,-0.068 -0.16779,0 -0.27344,0.01 -0.0994,0 -0.22373,0.01 -0.20509,0.7085 -0.20509,1.3237 0.006,0.143 0.006,0.2797 0,0.1305 0,0.2548 0.006,0.1243 0.006,0.2797 0,0.1553 0,0.3542 0,0.062 0.16158,0.261 0.16159,0.1989 0.16159,0.2735 0,0.093 -0.0559,0.1988 -0.0559,0.1119 -0.14294,0.2113 -0.087,0.099 -0.19265,0.1616 -0.10565,0.068 -0.19887,0.068 -0.11808,0 -0.42882,-0.068 -0.20509,-0.05 -0.29831,-0.3045 -0.087,-0.2734 -0.087,-0.5345 0,-0.1305 0.0124,-0.3169 0.0124,-0.1927 0.0373,-0.4475 0.0435,-0.5034 0.0559,-0.7582 0.0248,-0.6028 0.14915,-1.1621 -0.0746,-0.013 -0.18644,-0.019 -0.11187,-0.01 -0.25481,-0.01 -1.32995,0 -2.14408,0.2175 -0.89492,0.2424 -1.61583,0.2424 -0.15537,0 -0.34803,-0.1305 -0.18644,-0.1305 -0.32316,-0.2921 0.0435,-0.1927 0.42881,-0.6153 0.19266,-0.2113 0.41018,-0.4288 0.22373,-0.2237 0.48474,-0.4599 0.26102,-0.2361 0.44747,-0.4039 0.19265,-0.174 0.31695,-0.2797 0.32316,-0.2672 0.95085,-0.7644 0.31695,-0.2486 0.56554,-0.4537 0.25481,-0.2051 0.45368,-0.3729 0.0746,-0.062 0.17401,-0.1491 0.10565,-0.093 0.23616,-0.2113 0.13051,-0.1181 0.23616,-0.2113 0.10565,-0.1 0.20509,-0.1802 0.0994,-0.087 0.18644,-0.1616 0.0932,-0.081 0.19887,-0.1554 0.11808,-0.093 0.29209,-0.2237 0.17402,-0.1305 0.40396,-0.2983 0.45368,-0.3418 0.57797,-0.3418 0.1678,0 0.32938,0.062 0.17402,0.056 0.17402,0.1927 -0.0186,0.074 -0.0621,0.2299 -0.0435,0.1492 -0.0932,0.3356 -0.0497,0.1802 -0.10565,0.3791 -0.0497,0.1927 -0.0932,0.348 -0.13051,0.5096 -0.23616,0.9384 -0.0994,0.4227 -0.18023,0.7645 -0.0808,0.3418 -0.14916,0.6898 -0.0621,0.348 -0.11808,0.7023 0.41018,0.1553 1.46668,0.1553 l 0.11187,0 0.31695,0 q 0.41017,0.01 0.5469,0.174 0.13672,0.1554 0.13672,0.5904 z m -2.91471,-3.8593 q -0.24238,0.2299 -0.51582,0.4537 -0.27345,0.2175 -0.5469,0.435 -0.26723,0.2113 -0.52204,0.4226 -0.2548,0.2113 -0.44746,0.4226 -0.3356,0.3542 -0.81413,0.7582 -0.47853,0.3977 -1.00679,0.7768 0,0.093 0.11187,0.093 0.2548,-0.087 0.77684,-0.1305 0.19266,-0.019 1.04408,-0.075 0.42881,-0.031 0.75198,-0.075 0.32316,-0.043 0.5469,-0.1056 0.0186,-0.143 0.0435,-0.2797 0.0249,-0.143 0.0559,-0.2797 0.0311,-0.1429 0.0808,-0.3356 0.0497,-0.1926 0.11808,-0.4474 0.13673,-0.5096 0.18644,-0.7458 0.13673,-0.6277 0.13673,-0.8887 z"
           style="font-style:normal;font-variant:normal;font-weight:normal;font-stretch:normal;font-family:'Segoe Script';-inkscape-font-specification:'Segoe Script'"
           id="path5417" />
      </g>
    </g>
    <g
       transform="matrix(1.0287571,0,0,1.085594,9.678433,-76.471009)"
       id="g4869">
      <ellipse
         ry="5.2559662"
         rx="6.9397864"
         cy="977.71509"
         cx="45.653881"
         id="ellipse4871"
         style="color:#000000;clip-rule:nonzero;display:inline;overflow:visible;visibility:visible;opacity:1;isolation:auto;mix-blend-mode:normal;color-interpolation:sRGB;color-interpolation-filters:linearRGB;solid-color:#000000;solid-opacity:1;fill:#c8beb7;fill-opacity:1;fill-rule:evenodd;stroke:#483e37;stroke-width:1.89251721;stroke-linecap:round;stroke-linejoin:round;stroke-miterlimit:4;stroke-dasharray:none;stroke-dashoffset:0;stroke-opacity:1;color-rendering:auto;image-rendering:auto;shape-rendering:auto;text-rendering:auto;enable-background:accumulate" />
      <g
         transform="matrix(1.1019736,0.19309516,-0.34508112,0.84699534,0,0)"
         style="font-style:normal;font-weight:normal;font-size:12.72777939px;line-height:125%;font-family:sans-serif;letter-spacing:0px;word-spacing:0px;fill:#000000;fill-opacity:1;stroke:none;stroke-width:1px;stroke-linecap:butt;stroke-linejoin:miter;stroke-opacity:1"
         id="text4873">
        <path
           d="m 381.09821,1064.6423 q 0,0.1989 -0.22994,0.4475 -0.23616,0.2548 -0.44125,0.2983 -0.47853,0.1056 -1.29888,0.1056 -0.087,0 -0.31074,-0.01 -0.21751,-0.012 -0.58418,-0.025 -0.36046,-0.012 -0.65876,-0.019 -0.2921,-0.012 -0.52204,-0.012 -0.90735,0 -1.42939,0.174 -0.11187,0.1118 -0.21752,0.2237 -0.0994,0.1119 -0.18644,0.2237 -0.087,0.1119 -0.19887,0.2673 -0.10565,0.1491 -0.23616,0.3418 -0.13051,0.1926 -0.21752,0.3107 -0.0808,0.1119 -0.11186,0.1616 0.16158,0.093 0.39774,0.1678 0.24238,0.068 0.59662,0.1305 0.18022,0.031 0.34802,0.056 0.17401,0.025 0.34181,0.05 0.17401,0.025 0.29831,0.043 0.12429,0.019 0.20509,0.037 1.10622,0.1988 1.67797,0.6525 0.56555,0.4537 0.56555,1.4978 0.006,0.2672 -0.10565,0.5469 -0.10566,0.2734 -0.2921,0.5282 -0.18644,0.2548 -0.4226,0.4723 -0.22994,0.2113 -0.4661,0.3605 -0.74577,0.4785 -1.42939,0.7022 -0.70227,0.2176 -1.53504,0.2176 -0.64012,0 -1.14973,-0.143 -0.50961,-0.1429 -0.97571,-0.4847 -0.0746,-0.05 -0.14916,-0.1 -0.0684,-0.05 -0.12429,-0.1056 -0.0559,-0.056 -0.0932,-0.1181 -0.0311,-0.068 -0.0311,-0.1491 0,-0.5967 0.75199,-0.5967 0.16158,0 0.36045,0.1554 0.10565,0.075 0.1678,0.1181 0.0622,0.043 0.0932,0.056 0.65255,0.3108 1.32374,0.3108 0.65876,0 1.36724,-0.2797 0.7147,-0.2797 1.19323,-0.7147 0.22995,-0.2051 0.31074,-0.317 0.087,-0.1242 0.087,-0.3355 0,-0.4662 -0.22994,-0.7582 -0.22995,-0.2921 -0.60283,-0.4413 -0.37289,-0.1554 -0.77684,-0.2175 -0.39775,-0.068 -0.88871,-0.1057 -0.0932,-0.012 -0.23616,-0.025 -0.14294,-0.019 -0.3356,-0.037 -0.19265,-0.025 -0.34181,-0.043 -0.14915,-0.019 -0.2548,-0.037 -0.30452,-0.043 -0.65255,-0.2672 -0.32938,-0.2238 -0.32938,-0.4351 0,-0.2113 0.22995,-0.4785 0.0435,-0.062 0.54068,-0.7831 0.49096,-0.7333 0.82034,-1.1497 0.32938,-0.4226 0.48475,-0.4474 0.14294,-0.031 0.34803,-0.05 0.2113,-0.019 0.49096,-0.031 0.31074,-0.019 0.86385,-0.037 0.55933,-0.031 1.03165,-0.037 0.28587,-0.012 0.5904,-0.019 0.30452,-0.012 0.54068,-0.043 0.0808,-0.012 0.22373,-0.043 0.14915,-0.037 0.36667,-0.099 0.44746,-0.1243 0.57175,-0.1243 0.38532,0 0.6712,0.23 0.0621,0.037 0.0994,0.062 0.0435,0.025 0.0684,0.05 0.0249,0.019 0.0311,0.05 0.006,0.025 0.006,0.068 z"
           style="font-style:normal;font-variant:normal;font-weight:normal;font-stretch:normal;font-family:'Segoe Script';-inkscape-font-specification:'Segoe Script'"
           id="path5408" />
      </g>
    </g>
    <g
       id="g4877"
       transform="matrix(1.0287571,0,0,1.085594,28.046322,-74.360024)">
      <ellipse
         style="color:#000000;clip-rule:nonzero;display:inline;overflow:visible;visibility:visible;opacity:1;isolation:auto;mix-blend-mode:normal;color-interpolation:sRGB;color-interpolation-filters:linearRGB;solid-color:#000000;solid-opacity:1;fill:#c8beb7;fill-opacity:1;fill-rule:evenodd;stroke:#483e37;stroke-width:1.89251721;stroke-linecap:round;stroke-linejoin:round;stroke-miterlimit:4;stroke-dasharray:none;stroke-dashoffset:0;stroke-opacity:1;color-rendering:auto;image-rendering:auto;shape-rendering:auto;text-rendering:auto;enable-background:accumulate"
         id="ellipse4879"
         cx="45.653881"
         cy="977.71509"
         rx="6.9397864"
         ry="5.2559662" />
      <g
         transform="matrix(1.1019736,0.19309516,-0.34508112,0.84699534,0,0)"
         style="font-style:normal;font-weight:normal;font-size:12.72777939px;line-height:125%;font-family:sans-serif;letter-spacing:0px;word-spacing:0px;fill:#000000;fill-opacity:1;stroke:none;stroke-width:1px;stroke-linecap:butt;stroke-linejoin:miter;stroke-opacity:1"
         id="text4881">
        <path
           d="m 379.77447,1069.5271 q 0,0.3107 -0.12429,0.5904 -0.1243,0.2734 -0.3356,0.5158 -0.20508,0.2362 -0.47853,0.4475 -0.26724,0.2113 -0.55311,0.3915 -0.28588,0.1802 -0.56554,0.3356 -0.27967,0.1491 -0.51583,0.2797 -0.64633,0.3542 -2.20001,0.3542 -0.45368,0 -0.926,-0.1616 -0.47232,-0.1616 -0.86385,-0.4474 -0.39153,-0.2859 -0.65876,-0.6775 -0.26102,-0.3977 -0.30452,-0.8638 0.006,-0.5034 0.0746,-0.9198 0.0684,-0.4164 0.19888,-0.7955 0.13672,-0.3791 0.34181,-0.7395 0.2113,-0.3667 0.49096,-0.7644 0.26102,-0.3605 0.50339,-0.6588 0.24238,-0.2983 0.49097,-0.5655 0.24859,-0.2673 0.51582,-0.5096 0.27345,-0.2486 0.58419,-0.5034 0.16779,-0.1368 0.34802,-0.2611 0.18023,-0.1243 0.36046,-0.2175 0.18022,-0.099 0.36045,-0.1553 0.18644,-0.056 0.35424,-0.056 0.0994,0 0.20509,0.037 0.10565,0.037 0.18644,0.1057 0.087,0.068 0.13672,0.1615 0.0559,0.093 0.0559,0.2051 0,0.4288 -0.25481,0.4786 -0.17401,0.019 -0.32316,0.062 -0.14916,0.043 -0.2921,0.1181 -0.14294,0.068 -0.29209,0.174 -0.14294,0.099 -0.31074,0.2424 -0.49718,0.4226 -0.96328,0.9322 -0.46611,0.5034 -0.87006,1.0379 -0.44746,0.5841 -0.66498,1.187 -0.21752,0.5966 -0.21752,1.1248 0,0.2548 0.0684,0.4413 0.0684,0.1802 0.18644,0.3231 0.12429,0.1368 0.29831,0.2611 0.17401,0.118 0.37909,0.2486 -0.006,-0.05 -0.0124,-0.1306 0,-0.087 0,-0.1926 0,-0.8328 0.24237,-1.2989 0.17401,-0.3356 0.36667,-0.609 0.19266,-0.2797 0.42882,-0.491 0.23616,-0.2113 0.51582,-0.3542 0.28588,-0.1492 0.64012,-0.2238 0.14915,-0.037 0.29209,-0.062 0.14915,-0.031 0.30452,-0.05 0.16158,-0.019 0.3356,-0.031 0.18022,-0.012 0.40396,-0.012 0.34181,0 0.70848,0.1305 0.36666,0.1243 0.66497,0.3542 0.29831,0.23 0.49097,0.5407 0.19265,0.3107 0.19265,0.6712 z m -0.95085,-0.019 q 0,-0.118 -0.11187,-0.2486 -0.10565,-0.1367 -0.31073,-0.2423 -0.19888,-0.1119 -0.48475,-0.1803 -0.27967,-0.074 -0.62769,-0.074 -0.59662,0 -1.03165,0.1864 -0.43503,0.1865 -0.72091,0.5283 -0.27966,0.3418 -0.42881,0.8265 -0.14916,0.4786 -0.17402,1.069 0.11808,0.037 0.21752,0.056 0.0994,0.019 0.19887,0.025 0.10565,0 0.2113,0 0.11187,-0.01 0.24238,-0.01 0.32316,0 0.6774,-0.1056 0.35424,-0.1057 0.68984,-0.2672 0.33559,-0.1616 0.62769,-0.3543 0.29209,-0.1989 0.48475,-0.3853 0.26723,-0.2548 0.40395,-0.4412 0.13673,-0.1865 0.13673,-0.3854 z"
           style="font-style:normal;font-variant:normal;font-weight:normal;font-stretch:normal;font-family:'Segoe Script';-inkscape-font-specification:'Segoe Script'"
           id="path5405" />
      </g>
    </g>
    <g
       transform="matrix(1.0287571,0,0,1.085594,46.777929,-72.057131)"
       id="g4885">
      <ellipse
         ry="5.2559662"
         rx="6.9397864"
         cy="977.71509"
         cx="45.653881"
         id="ellipse4887"
         style="color:#000000;clip-rule:nonzero;display:inline;overflow:visible;visibility:visible;opacity:1;isolation:auto;mix-blend-mode:normal;color-interpolation:sRGB;color-interpolation-filters:linearRGB;solid-color:#000000;solid-opacity:1;fill:#c8beb7;fill-opacity:1;fill-rule:evenodd;stroke:#483e37;stroke-width:1.89251721;stroke-linecap:round;stroke-linejoin:round;stroke-miterlimit:4;stroke-dasharray:none;stroke-dashoffset:0;stroke-opacity:1;color-rendering:auto;image-rendering:auto;shape-rendering:auto;text-rendering:auto;enable-background:accumulate" />
      <g
         transform="matrix(1.1019736,0.19309516,-0.34508112,0.84699534,0,0)"
         style="font-style:normal;font-weight:normal;font-size:12.72777939px;line-height:125%;font-family:sans-serif;letter-spacing:0px;word-spacing:0px;fill:#000000;fill-opacity:1;stroke:none;stroke-width:1px;stroke-linecap:butt;stroke-linejoin:miter;stroke-opacity:1"
         id="text4889">
        <path
           d="m 380.69481,1069.1515 q 0,0.043 -0.0311,0.1243 -0.0249,0.075 -0.0808,0.1678 -0.0497,0.093 -0.1243,0.1989 -0.0684,0.099 -0.15537,0.1927 -0.65876,0.7333 -1.41074,1.1559 -0.75198,0.4164 -1.56611,0.4164 -0.24859,0 -0.49097,-0.093 -0.24237,-0.093 -0.50339,-0.2859 -0.26102,-0.1989 -0.55311,-0.491 -0.2921,-0.2983 -0.64012,-0.7022 -0.15537,0.1678 -0.3356,0.3728 -0.17401,0.1989 -0.36667,0.4164 -0.18644,0.2113 -0.37909,0.4351 -0.19266,0.2175 -0.36667,0.4288 -0.16159,0.1926 -0.31696,0.2983 -0.14915,0.1056 -0.38531,0.1181 -0.12429,0.01 -0.24237,-0.05 -0.11808,-0.056 -0.21131,-0.1491 -0.0932,-0.093 -0.15536,-0.2175 -0.0559,-0.1243 -0.0559,-0.2673 0,-0.1678 0.0808,-0.2672 0.0808,-0.1056 0.20508,-0.1864 0.13051,-0.087 0.27966,-0.1803 0.15537,-0.093 0.29831,-0.2361 0.13051,-0.1367 0.31074,-0.3045 0.18644,-0.1678 0.36667,-0.3356 0.18023,-0.1678 0.33559,-0.317 0.15537,-0.1491 0.23616,-0.2424 -0.11186,-0.1367 -0.22994,-0.2921 -0.11808,-0.1615 -0.23616,-0.3293 -0.11808,-0.1678 -0.22995,-0.3356 -0.10565,-0.1678 -0.19265,-0.3294 -0.53447,-0.9757 -0.53447,-1.5226 0,-0.3916 0.18644,-0.6091 0.18644,-0.2175 0.57797,-0.2175 0.1678,0 0.26102,0.1057 0.0932,0.1056 0.13673,0.2423 0.0186,0.075 0.0311,0.1803 0.0186,0.099 0.0311,0.2113 0.0124,0.1056 0.0249,0.2113 0.0186,0.1056 0.0373,0.1802 0.0622,0.2734 0.16158,0.4972 0.10565,0.2237 0.22995,0.4288 0.13051,0.2051 0.27345,0.4102 0.14915,0.1988 0.2983,0.4412 0.26102,-0.2486 0.49097,-0.4972 0.22994,-0.2486 0.43503,-0.4847 0.10565,-0.1181 0.24237,-0.2983 0.13673,-0.1865 0.26724,-0.3916 0.13672,-0.205 0.2548,-0.4163 0.11808,-0.2113 0.18644,-0.3791 0.0746,-0.1616 0.13051,-0.2611 0.0559,-0.1056 0.11187,-0.1678 0.0621,-0.062 0.13051,-0.081 0.0684,-0.025 0.16158,-0.025 0.10565,0 0.22373,0.05 0.11808,0.05 0.2113,0.1367 0.0994,0.081 0.16159,0.1989 0.0684,0.1119 0.0684,0.2486 0,0.1802 -0.22995,0.522 -0.0932,0.1243 -0.22373,0.2859 -0.12429,0.1554 -0.26723,0.3232 -0.13673,0.1678 -0.27345,0.3294 -0.13672,0.1615 -0.24237,0.2921 -0.21752,0.2796 -0.54069,0.6276 -0.32316,0.3419 -0.65876,0.6961 0.21752,0.261 0.45368,0.4847 0.24237,0.2176 0.49096,0.3791 0.24859,0.1554 0.49097,0.2486 0.24859,0.087 0.48475,0.087 0.40395,0 0.70848,-0.087 0.31073,-0.093 0.55932,-0.2299 0.24859,-0.143 0.45989,-0.317 0.2113,-0.174 0.42882,-0.3356 0.087,-0.062 0.16158,-0.1305 0.0808,-0.075 0.14294,-0.1367 0.0621,-0.062 0.10565,-0.099 0.0497,-0.037 0.0684,-0.037 0.10565,0 0.1678,0.056 0.0684,0.05 0.0684,0.1367 z"
           style="font-style:normal;font-variant:normal;font-weight:normal;font-stretch:normal;font-family:'Segoe Script';-inkscape-font-specification:'Segoe Script'"
           id="path5396" />
      </g>
    </g>
    <g
       transform="matrix(1.0601524,0,0,1.2135961,-16.441359,-189.44375)"
       id="g4925">
      <ellipse
         ry="5.2559662"
         rx="6.9397864"
         cy="977.71509"
         cx="45.653881"
         id="ellipse4927"
         style="color:#000000;clip-rule:nonzero;display:inline;overflow:visible;visibility:visible;opacity:1;isolation:auto;mix-blend-mode:normal;color-interpolation:sRGB;color-interpolation-filters:linearRGB;solid-color:#000000;solid-opacity:1;fill:#c8beb7;fill-opacity:1;fill-rule:evenodd;stroke:#483e37;stroke-width:1.76322913;stroke-linecap:round;stroke-linejoin:round;stroke-miterlimit:4;stroke-dasharray:none;stroke-dashoffset:0;stroke-opacity:1;color-rendering:auto;image-rendering:auto;shape-rendering:auto;text-rendering:auto;enable-background:accumulate" />
      <g
         transform="matrix(1.1019736,0.19309516,-0.34508112,0.84699534,0,0)"
         style="font-style:normal;font-weight:normal;font-size:12.72777939px;line-height:125%;font-family:sans-serif;letter-spacing:0px;word-spacing:0px;fill:#000000;fill-opacity:1;stroke:none;stroke-width:1px;stroke-linecap:butt;stroke-linejoin:miter;stroke-opacity:1"
         id="text4929">
        <path
           d="m 380.15933,1070.6536 q 0,0.2424 -0.087,0.2921 -0.3356,0.174 -0.74577,0.2548 -0.41017,0.081 -0.8452,0.1429 -0.42882,0.056 -0.85764,0.1306 -0.4226,0.075 -0.79548,0.2361 0,0.062 0.0124,0.1802 0.0124,0.1181 0.0124,0.1865 0,0.3232 -0.81414,0.3232 -0.0746,-0.01 -0.13672,-0.068 -0.0559,-0.068 -0.11186,-0.1429 -0.0559,-0.075 -0.11187,-0.1306 -0.0497,-0.056 -0.11187,-0.043 -0.0932,0 -0.6774,0.1678 -0.29831,0.081 -0.47854,0.1368 -0.18022,0.05 -0.2548,0.081 -0.7582,0.2423 -1.05651,0.2423 -0.2548,0 -0.41017,-0.1429 -0.21751,-0.2175 -0.21751,-0.4226 0,-0.3045 0.45989,-0.4475 0.45367,-0.1491 1.08136,-0.261 0.39774,-0.081 0.81413,-0.1678 0.41639,-0.087 0.75198,-0.2424 0.0249,-0.3791 0.0497,-0.696 0.0249,-0.317 0.0559,-0.5842 0.0311,-0.2672 0.0684,-0.6277 0.0435,-0.3604 0.10565,-0.8141 0.11808,-0.9012 0.20508,-1.5102 0.0435,-0.3045 0.0808,-0.578 0.0373,-0.2796 0.0684,-0.5344 -0.36046,0 -1.00058,0.435 -0.21751,0.1429 -0.39152,0.2424 -0.17402,0.093 -0.29831,0.1553 -0.24238,0.1181 -0.70227,0.2486 -0.36045,0.1 -0.60904,0.1 -0.1678,0 -0.22373,-0.1057 -0.0559,-0.1056 -0.0559,-0.2859 0,-0.2983 0.18022,-0.3915 0.22995,-0.1181 0.64634,-0.2921 0.21751,-0.093 0.34802,-0.1491 0.13051,-0.056 0.17401,-0.081 0.26724,-0.1305 0.5034,-0.2548 0.24237,-0.1305 0.45989,-0.2548 0.21751,-0.1243 0.53447,-0.3108 0.31695,-0.1926 0.73333,-0.4412 0.49097,-0.2921 0.59662,-0.2921 0.19887,0 0.3356,0.2672 0.14915,0.2735 0.14915,0.4848 0,0.174 -0.18023,0.3542 -0.14915,0.6401 -0.27966,1.2927 -0.13051,0.6525 -0.24859,1.3424 -0.22373,1.3734 -0.22373,2.2 0,0.037 -0.006,0.099 0,0.062 -0.006,0.1429 0,0.075 -0.006,0.1616 0,0.081 0,0.1554 0,0.1056 0.006,0.1864 0.0124,0.081 0.0249,0.143 0.45367,-0.019 1.36102,-0.2673 0.41639,-0.1118 0.69606,-0.174 0.28587,-0.068 0.44124,-0.093 0.22373,-0.031 0.42882,-0.043 0.2113,-0.019 0.41017,-0.019 0.14915,0.2921 0.14915,0.4847 z"
           style="font-style:normal;font-variant:normal;font-weight:normal;font-stretch:normal;font-family:'Segoe Script';-inkscape-font-specification:'Segoe Script'"
           id="path5420" />
      </g>
    </g>
    <g
       id="g4933"
       transform="matrix(1.0601524,0,0,1.2135961,2.2996643,-187.08386)">
      <ellipse
         style="color:#000000;clip-rule:nonzero;display:inline;overflow:visible;visibility:visible;opacity:1;isolation:auto;mix-blend-mode:normal;color-interpolation:sRGB;color-interpolation-filters:linearRGB;solid-color:#000000;solid-opacity:1;fill:#c8beb7;fill-opacity:1;fill-rule:evenodd;stroke:#483e37;stroke-width:1.76322913;stroke-linecap:round;stroke-linejoin:round;stroke-miterlimit:4;stroke-dasharray:none;stroke-dashoffset:0;stroke-opacity:1;color-rendering:auto;image-rendering:auto;shape-rendering:auto;text-rendering:auto;enable-background:accumulate"
         id="ellipse4935"
         cx="45.653881"
         cy="977.71509"
         rx="6.9397864"
         ry="5.2559662" />
      <g
         transform="matrix(1.1019736,0.19309516,-0.34508112,0.84699534,0,0)"
         style="font-style:normal;font-weight:normal;font-size:12.72777939px;line-height:125%;font-family:sans-serif;letter-spacing:0px;word-spacing:0px;fill:#000000;fill-opacity:1;stroke:none;stroke-width:1px;stroke-linecap:butt;stroke-linejoin:miter;stroke-opacity:1"
         id="text4937">
        <path
           d="m 380.73414,1071.0809 q 0,0.1305 -0.0746,0.3045 -0.0808,0.2051 -0.4661,0.3853 -0.37289,0.1678 -0.6339,0.1678 l -0.22995,0 q -0.5904,0 -0.87628,-0.081 -0.87628,-0.2299 -2.1503,-0.2299 -0.2548,0 -0.52203,0.019 -0.26724,0.019 -0.55312,0.062 -0.58418,0.075 -0.98814,0.2299 -0.7582,0.2921 -0.95085,0.5221 -0.23616,0.2858 -0.3791,0.3915 -0.14294,0.1119 -0.4226,0.1119 -0.48475,0 -0.48475,-0.4289 0,-0.4723 0.21751,-0.7644 0.34181,-0.4723 0.82035,-0.7892 0.24237,-0.1616 0.55932,-0.3419 0.32317,-0.1864 0.73334,-0.3977 0.29831,-0.1491 0.60283,-0.3169 0.30452,-0.1741 0.55311,-0.4102 0.22373,-0.1989 0.45368,-0.4102 0.23616,-0.2175 0.47853,-0.435 0.49097,-0.4475 0.78927,-0.8452 0.31696,-0.4102 0.52204,-0.7955 0.2113,-0.3915 0.2113,-0.7831 0,-0.2858 -0.24237,-0.5966 -0.23616,-0.3107 -0.59662,-0.5282 -0.34181,-0.2113 -0.6339,-0.2113 -0.35424,0 -0.99436,0.3853 -0.31695,0.1926 -0.57175,0.3729 -0.24859,0.174 -0.43503,0.348 -0.0684,0.062 -0.14294,0.1367 -0.0684,0.068 -0.13673,0.1492 -0.0684,0.081 -0.13672,0.1367 -0.0684,0.056 -0.15537,0.087 -0.0808,0.031 -0.19266,0.05 -0.10565,0.012 -0.2548,0.012 -0.11808,0 -0.26102,-0.2734 -0.13051,-0.2672 -0.13051,-0.4226 0,-0.1554 0.087,-0.23 0.10565,-0.087 0.29209,-0.2113 0.19266,-0.1305 0.39774,-0.2734 0.30453,-0.2175 0.56554,-0.3915 0.26724,-0.1803 0.49718,-0.3232 0.23616,-0.1429 0.47232,-0.2486 0.24238,-0.1119 0.5034,-0.1926 0.39152,-0.1181 1.09379,-0.1181 0.61526,0 1.16837,0.4972 0.55311,0.4971 0.91978,1.1621 0.22373,0.4475 0.22373,0.5034 0,0.491 -0.41017,1.1684 -0.19887,0.3418 -0.44746,0.6712 -0.24238,0.3293 -0.52825,0.6525 -0.55933,0.6339 -1.01922,1.0254 -0.87006,0.7582 -1.64069,1.156 0.16158,-0.012 0.40396,-0.019 0.24237,-0.01 0.57797,-0.01 0.65876,0 1.95764,0.075 0.17401,0.012 0.36045,0.025 0.18645,0.01 0.38532,0.019 0.39774,0.019 0.62769,0.019 0.15536,0 0.41638,-0.099 0.26102,-0.099 0.38532,-0.099 0.10565,0 0.24237,0.1553 0.14294,0.1616 0.14294,0.2735 z"
           style="font-style:normal;font-variant:normal;font-weight:normal;font-stretch:normal;font-family:'Segoe Script';-inkscape-font-specification:'Segoe Script'"
           id="path5423" />
      </g>
    </g>
    <g
       transform="matrix(1.0601524,0,0,1.2135961,21.228099,-184.72397)"
       id="g4941">
      <ellipse
         ry="5.2559662"
         rx="6.9397864"
         cy="977.71509"
         cx="45.653881"
         id="ellipse4943"
         style="color:#000000;clip-rule:nonzero;display:inline;overflow:visible;visibility:visible;opacity:1;isolation:auto;mix-blend-mode:normal;color-interpolation:sRGB;color-interpolation-filters:linearRGB;solid-color:#000000;solid-opacity:1;fill:#c8beb7;fill-opacity:1;fill-rule:evenodd;stroke:#483e37;stroke-width:1.76322913;stroke-linecap:round;stroke-linejoin:round;stroke-miterlimit:4;stroke-dasharray:none;stroke-dashoffset:0;stroke-opacity:1;color-rendering:auto;image-rendering:auto;shape-rendering:auto;text-rendering:auto;enable-background:accumulate" />
      <g
         transform="matrix(1.1019736,0.19309516,-0.34508112,0.84699534,0,0)"
         style="font-style:normal;font-weight:normal;font-size:12.72777939px;line-height:125%;font-family:sans-serif;letter-spacing:0px;word-spacing:0px;fill:#000000;fill-opacity:1;stroke:none;stroke-width:1px;stroke-linecap:butt;stroke-linejoin:miter;stroke-opacity:1"
         id="text4945">
        <path
           d="m 380.24818,1069.4882 q 0,0.2362 -0.23616,0.7085 -0.11808,0.2361 -0.21751,0.4101 -0.0994,0.1741 -0.18644,0.2921 -0.19266,0.2548 -0.5469,0.5718 -0.34802,0.3107 -0.60904,0.4599 -0.35424,0.1989 -0.78306,0.3667 -0.4226,0.1615 -0.93221,0.2983 -1.01922,0.261 -1.85199,0.261 -0.1678,0 -0.3791,-0.019 -0.20509,-0.012 -0.45368,-0.043 -0.49718,-0.056 -0.85763,-0.1678 -0.11187,-0.031 -0.19887,-0.1056 -0.087,-0.075 -0.14916,-0.174 -0.0559,-0.1 -0.0932,-0.2175 -0.0311,-0.1181 -0.0311,-0.2362 0,-0.2983 0.16158,-0.4723 0.1678,-0.1803 0.45368,-0.1803 0.0249,0 0.0932,0.031 0.0684,0.031 0.21752,0.093 0.14915,0.062 0.2113,0.093 0.0621,0.025 0.12429,0.05 0.67119,0.2672 1.16837,0.2672 0.6339,0 1.70905,-0.2424 0.81413,-0.1678 1.38589,-0.6463 0.91978,-0.7706 0.91978,-1.2367 0,-0.6774 -0.70226,-0.8949 -0.70227,-0.2238 -1.59098,-0.2238 -1.21187,0 -2.026,0.4599 -0.45368,0 -0.45368,-0.2672 0,-0.1 0.0684,-0.2859 0.0621,-0.1678 0.15536,-0.261 0.0808,-0.081 0.22373,-0.2051 0.14294,-0.1243 0.35424,-0.3045 0.56555,-0.5096 1.15595,-0.9882 0.59661,-0.4847 1.23673,-0.9384 -0.0435,-0.01 -0.0994,-0.01 -0.0497,-0.01 -0.11808,-0.01 -0.33559,0 -0.7582,0.043 -0.41638,0.043 -0.85141,0.099 -0.43504,0.05 -0.85764,0.093 -0.41639,0.043 -0.75198,0.043 -0.50339,0 -0.78927,-0.2423 -0.27967,-0.2486 -0.27967,-0.7334 0,-0.1926 0.1243,-0.3356 0.13051,-0.1491 0.31695,-0.1491 0.13672,0 0.3356,0.1429 0.0994,0.068 0.18644,0.1243 0.087,0.05 0.15537,0.081 0.15537,0.068 0.45989,0.068 0.44124,0 1.61583,-0.1119 0.26723,-0.031 0.59661,-0.056 0.3356,-0.031 0.73956,-0.062 0.40395,-0.031 0.68362,-0.043 0.28588,-0.019 0.44746,-0.019 0.76441,0 0.76441,0.4972 0,0.3418 -0.24237,0.5468 -0.17402,0.1368 -0.41639,0.3046 -0.24238,0.1616 -0.56554,0.3542 -0.32317,0.1927 -0.57797,0.3543 -0.25481,0.1553 -0.44746,0.292 -0.19266,0.1368 -0.36667,0.3046 -0.17402,0.1678 -0.3356,0.3666 0.34181,-0.025 0.59662,-0.037 0.26102,-0.012 0.43503,-0.012 0.62147,0 1.06893,0.1243 0.53447,0.1616 0.83278,0.3853 0.28587,0.2113 0.62769,0.6961 0.1305,0.1678 0.1305,0.6401 z"
           style="font-style:normal;font-variant:normal;font-weight:normal;font-stretch:normal;font-family:'Segoe Script';-inkscape-font-specification:'Segoe Script'"
           id="path5426" />
      </g>
    </g>
    <g
       id="g4949"
       transform="matrix(1.0601524,0,0,1.2135961,40.531352,-182.14955)">
      <ellipse
         style="color:#000000;clip-rule:nonzero;display:inline;overflow:visible;visibility:visible;opacity:1;isolation:auto;mix-blend-mode:normal;color-interpolation:sRGB;color-interpolation-filters:linearRGB;solid-color:#000000;solid-opacity:1;fill:#c8beb7;fill-opacity:1;fill-rule:evenodd;stroke:#483e37;stroke-width:1.76322913;stroke-linecap:round;stroke-linejoin:round;stroke-miterlimit:4;stroke-dasharray:none;stroke-dashoffset:0;stroke-opacity:1;color-rendering:auto;image-rendering:auto;shape-rendering:auto;text-rendering:auto;enable-background:accumulate"
         id="ellipse4951"
         cx="45.653881"
         cy="977.71509"
         rx="6.9397864"
         ry="5.2559662" />
      <g
         transform="matrix(1.1019736,0.19309516,-0.34508112,0.84699534,0,0)"
         style="font-style:normal;font-weight:normal;font-size:12.72777939px;line-height:125%;font-family:sans-serif;letter-spacing:0px;word-spacing:0px;fill:#000000;fill-opacity:1;stroke:none;stroke-width:1px;stroke-linecap:butt;stroke-linejoin:miter;stroke-opacity:1"
         id="text4953">
        <path
           d="m 378.97277,1068.9305 q 0,0.093 -0.0373,0.1988 -0.0311,0.1057 -0.0994,0.1678 -0.0684,0.05 -0.36046,0.05 -0.12429,0 -0.38531,-0.081 -0.26102,-0.081 -0.41639,-0.081 -0.0497,0 -0.13051,0.01 -0.0746,0.01 -0.16158,0.012 -0.087,0.01 -0.1678,0.012 -0.0746,0.01 -0.12429,0.01 -0.19887,0 -0.61526,-0.037 -0.4226,-0.037 -0.62148,-0.037 -0.28587,0 -0.86384,0.037 -0.57797,0.037 -0.87628,0.037 -0.29831,0 -0.48475,-0.062 -0.18023,-0.068 -0.18023,-0.2983 0,-0.1367 0.10565,-0.2486 0.10565,-0.1118 0.25481,-0.1429 0.65876,-0.1305 0.98814,-0.1305 0.087,0 0.2548,0.037 0.087,0.012 0.13673,0.025 0.0559,0.01 0.0808,0.01 l 0.45367,0 q 0.56555,0 0.98815,-0.019 0.42881,-0.019 0.73334,-0.062 0.26723,-0.037 0.54689,-0.037 0.11808,0 0.41639,0.118 0.30452,0.1243 0.42882,0.1865 0.0559,0.037 0.0932,0.1429 0.0435,0.1057 0.0435,0.1927 z"
           style="font-style:normal;font-variant:normal;font-weight:normal;font-stretch:normal;font-family:'Segoe Script';-inkscape-font-specification:'Segoe Script'"
           id="path5429" />
      </g>
    </g>
    <g
       id="g4957"
       transform="matrix(1.1020573,0,0,1.3198476,-25.667649,-277.73687)">
      <ellipse
         style="color:#000000;clip-rule:nonzero;display:inline;overflow:visible;visibility:visible;opacity:1;isolation:auto;mix-blend-mode:normal;color-interpolation:sRGB;color-interpolation-filters:linearRGB;solid-color:#000000;solid-opacity:1;fill:#c8beb7;fill-opacity:1;fill-rule:evenodd;stroke:#483e37;stroke-width:1.65831113;stroke-linecap:round;stroke-linejoin:round;stroke-miterlimit:4;stroke-dasharray:none;stroke-dashoffset:0;stroke-opacity:1;color-rendering:auto;image-rendering:auto;shape-rendering:auto;text-rendering:auto;enable-background:accumulate"
         id="ellipse4959"
         cx="45.653881"
         cy="977.71509"
         rx="6.9397864"
         ry="5.2559662" />
      <g
         transform="matrix(1.1019736,0.19309516,-0.34508112,0.84699534,0,0)"
         style="font-style:normal;font-weight:normal;font-size:12.72777939px;line-height:125%;font-family:sans-serif;letter-spacing:0px;word-spacing:0px;fill:#000000;fill-opacity:1;stroke:none;stroke-width:1px;stroke-linecap:butt;stroke-linejoin:miter;stroke-opacity:1"
         id="text4961">
        <path
           d="m 377.53271,1070.6678 q 0,0.1492 -0.21752,0.6215 -0.21751,0.4661 -0.34181,0.6028 -0.32316,0.3418 -0.81413,0.5966 -0.0311,0.012 -0.0932,0.031 -0.0622,0.019 -0.16158,0.037 -0.0994,0.019 -0.1678,0.037 -0.0621,0.019 -0.0994,0.031 -0.48475,0.2175 -0.80171,0.2175 -0.18022,0 -0.18022,-0.2921 0,-0.1119 0.0435,-0.1554 0.93843,-0.2175 1.41075,-0.7085 0.10565,-0.118 0.2548,-0.4226 0.14915,-0.3045 0.14915,-0.4288 0,-0.2361 -0.0746,-0.6774 -0.006,-0.075 -0.0994,-0.2175 -0.0808,-0.1243 -0.0808,-0.2299 0,-0.1 0.087,-0.2735 0.0808,-0.1678 0.16779,-0.1678 0.14294,0 0.44125,0.1057 0.29831,0.1056 0.32317,0.1988 0.2548,0.6712 0.2548,1.0938 z"
           style="font-style:normal;font-variant:normal;font-weight:normal;font-stretch:normal;font-family:'Segoe Script';-inkscape-font-specification:'Segoe Script'"
           id="path5441" />
      </g>
    </g>
    <g
       transform="matrix(1.1020573,0,0,1.3198476,-6.1858454,-275.17037)"
       id="g4965">
      <ellipse
         ry="5.2559662"
         rx="6.9397864"
         cy="977.71509"
         cx="45.653881"
         id="ellipse4967"
         style="color:#000000;clip-rule:nonzero;display:inline;overflow:visible;visibility:visible;opacity:1;isolation:auto;mix-blend-mode:normal;color-interpolation:sRGB;color-interpolation-filters:linearRGB;solid-color:#000000;solid-opacity:1;fill:#c8beb7;fill-opacity:1;fill-rule:evenodd;stroke:#483e37;stroke-width:1.65831113;stroke-linecap:round;stroke-linejoin:round;stroke-miterlimit:4;stroke-dasharray:none;stroke-dashoffset:0;stroke-opacity:1;color-rendering:auto;image-rendering:auto;shape-rendering:auto;text-rendering:auto;enable-background:accumulate" />
      <g
         transform="matrix(1.1019736,0.19309516,-0.34508112,0.84699534,0,0)"
         style="font-style:normal;font-weight:normal;font-size:12.72777939px;line-height:125%;font-family:sans-serif;letter-spacing:0px;word-spacing:0px;fill:#000000;fill-opacity:1;stroke:none;stroke-width:1px;stroke-linecap:butt;stroke-linejoin:miter;stroke-opacity:1"
         id="text4969">
        <path
           d="m 380.32758,1067.6067 q 0,0.8079 -0.53446,1.6345 -0.53447,0.8266 -1.3921,1.5164 -0.84521,0.6898 -1.79606,1.1497 -0.94464,0.4537 -1.72148,0.5718 -0.96329,0.1305 -1.42318,0.1305 -0.98814,0 -1.53504,-0.6774 -0.54068,-0.6774 -0.54068,-1.6904 0,-0.7831 0.31074,-1.6966 0.31695,-0.9136 0.86384,-1.7215 0.55312,-0.8142 1.1808,-1.3051 0.73956,-0.5904 1.57855,-1.0006 0.83899,-0.4102 1.59097,-0.4102 0.60904,0 1.26159,0.2921 0.65876,0.2921 1.1808,0.7458 0.30452,0.2734 0.39153,0.3729 0.58418,0.7333 0.58418,2.0881 z m -1.05029,0.1989 q 0,-0.3542 -0.11808,-0.8266 -0.11186,-0.4847 -0.29209,-0.6836 -0.11808,-0.1429 -0.2548,-0.2859 -0.13051,-0.1491 -0.27967,-0.3045 -0.2983,-0.3045 -0.49717,-0.3915 -0.14294,0.1802 -0.44747,0.1802 -0.0435,0 -0.23616,-0.1367 -0.19265,-0.1429 -0.36045,-0.1429 -0.36046,0 -0.72712,0.081 -0.38532,0.075 -0.59662,0.2238 -0.34181,0.2237 -0.77684,0.609 -0.89492,0.7893 -1.49775,1.7774 -0.60283,0.982 -0.60283,2.0136 0,0.4164 0.0994,0.7955 0.0994,0.3915 0.34803,0.5407 0.52825,0.3231 1.19323,0.3231 0.65255,0 1.65933,-0.4723 0.64012,-0.3231 1.27402,-0.7644 0.2113,-0.1554 0.43504,-0.3356 0.22994,-0.1864 0.4661,-0.4039 0.48475,-0.4351 0.8452,-0.9198 0.36667,-0.4972 0.36667,-0.8763 z"
           style="font-style:normal;font-variant:normal;font-weight:normal;font-stretch:normal;font-family:'Segoe Script';-inkscape-font-specification:'Segoe Script'"
           id="path5438" />
      </g>
    </g>
    <g
       id="g4973"
       transform="matrix(1.1020573,0,0,1.3198476,13.490777,-272.60387)">
      <ellipse
         style="color:#000000;clip-rule:nonzero;display:inline;overflow:visible;visibility:visible;opacity:1;isolation:auto;mix-blend-mode:normal;color-interpolation:sRGB;color-interpolation-filters:linearRGB;solid-color:#000000;solid-opacity:1;fill:#c8beb7;fill-opacity:1;fill-rule:evenodd;stroke:#483e37;stroke-width:1.65831113;stroke-linecap:round;stroke-linejoin:round;stroke-miterlimit:4;stroke-dasharray:none;stroke-dashoffset:0;stroke-opacity:1;color-rendering:auto;image-rendering:auto;shape-rendering:auto;text-rendering:auto;enable-background:accumulate"
         id="ellipse4975"
         cx="45.653881"
         cy="977.71509"
         rx="6.9397864"
         ry="5.2559662" />
      <g
         transform="matrix(1.1019736,0.19309516,-0.34508112,0.84699534,0,0)"
         style="font-style:normal;font-weight:normal;font-size:12.72777939px;line-height:125%;font-family:sans-serif;letter-spacing:0px;word-spacing:0px;fill:#000000;fill-opacity:1;stroke:none;stroke-width:1px;stroke-linecap:butt;stroke-linejoin:miter;stroke-opacity:1"
         id="text4977">
        <path
           d="m 378.67328,1066.7675 q 0,0.1 -0.0435,0.23 -0.0435,0.1305 -0.10565,0.1989 -0.0746,0.093 -0.32938,0.1056 -0.14294,0 -0.3791,-0.1056 -0.27345,-0.093 -0.39153,-0.093 -0.0435,0 -0.12429,0.013 -0.0746,0.012 -0.16159,0.025 -0.0808,0.01 -0.15537,0.019 -0.0746,0.012 -0.11808,0.012 -0.19887,0 -0.55932,-0.037 -0.37289,-0.037 -0.61526,-0.037 -0.60904,0.019 -1.21187,0.093 -0.59662,0.068 -1.19945,0.087 -0.2548,0.01 -0.40396,-0.068 -0.14293,-0.075 -0.14915,-0.3542 -0.0124,-0.1803 0.0746,-0.3232 0.087,-0.143 0.24237,-0.1865 0.60905,-0.1802 1.23673,-0.1988 0.0994,-0.01 0.21131,0.01 0.11808,0.01 0.26101,0.025 0.26724,0.019 0.42261,0.019 0.14915,-0.01 0.26102,-0.01 0.11808,-0.01 0.21751,-0.01 0.10565,0 0.20509,0 0.0994,-0.01 0.2113,-0.01 0.33559,-0.012 0.61526,-0.037 0.27966,-0.031 0.50961,-0.081 0.0248,-0.01 0.16158,-0.01 0.13672,-0.01 0.28588,0 0.14915,0.01 0.30452,0.019 0.087,0.012 0.22994,0.081 0.14294,0.068 0.32317,0.2051 0.0684,0.05 0.11808,0.1802 0.0497,0.1305 0.0559,0.2299 z m 0.0932,3.2939 q 0,0.068 -0.0249,0.1553 -0.0186,0.081 -0.0684,0.1803 -0.10565,0.174 -0.20508,0.1802 -0.1678,0 -0.58419,-0.075 -0.2113,-0.031 -0.38531,-0.043 -0.1678,-0.019 -0.29209,-0.019 -0.42261,0.019 -1.19323,0.019 -0.3791,0 -0.7582,0 -0.3791,0 -0.7582,0.01 -0.3791,0.01 -0.67741,0.012 -0.2983,0 -0.51582,0.013 -0.0932,0 -0.27966,-0.261 -0.1678,-0.2486 -0.18023,-0.3916 0,-0.1926 0.38531,-0.2734 0.19888,-0.05 0.36046,-0.075 0.16158,-0.025 0.29831,-0.031 0.14294,-0.01 0.37288,0.01 0.22995,0.01 0.5469,0.019 0.31695,0.01 0.50961,0.012 0.19265,0 0.26101,0 0.0808,0 0.19266,-0.01 0.11187,-0.012 0.26102,-0.037 0.14294,-0.025 0.27345,-0.037 0.13672,-0.012 0.24237,-0.012 0.65255,-0.025 1.42939,0.1056 0.78306,0.143 0.78927,0.5532 z"
           style="font-style:normal;font-variant:normal;font-weight:normal;font-stretch:normal;font-family:'Segoe Script';-inkscape-font-specification:'Segoe Script'"
           id="path5435" />
      </g>
    </g>
    <g
       transform="matrix(1.1057164,0.10601046,-0.2749269,0.87803244,0,0)"
       style="font-style:normal;font-weight:normal;font-size:11.42056084px;line-height:125%;font-family:sans-serif;text-align:end;letter-spacing:0px;word-spacing:0px;text-anchor:end;fill:#000000;fill-opacity:1;stroke:none;stroke-width:1px;stroke-linecap:butt;stroke-linejoin:miter;stroke-opacity:1"
       id="text4841-4">
      <path
         d="m 312.1463,1046.0998 q 0,0.2175 -0.0781,0.2621 -0.30113,0.1561 -0.66918,0.2286 -0.36804,0.072 -0.75839,0.1283 -0.38478,0.05 -0.76955,0.1171 -0.3792,0.067 -0.71379,0.2119 0,0.056 0.0112,0.1617 0.0111,0.1059 0.0111,0.1673 0,0.29 -0.73052,0.29 -0.0669,-0.01 -0.12268,-0.061 -0.0502,-0.061 -0.10037,-0.1282 -0.0502,-0.067 -0.10038,-0.1171 -0.0446,-0.05 -0.10037,-0.039 -0.0836,0 -0.60784,0.1506 -0.26767,0.072 -0.42938,0.1227 -0.16172,0.045 -0.22864,0.072 -0.68032,0.2174 -0.94799,0.2174 -0.22864,0 -0.36805,-0.1282 -0.19517,-0.1952 -0.19517,-0.3792 0,-0.2733 0.41265,-0.4015 0.40708,-0.1339 0.9703,-0.2342 0.3569,-0.072 0.73052,-0.1506 0.37362,-0.078 0.67475,-0.2175 0.0223,-0.3401 0.0446,-0.6245 0.0223,-0.2844 0.0502,-0.5242 0.0279,-0.2398 0.0613,-0.5632 0.039,-0.3235 0.0948,-0.7306 0.10595,-0.8085 0.18402,-1.355 0.039,-0.2733 0.0725,-0.5186 0.0335,-0.251 0.0614,-0.4796 -0.32344,0 -0.89781,0.3903 -0.19518,0.1283 -0.35132,0.2175 -0.15614,0.084 -0.26767,0.1394 -0.21748,0.106 -0.63014,0.2231 -0.32343,0.089 -0.54649,0.089 -0.15056,0 -0.20075,-0.095 -0.0502,-0.095 -0.0502,-0.2565 0,-0.2677 0.16172,-0.3513 0.20633,-0.106 0.57995,-0.2621 0.19517,-0.084 0.31228,-0.1339 0.11711,-0.05 0.15614,-0.072 0.23979,-0.1172 0.45169,-0.2287 0.21748,-0.1171 0.41266,-0.2286 0.19518,-0.1115 0.47957,-0.2788 0.2844,-0.1729 0.65802,-0.396 0.44054,-0.2621 0.53534,-0.2621 0.17845,0 0.30113,0.2398 0.13384,0.2454 0.13384,0.435 0,0.1561 -0.16172,0.3178 -0.13384,0.5744 -0.25094,1.1599 -0.11711,0.5856 -0.22306,1.2046 -0.20075,1.2324 -0.20075,1.974 0,0.034 -0.006,0.089 0,0.056 -0.006,0.1283 0,0.067 -0.006,0.145 0,0.072 0,0.1394 0,0.095 0.006,0.1673 0.0111,0.072 0.0223,0.1283 0.40708,-0.017 1.22124,-0.2398 0.37363,-0.1004 0.62457,-0.1562 0.25651,-0.061 0.39592,-0.084 0.20076,-0.028 0.38478,-0.039 0.1896,-0.017 0.36804,-0.017 0.13384,0.2621 0.13384,0.435 z"
         style="font-style:normal;font-variant:normal;font-weight:normal;font-stretch:normal;font-family:'Segoe Script';-inkscape-font-specification:'Segoe Script';text-align:end;text-anchor:end"
         id="path5383" />
      <path
         d="m 318.83246,1044.9343 q -0.11711,0.1506 -0.51304,0.1506 -0.0502,0 -0.20075,-0.011 -0.14499,-0.017 -0.31228,-0.028 -0.16729,-0.017 -0.31786,-0.028 -0.14498,-0.017 -0.19517,-0.017 -0.1896,0 -0.30113,0 -0.11153,0 -0.20633,0.01 -0.0892,0 -0.19517,0.01 -0.10596,0 -0.2844,0 -0.12269,0.2453 -0.12269,0.7584 0,0.1059 0,0.1951 0.006,0.089 0.006,0.2231 0,0.1896 -0.0223,0.3792 -0.0223,0.184 -0.0223,0.3792 0,0.1952 -0.0613,0.2732 -0.0613,0.078 -0.24536,0.078 -0.23979,0 -0.31786,-0.089 -0.0725,-0.095 -0.0725,-0.3346 0,-0.095 0.0223,-0.3067 0.0279,-0.2175 0.0725,-0.5688 0.0223,-0.1784 0.0446,-0.4238 0.0223,-0.2454 0.0446,-0.5632 -0.0892,-0.01 -0.23979,-0.011 -0.14499,-0.011 -0.32343,-0.011 -0.17287,-0.01 -0.36805,-0.01 -0.1896,-0.01 -0.36805,-0.01 -0.11152,0 -0.32901,0.056 -0.21748,0.05 -0.28439,0.05 -0.15057,0 -0.27325,-0.1116 -0.11711,-0.1171 -0.11711,-0.2676 0,-0.045 0.0167,-0.106 0.0223,-0.067 0.0558,-0.1227 0.039,-0.056 0.0836,-0.095 0.0502,-0.039 0.10596,-0.039 0.0502,0 0.15056,0.011 0.10595,0.011 0.21748,0.028 0.11153,0.017 0.21191,0.028 0.10037,0.011 0.15056,0.011 0.0223,0 0.0948,0 0.0725,-0.01 0.17287,-0.01 0.10038,-0.01 0.20633,-0.011 0.11153,-0.01 0.20633,-0.011 0.1896,-0.011 0.35131,-0.017 0.1673,-0.011 0.31229,-0.011 0.0669,-0.2063 0.0669,-0.435 0,-0.078 -0.0111,-0.2453 -0.006,-0.1729 -0.0167,-0.3625 -0.0111,-0.1896 -0.0223,-0.3569 -0.006,-0.1673 -0.006,-0.2453 0,-0.1116 -0.006,-0.1785 0,-0.072 -0.006,-0.1561 0,-0.1896 0.11152,-0.3792 0.11711,-0.1896 0.28998,-0.1896 0.0502,0 0.10038,0.061 0.0558,0.056 0.10037,0.1338 0.0502,0.078 0.0781,0.1562 0.0279,0.078 0.0279,0.1171 0,0.29 -0.0502,0.7751 -0.0502,0.4852 -0.0502,0.6636 0,0.2844 0.0335,0.5688 0.19517,0.045 0.46842,0.045 0.27882,-0.01 0.60225,-0.017 0.21191,-0.01 0.36805,-0.01 0.16172,-0.01 0.26767,-0.01 0.61341,0 0.74167,0.1785 0.0781,0.1227 0.0781,0.4461 z"
         style="font-style:normal;font-variant:normal;font-weight:normal;font-stretch:normal;font-family:'Segoe Script';-inkscape-font-specification:'Segoe Script';text-align:end;text-anchor:end"
         id="path5385" />
      <path
         d="m 327.00195,1046.0998 q 0,0.2175 -0.0781,0.2621 -0.30113,0.1561 -0.66917,0.2286 -0.36805,0.072 -0.7584,0.1283 -0.38478,0.05 -0.76955,0.1171 -0.3792,0.067 -0.71379,0.2119 0,0.056 0.0112,0.1617 0.0111,0.1059 0.0111,0.1673 0,0.29 -0.73051,0.29 -0.0669,-0.01 -0.12269,-0.061 -0.0502,-0.061 -0.10037,-0.1282 -0.0502,-0.067 -0.10038,-0.1171 -0.0446,-0.05 -0.10037,-0.039 -0.0837,0 -0.60784,0.1506 -0.26767,0.072 -0.42938,0.1227 -0.16172,0.045 -0.22864,0.072 -0.68032,0.2174 -0.94799,0.2174 -0.22864,0 -0.36805,-0.1282 -0.19517,-0.1952 -0.19517,-0.3792 0,-0.2733 0.41265,-0.4015 0.40708,-0.1339 0.9703,-0.2342 0.3569,-0.072 0.73052,-0.1506 0.37362,-0.078 0.67475,-0.2175 0.0223,-0.3401 0.0446,-0.6245 0.0223,-0.2844 0.0502,-0.5242 0.0279,-0.2398 0.0613,-0.5632 0.039,-0.3235 0.0948,-0.7306 0.10595,-0.8085 0.18402,-1.355 0.039,-0.2733 0.0725,-0.5186 0.0335,-0.251 0.0613,-0.4796 -0.32344,0 -0.89781,0.3903 -0.19518,0.1283 -0.35132,0.2175 -0.15614,0.084 -0.26767,0.1394 -0.21748,0.106 -0.63014,0.2231 -0.32343,0.089 -0.54649,0.089 -0.15056,0 -0.20075,-0.095 -0.0502,-0.095 -0.0502,-0.2565 0,-0.2677 0.16172,-0.3513 0.20633,-0.106 0.57995,-0.2621 0.19518,-0.084 0.31228,-0.1339 0.11711,-0.05 0.15614,-0.072 0.23979,-0.1172 0.45169,-0.2287 0.21749,-0.1171 0.41266,-0.2286 0.19518,-0.1115 0.47958,-0.2788 0.28439,-0.1729 0.65802,-0.396 0.44053,-0.2621 0.53533,-0.2621 0.17845,0 0.30113,0.2398 0.13384,0.2454 0.13384,0.435 0,0.1561 -0.16172,0.3178 -0.13383,0.5744 -0.25094,1.1599 -0.11711,0.5856 -0.22306,1.2046 -0.20075,1.2324 -0.20075,1.974 0,0.034 -0.006,0.089 0,0.056 -0.006,0.1283 0,0.067 -0.006,0.145 0,0.072 0,0.1394 0,0.095 0.006,0.1673 0.0111,0.072 0.0223,0.1283 0.40708,-0.017 1.22124,-0.2398 0.37363,-0.1004 0.62457,-0.1562 0.25651,-0.061 0.39592,-0.084 0.20076,-0.028 0.38478,-0.039 0.1896,-0.017 0.36804,-0.017 0.13384,0.2621 0.13384,0.435 z"
         style="font-style:normal;font-variant:normal;font-weight:normal;font-stretch:normal;font-family:'Segoe Script';-inkscape-font-specification:'Segoe Script';text-align:end;text-anchor:end"
         id="path5387" />
      <path
         d="m 333.82194,1042.5643 q 0,0.089 -0.039,0.2063 -0.039,0.1171 -0.0948,0.1785 -0.0669,0.084 -0.29555,0.095 -0.12826,0 -0.34017,-0.095 -0.24536,-0.084 -0.35131,-0.084 -0.039,0 -0.11153,0.011 -0.0669,0.011 -0.14499,0.022 -0.0725,0.01 -0.13941,0.017 -0.0669,0.011 -0.10595,0.011 -0.17845,0 -0.50188,-0.034 -0.33459,-0.033 -0.55207,-0.033 -0.54649,0.017 -1.08741,0.084 -0.53534,0.061 -1.07625,0.078 -0.22864,0.01 -0.36247,-0.061 -0.12826,-0.067 -0.13384,-0.3178 -0.0111,-0.1617 0.0669,-0.29 0.0781,-0.1283 0.21748,-0.1673 0.54649,-0.1617 1.10971,-0.1784 0.0892,-0.01 0.1896,0.01 0.10596,0.01 0.23421,0.022 0.23979,0.017 0.3792,0.017 0.13384,-0.01 0.23421,-0.01 0.10596,-0.01 0.19518,-0.01 0.0948,0 0.18402,0 0.0892,-0.01 0.1896,-0.01 0.30113,-0.011 0.55207,-0.033 0.25094,-0.028 0.45727,-0.072 0.0223,-0.01 0.14499,-0.01 0.12268,-0.01 0.25651,0 0.13384,0.01 0.27325,0.017 0.0781,0.011 0.20633,0.072 0.12825,0.061 0.28997,0.1841 0.0613,0.045 0.10595,0.1617 0.0446,0.1171 0.0502,0.2063 z m 0.0837,2.9555 q 0,0.061 -0.0223,0.1394 -0.0167,0.072 -0.0613,0.1618 -0.0948,0.1561 -0.18402,0.1617 -0.15056,0 -0.52419,-0.067 -0.1896,-0.028 -0.34574,-0.039 -0.15056,-0.017 -0.26209,-0.017 -0.3792,0.017 -1.07068,0.017 -0.34016,0 -0.68032,0 -0.34017,0 -0.68033,0.01 -0.34016,0.01 -0.60783,0.011 -0.26767,0 -0.46285,0.011 -0.0836,0 -0.25094,-0.2342 -0.15056,-0.2231 -0.16171,-0.3513 0,-0.1729 0.34574,-0.2454 0.17844,-0.045 0.32343,-0.067 0.14499,-0.022 0.26767,-0.028 0.12826,-0.01 0.33459,0.01 0.20632,0.01 0.49072,0.017 0.2844,0.01 0.45727,0.011 0.17287,0 0.23421,0 0.0725,0 0.17287,-0.01 0.10038,-0.011 0.23421,-0.034 0.12826,-0.022 0.24537,-0.033 0.12268,-0.011 0.21748,-0.011 0.58552,-0.022 1.28258,0.095 0.70263,0.1283 0.70821,0.4963 z"
         style="font-style:normal;font-variant:normal;font-weight:normal;font-stretch:normal;font-family:'Segoe Script';-inkscape-font-specification:'Segoe Script';text-align:end;text-anchor:end"
         id="path5389" />
      <path
         d="m 342.50447,1046.0998 q 0,0.2175 -0.0781,0.2621 -0.30113,0.1561 -0.66918,0.2286 -0.36804,0.072 -0.75839,0.1283 -0.38478,0.05 -0.76955,0.1171 -0.3792,0.067 -0.71379,0.2119 0,0.056 0.0112,0.1617 0.0111,0.1059 0.0111,0.1673 0,0.29 -0.73052,0.29 -0.0669,-0.01 -0.12268,-0.061 -0.0502,-0.061 -0.10037,-0.1282 -0.0502,-0.067 -0.10038,-0.1171 -0.0446,-0.05 -0.10038,-0.039 -0.0836,0 -0.60783,0.1506 -0.26767,0.072 -0.42938,0.1227 -0.16172,0.045 -0.22864,0.072 -0.68032,0.2174 -0.94799,0.2174 -0.22864,0 -0.36805,-0.1282 -0.19518,-0.1952 -0.19518,-0.3792 0,-0.2733 0.41266,-0.4015 0.40708,-0.1339 0.9703,-0.2342 0.3569,-0.072 0.73052,-0.1506 0.37362,-0.078 0.67475,-0.2175 0.0223,-0.3401 0.0446,-0.6245 0.0223,-0.2844 0.0502,-0.5242 0.0279,-0.2398 0.0613,-0.5632 0.039,-0.3235 0.0948,-0.7306 0.10595,-0.8085 0.18402,-1.355 0.039,-0.2733 0.0725,-0.5186 0.0335,-0.251 0.0613,-0.4796 -0.32343,0 -0.8978,0.3903 -0.19518,0.1283 -0.35132,0.2175 -0.15614,0.084 -0.26767,0.1394 -0.21748,0.106 -0.63014,0.2231 -0.32343,0.089 -0.54649,0.089 -0.15056,0 -0.20075,-0.095 -0.0502,-0.095 -0.0502,-0.2565 0,-0.2677 0.16172,-0.3513 0.20633,-0.106 0.57995,-0.2621 0.19517,-0.084 0.31228,-0.1339 0.11711,-0.05 0.15614,-0.072 0.23979,-0.1172 0.45169,-0.2287 0.21748,-0.1171 0.41266,-0.2286 0.19517,-0.1115 0.47957,-0.2788 0.2844,-0.1729 0.65802,-0.396 0.44054,-0.2621 0.53534,-0.2621 0.17845,0 0.30113,0.2398 0.13384,0.2454 0.13384,0.435 0,0.1561 -0.16172,0.3178 -0.13384,0.5744 -0.25094,1.1599 -0.11711,0.5856 -0.22306,1.2046 -0.20075,1.2324 -0.20075,1.974 0,0.034 -0.006,0.089 0,0.056 -0.006,0.1283 0,0.067 -0.006,0.145 0,0.072 0,0.1394 0,0.095 0.006,0.1673 0.0112,0.072 0.0223,0.1283 0.40708,-0.017 1.22124,-0.2398 0.37363,-0.1004 0.62457,-0.1562 0.25651,-0.061 0.39592,-0.084 0.20076,-0.028 0.38478,-0.039 0.1896,-0.017 0.36804,-0.017 0.13384,0.2621 0.13384,0.435 z"
         style="font-style:normal;font-variant:normal;font-weight:normal;font-stretch:normal;font-family:'Segoe Script';-inkscape-font-specification:'Segoe Script';text-align:end;text-anchor:end"
         id="path5391" />
      <path
         d="m 351.29852,1043.4064 q 0,0.7249 -0.47957,1.4666 -0.47958,0.7416 -1.24913,1.3606 -0.75839,0.619 -1.61159,1.0317 -0.84762,0.407 -1.54467,0.513 -0.86435,0.1171 -1.27701,0.1171 -0.88666,0 -1.37738,-0.6078 -0.48515,-0.6079 -0.48515,-1.5168 0,-0.7027 0.27882,-1.5224 0.2844,-0.8197 0.77512,-1.5447 0.49631,-0.7305 1.05953,-1.171 0.6636,-0.5298 1.41642,-0.8978 0.75282,-0.3681 1.42757,-0.3681 0.54649,0 1.13201,0.2621 0.59111,0.2621 1.05953,0.6692 0.27325,0.2453 0.35132,0.3346 0.52418,0.658 0.52418,1.8737 z m -0.94242,0.1784 q 0,-0.3179 -0.10595,-0.7417 -0.10038,-0.4349 -0.26209,-0.6134 -0.10596,-0.1282 -0.22864,-0.2565 -0.1171,-0.1338 -0.25094,-0.2732 -0.26767,-0.2733 -0.44611,-0.3514 -0.12826,0.1618 -0.40151,0.1618 -0.039,0 -0.2119,-0.1227 -0.17287,-0.1283 -0.32344,-0.1283 -0.32343,0 -0.65244,0.072 -0.34574,0.067 -0.53534,0.2008 -0.3067,0.2007 -0.69705,0.5465 -0.80301,0.7082 -1.34393,1.5948 -0.54091,0.8811 -0.54091,1.8068 0,0.3736 0.0892,0.7138 0.0892,0.3513 0.31228,0.4851 0.474,0.29 1.07068,0.29 0.58553,0 1.48891,-0.4238 0.57437,-0.29 1.14317,-0.6859 0.1896,-0.1394 0.39035,-0.3011 0.20633,-0.1673 0.41824,-0.3625 0.43496,-0.3904 0.75839,-0.8253 0.32901,-0.4461 0.32901,-0.7863 z"
         style="font-style:normal;font-variant:normal;font-weight:normal;font-stretch:normal;font-family:'Segoe Script';-inkscape-font-specification:'Segoe Script';text-align:end;text-anchor:end"
         id="path5393" />
    </g>
    <ellipse
       style="color:#000000;clip-rule:nonzero;display:inline;overflow:visible;visibility:visible;opacity:1;isolation:auto;mix-blend-mode:normal;color-interpolation:sRGB;color-interpolation-filters:linearRGB;solid-color:#000000;solid-opacity:1;fill:#000000;fill-opacity:1;fill-rule:evenodd;stroke:#000000;stroke-width:2;stroke-linecap:round;stroke-linejoin:round;stroke-miterlimit:4;stroke-dasharray:none;stroke-dashoffset:0;stroke-opacity:1;color-rendering:auto;image-rendering:auto;shape-rendering:auto;text-rendering:auto;enable-background:accumulate"
       id="ellipse5478"
       cx="113.99548"
       cy="1037.4194"
       rx="7.6480422"
       ry="6.9370742" />
    <ellipse
       style="color:#000000;clip-rule:nonzero;display:inline;overflow:visible;visibility:visible;opacity:1;isolation:auto;mix-blend-mode:normal;color-interpolation:sRGB;color-interpolation-filters:linearRGB;solid-color:#000000;solid-opacity:1;fill:#c8beb7;fill-opacity:1;fill-rule:evenodd;stroke:#483e37;stroke-width:2;stroke-linecap:round;stroke-linejoin:round;stroke-miterlimit:4;stroke-dasharray:none;stroke-dashoffset:0;stroke-opacity:1;color-rendering:auto;image-rendering:auto;shape-rendering:auto;text-rendering:auto;enable-background:accumulate"
       id="ellipse4983"
       cx="113.74548"
       cy="1034.4194"
       rx="7.6480422"
       ry="6.9370742" />
    <g
       id="text4985"
       style="font-style:normal;font-weight:normal;font-size:12.72777939px;line-height:125%;font-family:sans-serif;letter-spacing:0px;word-spacing:0px;fill:#000000;fill-opacity:1;stroke:none;stroke-width:1px;stroke-linecap:butt;stroke-linejoin:miter;stroke-opacity:1"
       transform="matrix(1.2144381,0.25485618,-0.38029917,1.1179048,63.432295,-256.01547)">
      <path
         inkscape:connector-curvature="0"
         id="path5432"
         style="font-style:normal;font-variant:normal;font-weight:normal;font-stretch:normal;font-family:'Segoe Script';-inkscape-font-specification:'Segoe Script'"
         d="m 379.13125,1069.0467 q -0.13051,0.1678 -0.57176,0.1678 -0.0559,0 -0.22373,-0.012 -0.16158,-0.019 -0.34803,-0.031 -0.18644,-0.019 -0.35424,-0.031 -0.16158,-0.019 -0.21751,-0.019 -0.2113,0 -0.3356,0 -0.12429,0 -0.22994,0.01 -0.0994,0 -0.21752,0.01 -0.11808,0 -0.31695,0 -0.13672,0.2734 -0.13672,0.8452 0,0.118 0,0.2175 0.006,0.099 0.006,0.2486 0,0.2113 -0.0249,0.4226 -0.0249,0.2051 -0.0249,0.4226 0,0.2175 -0.0684,0.3045 -0.0684,0.087 -0.27345,0.087 -0.26723,0 -0.35424,-0.099 -0.0808,-0.1057 -0.0808,-0.3729 0,-0.1057 0.0249,-0.3418 0.0311,-0.2424 0.0808,-0.6339 0.0249,-0.1989 0.0497,-0.4724 0.0249,-0.2734 0.0497,-0.6276 -0.0994,-0.01 -0.26724,-0.013 -0.16158,-0.012 -0.36045,-0.012 -0.19266,-0.01 -0.41017,-0.01 -0.2113,-0.01 -0.41018,-0.01 -0.12429,0 -0.36667,0.062 -0.24237,0.056 -0.31695,0.056 -0.16779,0 -0.30452,-0.1242 -0.13051,-0.1306 -0.13051,-0.2984 0,-0.05 0.0186,-0.118 0.0249,-0.075 0.0621,-0.1368 0.0435,-0.062 0.0932,-0.1056 0.0559,-0.043 0.11808,-0.043 0.0559,0 0.1678,0.012 0.11808,0.012 0.24238,0.031 0.12429,0.019 0.23616,0.031 0.11186,0.012 0.16779,0.012 0.0249,0 0.10566,0 0.0808,-0.01 0.19265,-0.01 0.11187,-0.01 0.22995,-0.013 0.12429,-0.01 0.22994,-0.012 0.2113,-0.012 0.39153,-0.019 0.18644,-0.013 0.34803,-0.013 0.0746,-0.2299 0.0746,-0.4847 0,-0.087 -0.0124,-0.2735 -0.006,-0.1926 -0.0186,-0.4039 -0.0124,-0.2113 -0.0249,-0.3978 -0.006,-0.1864 -0.006,-0.2734 0,-0.1243 -0.006,-0.1989 0,-0.081 -0.006,-0.174 0,-0.2113 0.12429,-0.4226 0.13051,-0.2113 0.32317,-0.2113 0.0559,0 0.11186,0.068 0.0622,0.062 0.11187,0.1491 0.0559,0.087 0.087,0.174 0.0311,0.087 0.0311,0.1306 0,0.3231 -0.0559,0.8638 -0.0559,0.5407 -0.0559,0.7396 0,0.3169 0.0373,0.6339 0.21752,0.05 0.52204,0.05 0.31074,-0.01 0.67119,-0.019 0.23616,-0.01 0.41017,-0.01 0.18023,-0.01 0.29831,-0.01 0.68362,0 0.82656,0.1989 0.087,0.1367 0.087,0.4971 z" />
    </g>
  </g>
</svg>
