<?xml version="1.0" encoding="UTF-8" standalone="no"?>
<!-- Created with Inkscape (http://www.inkscape.org/) -->

<svg
   xmlns:dc="http://purl.org/dc/elements/1.1/"
   xmlns:cc="http://creativecommons.org/ns#"
   xmlns:rdf="http://www.w3.org/1999/02/22-rdf-syntax-ns#"
   xmlns:svg="http://www.w3.org/2000/svg"
   xmlns="http://www.w3.org/2000/svg"
   xmlns:sodipodi="http://sodipodi.sourceforge.net/DTD/sodipodi-0.dtd"
   xmlns:inkscape="http://www.inkscape.org/namespaces/inkscape"
   width="480"
   height="240"
   viewBox="0 0 480.00001 240.00001"
   id="svg2"
   version="1.1"
   inkscape:version="0.91 r13725"
   sodipodi:docname="title.svg">
  <defs
     id="defs4" />
  <sodipodi:namedview
     id="base"
     pagecolor="#ffffff"
     bordercolor="#666666"
     borderopacity="1.0"
     inkscape:pageopacity="0.0"
     inkscape:pageshadow="2"
     inkscape:zoom="2"
     inkscape:cx="236.40467"
     inkscape:cy="95.701232"
     inkscape:document-units="px"
     inkscape:current-layer="layer1"
     showgrid="false"
     units="px"
     inkscape:window-width="2560"
     inkscape:window-height="1017"
     inkscape:window-x="-8"
     inkscape:window-y="-8"
     inkscape:window-maximized="1"
     inkscape:snap-bbox="true"
     inkscape:object-nodes="true"
     inkscape:object-paths="true"
     inkscape:snap-global="true" />
  <metadata
     id="metadata7">
    <rdf:RDF>
      <cc:Work
         rdf:about="">
        <dc:format>image/svg+xml</dc:format>
        <dc:type
           rdf:resource="http://purl.org/dc/dcmitype/StillImage" />
        <dc:title></dc:title>
      </cc:Work>
    </rdf:RDF>
  </metadata>
  <g
     inkscape:label="Layer 1"
     inkscape:groupmode="layer"
     id="layer1"
     transform="translate(0,-812.36216)">
    <g
       style="font-style:normal;font-weight:normal;font-size:50.16645432px;line-height:125%;font-family:sans-serif;letter-spacing:0px;word-spacing:0px;fill:#000000;fill-opacity:1;stroke:none;stroke-width:1px;stroke-linecap:butt;stroke-linejoin:miter;stroke-opacity:1"
       id="text4165">
      <path
         d="m 189.8582,1029.6185 q -2.80932,0 -5.26748,-0.8529 -2.45816,-0.9029 -4.31431,-2.5584 -1.806,-1.6555 -2.85949,-4.0635 -1.0535,-2.408 -1.0535,-5.4682 0,-3.01 1.0535,-5.3678 1.05349,-2.408 2.80932,-4.0635 1.80599,-1.7056 4.06348,-2.5585 2.30766,-0.9029 4.81598,-0.9029 2.75916,0 4.86615,0.9029 2.10699,0.8529 3.56182,2.408 1.45482,1.505 2.20732,3.6622 0.7525,2.1571 0.7525,4.7156 0,0.8529 -0.10034,1.6555 -0.0502,0.7525 -0.1505,1.2542 l -18.11009,0 q 0.50167,3.4615 2.75916,5.117 2.25749,1.6555 5.71898,1.6555 1.95649,0 3.61198,-0.5519 1.65549,-0.5518 3.31099,-1.505 l 1.95649,3.612 q -1.95649,1.3044 -4.46482,2.107 -2.45815,0.8027 -5.16714,0.8027 z m -0.602,-21.3709 q -2.55849,0 -4.51498,1.505 -1.90633,1.505 -2.45816,4.5149 l 13.09345,0 q -0.301,-3.0099 -1.90633,-4.5149 -1.55516,-1.505 -4.21398,-1.505 z"
         style="font-style:normal;font-variant:normal;font-weight:600;font-stretch:normal;font-family:'Source Code Pro';-inkscape-font-specification:'Source Code Pro Semi-Bold'"
         id="path4777" />
      <path
         d="m 215.27299,1029.0165 -9.83262,-24.6317 5.81931,0 4.76581,12.7924 q 0.70233,1.8562 1.25416,3.7123 0.602,1.806 1.204,3.7123 l 0.20066,0 q 0.602,-1.9063 1.15383,-3.7123 0.602,-1.8561 1.30433,-3.7123 l 4.76581,-12.7924 5.51831,0 -9.58179,24.6317 -6.57181,0 z"
         style="font-style:normal;font-variant:normal;font-weight:600;font-stretch:normal;font-family:'Source Code Pro';-inkscape-font-specification:'Source Code Pro Semi-Bold'"
         id="path4779" />
      <path
         d="m 245.25294,1029.6185 q -1.80599,0 -3.31099,-0.5519 -1.50499,-0.5016 -2.60865,-1.4548 -1.10367,-0.9531 -1.70566,-2.2575 -0.602,-1.3545 -0.602,-2.9598 0,-2.0568 0.95316,-3.612 0.95316,-1.6053 3.00999,-2.709 2.05682,-1.1036 5.26748,-1.806 3.21065,-0.7023 7.7758,-1.0033 -0.1505,-2.107 -1.505,-3.4615 -1.35449,-1.3545 -4.36448,-1.3545 -2.10699,0 -4.16381,0.8027 -2.00666,0.7525 -3.91299,1.806 l -2.10699,-3.8628 q 2.25749,-1.3044 5.16715,-2.3579 2.90965,-1.0534 6.07014,-1.0534 5.16714,0 7.87613,2.7591 2.70899,2.709 2.70899,7.8761 l 0,14.5985 -4.71565,0 -0.45149,-3.0602 -0.1505,0 q -1.9565,1.505 -4.36449,2.6087 -2.35782,1.0535 -4.86614,1.0535 z m 1.75582,-4.515 q 1.85616,0 3.56182,-0.8027 1.75583,-0.8528 3.46149,-2.2073 l 0,-5.2173 q -3.31099,0.2508 -5.51831,0.7023 -2.20733,0.4014 -3.51165,1.0535 -1.30433,0.6522 -1.85616,1.505 -0.55183,0.8027 -0.55183,1.806 0,1.6555 1.25416,2.408 1.30433,0.7525 3.16048,0.7525 z"
         style="font-style:normal;font-variant:normal;font-weight:600;font-stretch:normal;font-family:'Source Code Pro';-inkscape-font-specification:'Source Code Pro Semi-Bold'"
         id="path4781" />
      <path
         d="m 283.66085,1029.6185 q -4.31432,0 -6.57181,-2.5083 -2.20732,-2.5084 -2.20732,-7.0735 l 0,-21.87259 -7.7758,0 0,-4.56515 13.54494,0 0,26.73874 q 0,2.5083 1.25416,3.5618 1.30433,1.0033 3.16049,1.0033 1.95649,0 4.21398,-0.9531 l 1.35449,4.2641 q -1.80599,0.7023 -3.31098,1.0535 -1.505,0.3512 -3.66215,0.3512 z"
         style="font-style:normal;font-variant:normal;font-weight:600;font-stretch:normal;font-family:'Source Code Pro';-inkscape-font-specification:'Source Code Pro Semi-Bold'"
         id="path4783" />
      <path
         d="m 314.29295,1037.8959 q -5.06681,-4.2139 -8.02663,-9.9329 -2.90965,-5.719 -2.90965,-12.8928 0,-7.1738 2.90965,-12.8928 2.95982,-5.71895 8.02663,-9.93293 l 3.21066,2.65882 q -4.76582,4.31432 -6.97314,9.18051 -2.20732,4.8661 -2.20732,10.9864 0,6.1203 2.20732,10.9865 2.20732,4.8661 6.97314,9.1804 l -3.21066,2.6588 z"
         style="font-style:normal;font-variant:normal;font-weight:600;font-stretch:normal;font-family:'Source Code Pro';-inkscape-font-specification:'Source Code Pro Semi-Bold'"
         id="path4785" />
      <path
         d="m 338.75459,1024.8527 q 3.16048,0 5.01664,-3.1605 1.85616,-3.1605 1.85616,-9.2307 0,-5.6688 -1.85616,-8.7289 -1.85616,-3.1103 -5.01664,-3.1103 -3.16049,0 -5.01665,3.1103 -1.85616,3.0601 -1.85616,8.7289 0,6.0702 1.85616,9.2307 1.85616,3.1605 5.01665,3.1605 z m 9.23062,12.6921 q -4.61531,0 -7.57513,-2.3077 -2.95982,-2.3076 -4.41465,-5.9196 -4.56515,-1.0034 -7.3243,-5.3177 -2.75916,-4.3143 -2.75916,-11.5383 0,-4.0634 0.903,-7.1738 0.95316,-3.1604 2.65882,-5.2674 1.70566,-2.15719 4.06349,-3.26085 2.35782,-1.15383 5.21731,-1.15383 2.85949,0 5.21731,1.15383 2.35782,1.10366 4.06348,3.26085 1.70566,2.107 2.60866,5.2674 0.95316,3.1104 0.95316,7.1738 0,7.0234 -2.55849,11.2875 -2.55849,4.2642 -6.92297,5.418 0.85283,1.9565 2.60866,2.8093 1.80599,0.8528 3.96315,0.8528 0.75249,0 1.40466,-0.2006 0.65216,-0.1505 1.10366,-0.4014 l 1.05349,4.4648 q -0.80266,0.4014 -1.90632,0.602 -1.0535,0.2509 -2.35783,0.2509 z"
         style="fill:#2c5aa0"
         id="path4787" />
      <path
         d="m 365.52388,1029.6185 q -4.31432,0 -6.27081,-2.5585 -1.95649,-2.6087 -1.95649,-7.4246 l 0,-15.2506 5.76914,0 0,14.4981 q 0,3.0099 1.00333,4.4146 1.0535,1.3545 3.61199,1.3545 1.75582,0 3.11032,-0.8027 1.40466,-0.8026 3.06015,-2.8595 l 0,-16.605 5.76914,0 0,24.6317 -4.71565,0 -0.45149,-3.913 -0.20067,0 q -1.75583,2.0568 -3.86282,3.311 -2.10699,1.204 -4.86614,1.204 z"
         style="fill:#2c5aa0"
         id="path4789" />
      <path
         d="m 398.76464,1029.0165 0,-20.0666 -10.68545,0 0,-4.5651 16.45459,0 0,24.6317 -5.76914,0 z m 2.45816,-29.14673 q -1.75583,0 -2.95982,-1.0535 -1.15383,-1.05349 -1.15383,-2.80932 0,-1.75582 1.15383,-2.80932 1.20399,-1.10366 2.95982,-1.10366 1.75582,0 2.90965,1.10366 1.204,1.0535 1.204,2.80932 0,1.75583 -1.204,2.80932 -1.15383,1.0535 -2.90965,1.0535 z"
         style="fill:#2c5aa0"
         id="path4791" />
      <path
         d="m 417.5073,1029.0165 0,-3.1103 14.7991,-16.9563 -13.14361,0 0,-4.5651 21.27058,0 0,3.0601 -14.84927,16.9563 15.2506,0 0,4.6153 -23.3274,0 z"
         style="fill:#2c5aa0"
         id="path4793" />
      <path
         d="m 453.45703,1037.8959 -3.21065,-2.6588 q 4.76582,-4.3143 6.97314,-9.1804 2.20732,-4.8662 2.20732,-10.9865 0,-6.1203 -2.20732,-10.9864 -2.20732,-4.86619 -6.97314,-9.18051 l 3.21065,-2.65882 q 5.06682,4.21398 7.97647,9.93293 2.95982,5.719 2.95982,12.8928 0,7.1738 -2.95982,12.8928 -2.90965,5.719 -7.97647,9.9329 z"
         style="font-style:normal;font-variant:normal;font-weight:600;font-stretch:normal;font-family:'Source Code Pro';-inkscape-font-specification:'Source Code Pro Semi-Bold'"
         id="path4795" />
    </g>
    <g
       id="g4756"
       transform="translate(-101.15684,-5.1212883)">
      <path
         sodipodi:nodetypes="ccssccc"
         inkscape:connector-curvature="0"
         id="path4475"
         d="m 157.73979,1033.3316 c -1.23153,-15.0664 -3.88274,-30.4482 -1.11258,-44.6253 0,0 45.56892,4.64544 45.96195,-11.11167 0.45961,-18.42629 -40.53736,-16.82168 -53.1223,-16.7288 -9.09743,0.0671 -19.60869,5.61712 -19.60869,5.61712 4.44337,25.34845 -0.38839,45.23975 -1.01157,67.63265 7.29735,3.9227 16.551,4.374 28.89319,-0.784 z"
         style="fill:#ffb380;fill-rule:evenodd;stroke:none;stroke-width:1px;stroke-linecap:round;stroke-linejoin:round;stroke-opacity:1" />
      <path
         sodipodi:nodetypes="ccc"
         inkscape:connector-curvature="0"
         id="path4477"
         d="m 143.57466,991.86006 c -0.62058,11.98174 6.63436,7.15005 7.79401,2.924 -3.06099,2.04822 -5.17496,1.5254 -7.79401,-2.924 z"
         style="fill:#ffffff;fill-rule:evenodd;stroke:#000000;stroke-width:1px;stroke-linecap:round;stroke-linejoin:round;stroke-opacity:1" />
      <ellipse
         ry="3.0745561"
         rx="1.8146533"
         cy="954.35181"
         cx="142.99207"
         id="path4479"
         style="color:#000000;clip-rule:nonzero;display:inline;overflow:visible;visibility:visible;opacity:1;isolation:auto;mix-blend-mode:normal;color-interpolation:sRGB;color-interpolation-filters:linearRGB;solid-color:#000000;solid-opacity:1;fill:#000000;fill-opacity:1;fill-rule:evenodd;stroke:none;stroke-width:4;stroke-linecap:round;stroke-linejoin:round;stroke-miterlimit:4;stroke-dasharray:none;stroke-dashoffset:0;stroke-opacity:1;color-rendering:auto;image-rendering:auto;shape-rendering:auto;text-rendering:auto;enable-background:accumulate" />
      <ellipse
         style="color:#000000;clip-rule:nonzero;display:inline;overflow:visible;visibility:visible;opacity:1;isolation:auto;mix-blend-mode:normal;color-interpolation:sRGB;color-interpolation-filters:linearRGB;solid-color:#000000;solid-opacity:1;fill:#000000;fill-opacity:1;fill-rule:evenodd;stroke:none;stroke-width:4;stroke-linecap:round;stroke-linejoin:round;stroke-miterlimit:4;stroke-dasharray:none;stroke-dashoffset:0;stroke-opacity:1;color-rendering:auto;image-rendering:auto;shape-rendering:auto;text-rendering:auto;enable-background:accumulate"
         id="ellipse4481"
         cx="148.48477"
         cy="954.35181"
         rx="1.8146533"
         ry="3.0745561" />
      <path
         sodipodi:nodetypes="cc"
         inkscape:connector-curvature="0"
         id="path4483"
         d="m 142.39677,948.5845 c -1.81539,-0.27962 -2.66724,0.98241 -3.30357,2.58929"
         style="fill:none;fill-rule:evenodd;stroke:#000000;stroke-width:1.5;stroke-linecap:round;stroke-linejoin:round;stroke-miterlimit:4;stroke-dasharray:none;stroke-opacity:1" />
      <path
         style="fill:none;fill-rule:evenodd;stroke:#000000;stroke-width:1.5;stroke-linecap:round;stroke-linejoin:round;stroke-miterlimit:4;stroke-dasharray:none;stroke-opacity:1"
         d="m 148.97229,948.40593 c 1.81539,-0.27962 2.66725,0.98241 3.30358,2.58929"
         id="path4485"
         inkscape:connector-curvature="0"
         sodipodi:nodetypes="cc" />
      <path
         sodipodi:nodetypes="cssssssccccccsccsscccccc"
         inkscape:connector-curvature="0"
         id="path4493"
         d="m 151.10157,960.8489 c 11.95196,0.48902 18.18619,0.69023 29.81056,2.55817 5.81218,0.93397 11.03207,2.31713 14.81696,4.63951 3.7849,2.32238 5.967,5.28698 5.86133,9.52344 -0.0431,1.72825 -0.67607,3.11258 -1.82226,4.3457 -1.1462,1.23312 -2.83165,2.28515 -4.90625,3.13867 -4.14921,1.70704 -9.80689,2.60769 -15.47071,3.00781 -11.32765,0.80025 -22.66212,-0.35156 -22.66212,-0.35156 l -0.9082,-0.0918 -0.17578,0.89649 c -2.81929,14.42857 -0.20302,30.24767 1.02352,45.25297 1.13776,-0.4404 2.24632,-0.9685 3.36516,-1.4657 -3.71617,-14.9984 -5.18402,-29.8615 -2.1624,-43.51746 1.41931,0.13644 10.90171,2.03126 21.66045,1.2712 5.77753,-0.40815 11.58434,-1.29871 16.08984,-3.15234 3.88461,-1.71608 8.47406,-5.11267 8.68109,-9.19587 0.12413,-4.97668 -3.17391,-9.14338 -7.52679,-11.36663 -6.22855,-3.18125 -9.81227,-3.19694 -15.75645,-4.20525 -6.38869,-1.08371 -16.62818,-2.16224 -29.91795,-1.28735 z m -22.04939,6.07489 c 5.4112,25.13921 0.66806,43.96451 -1.54485,66.48461 0.91765,0.5359 1.85045,0.996 2.78882,1.4282 0.61965,-22.2658 5.91912,-43.68267 1.43907,-69.24036 z"
         style="color:#000000;font-style:normal;font-variant:normal;font-weight:normal;font-stretch:normal;font-size:medium;line-height:normal;font-family:sans-serif;text-indent:0;text-align:start;text-decoration:none;text-decoration-line:none;text-decoration-style:solid;text-decoration-color:#000000;letter-spacing:normal;word-spacing:normal;text-transform:none;direction:ltr;block-progression:tb;writing-mode:lr-tb;baseline-shift:baseline;text-anchor:start;white-space:normal;clip-rule:nonzero;display:inline;overflow:visible;visibility:visible;opacity:1;isolation:auto;mix-blend-mode:normal;color-interpolation:sRGB;color-interpolation-filters:linearRGB;solid-color:#000000;solid-opacity:1;fill:#000000;fill-opacity:1;fill-rule:evenodd;stroke:none;stroke-width:2;stroke-linecap:round;stroke-linejoin:round;stroke-miterlimit:4;stroke-dasharray:none;stroke-dashoffset:0;stroke-opacity:1;color-rendering:auto;image-rendering:auto;shape-rendering:auto;text-rendering:auto;enable-background:accumulate" />
      <path
         sodipodi:nodetypes="cc"
         inkscape:connector-curvature="0"
         id="path4499"
         d="m 136.7744,960.61377 c -2.07289,-8.65784 -8.08506,-10.00186 -5.71429,3.39286"
         style="fill:none;fill-rule:evenodd;stroke:#000000;stroke-width:1.5;stroke-linecap:round;stroke-linejoin:round;stroke-miterlimit:4;stroke-dasharray:none;stroke-opacity:1" />
      <path
         sodipodi:nodetypes="cc"
         inkscape:connector-curvature="0"
         id="path4503"
         d="m 131.14677,964.12021 c -4.75146,-7.49713 -5.67434,-4.01972 -4.55357,9.01786"
         style="fill:none;fill-rule:evenodd;stroke:#000000;stroke-width:1.5;stroke-linecap:round;stroke-linejoin:round;stroke-miterlimit:4;stroke-dasharray:none;stroke-opacity:1" />
    </g>
    <g
       transform="matrix(0.98801636,-0.15434916,0.15434916,0.98801636,0,0)"
       style="font-style:normal;font-weight:normal;font-size:61.32767105px;line-height:125%;font-family:sans-serif;letter-spacing:0px;word-spacing:0px;fill:#000000;fill-opacity:1;stroke:none;stroke-width:1px;stroke-linecap:butt;stroke-linejoin:miter;stroke-opacity:1"
       id="text4769">
      <path
         d="m -96.612274,903.0514 q -0.628849,0 -1.107971,-0.50906 -0.479123,-0.53902 -0.808519,-1.31759 -0.299452,-0.77858 -0.479123,-1.70687 -0.149725,-0.95825 -0.149725,-1.76677 0,-1.34753 0.419232,-2.15605 0.419232,-0.83846 1.646983,-1.55715 0.239561,-0.11978 0.898355,-0.50907 0.658793,-0.41923 1.527202,-0.95824 0.898355,-0.53901 1.91649,-1.16786 1.04808,-0.62885 1.97638,-1.22775 0.958245,-0.59891 1.736819,-1.07803 0.808519,-0.50907 1.227751,-0.77857 0.808519,-0.53901 1.91649,-1.34753 1.107971,-0.83847 2.096161,-1.82666 1.018135,-0.98819 1.706873,-2.09616 0.718684,-1.10797 0.718684,-2.24588 0,-0.56896 -0.209616,-1.07803 -0.179671,-0.53901 -0.509068,-0.95824 -0.299451,-0.41924 -0.718683,-0.6588 -0.389287,-0.2695 -0.778574,-0.2695 -2.066216,0 -4.192322,0.44917 -2.09616,0.41923 -4.192321,1.19781 -2.066215,0.77857 -4.102486,1.8566 -2.006325,1.04808 -3.922815,2.30577 l 0,-0.0299 q -0.149723,0.14973 -0.509063,0.41923 -0.35935,0.23956 -0.80852,0.47912 -0.44918,0.23957 -0.9283,0.44918 -0.44918,0.17967 -0.80852,0.17967 -0.3294,0 -0.80852,-0.11978 -0.44918,-0.14972 -0.89836,-0.41923 -0.41923,-0.26951 -0.74862,-0.68874 -0.29946,-0.41923 -0.29946,-0.98819 0,-0.56896 0.47913,-1.1978 0.50906,-0.62885 1.28764,-1.2577 0.77857,-0.65879 1.73682,-1.28764 0.95824,-0.62885 1.88654,-1.13792 0.958246,-0.53901 1.766765,-0.9283 0.838464,-0.41923 1.317587,-0.62885 3.443692,-1.34753 6.707714,-2.21594 3.264021,-0.89835 6.647824,-0.89835 1.407422,0 2.844789,0.68874 1.437367,0.65879 2.605228,1.79671 1.167861,1.10797 1.886545,2.57528 0.748629,1.46731 0.748629,3.0544 0,1.28765 -0.598903,2.54534 -0.598903,1.22775 -1.587093,2.39561 -0.958245,1.16786 -2.185997,2.24589 -1.227751,1.07803 -2.515392,2.06622 -1.287642,0.95824 -2.515393,1.7967 -1.227751,0.80852 -2.185996,1.46732 -0.9283,0.62885 -1.97638,1.28764 -1.048081,0.62885 -1.97638,1.22775 -0.898355,0.56896 -1.587093,1.13792 -0.688739,0.53901 -0.86841,0.98819 -0.149725,0.5989 -0.209616,1.10797 -0.02995,0.47912 -0.05989,0.89835 -0.02994,0.38929 -0.02994,0.80852 0.02994,0.41923 -0.179671,0.77857 -0.179671,0.35935 -0.688739,0.59891 -0.509067,0.20961 -1.557147,0.20961 z m 2.515392,8.89371 q 0,1.01814 -0.449177,1.94644 -0.419232,0.9283 -1.137916,1.61704 -0.718683,0.68873 -1.676928,1.10797 -0.9283,0.41923 -1.946435,0.41923 -0.778572,0 -1.467312,-0.29945 -0.68874,-0.26951 -1.19781,-0.77858 -0.50906,-0.50906 -0.80852,-1.1978 -0.2695,-0.68874 -0.2695,-1.46731 0,-1.01814 0.44918,-1.94644 0.47912,-0.95824 1.22775,-1.67693 0.74863,-0.71868 1.70687,-1.13791 0.958245,-0.44918 1.946435,-0.44918 0.778574,0 1.437367,0.29945 0.658794,0.29945 1.137916,0.80852 0.509068,0.50907 0.778574,1.22775 0.269506,0.71868 0.269506,1.5272 z"
         style="font-style:normal;font-variant:normal;font-weight:normal;font-stretch:normal;font-family:'MV Boli';-inkscape-font-specification:'MV Boli'"
         id="path4774" />
    </g>
  </g>
</svg>
