<?xml version="1.0" encoding="UTF-8" standalone="no"?>
<!-- Created with Inkscape (http://www.inkscape.org/) -->

<svg
   xmlns:dc="http://purl.org/dc/elements/1.1/"
   xmlns:cc="http://creativecommons.org/ns#"
   xmlns:rdf="http://www.w3.org/1999/02/22-rdf-syntax-ns#"
   xmlns:svg="http://www.w3.org/2000/svg"
   xmlns="http://www.w3.org/2000/svg"
   xmlns:sodipodi="http://sodipodi.sourceforge.net/DTD/sodipodi-0.dtd"
   xmlns:inkscape="http://www.inkscape.org/namespaces/inkscape"
   width="176"
   height="256"
   viewBox="0 0 176 256"
   id="svg4860"
   version="1.1"
   inkscape:version="0.91 r13725"
   sodipodi:docname="tree.svg">
  <defs
     id="defs4862" />
  <sodipodi:namedview
     id="base"
     pagecolor="#ffffff"
     bordercolor="#666666"
     borderopacity="1.0"
     inkscape:pageopacity="0.0"
     inkscape:pageshadow="2"
     inkscape:zoom="1.979899"
     inkscape:cx="49.912535"
     inkscape:cy="83.692406"
     inkscape:document-units="px"
     inkscape:current-layer="layer1"
     showgrid="true"
     units="px"
     inkscape:snap-bbox="true"
     inkscape:bbox-nodes="true"
     inkscape:object-nodes="true"
     inkscape:window-width="2560"
     inkscape:window-height="1017"
     inkscape:window-x="-8"
     inkscape:window-y="-8"
     inkscape:window-maximized="1">
    <inkscape:grid
       type="xygrid"
       id="grid5414" />
  </sodipodi:namedview>
  <metadata
     id="metadata4865">
    <rdf:RDF>
      <cc:Work
         rdf:about="">
        <dc:format>image/svg+xml</dc:format>
        <dc:type
           rdf:resource="http://purl.org/dc/dcmitype/StillImage" />
        <dc:title></dc:title>
      </cc:Work>
    </rdf:RDF>
  </metadata>
  <g
     inkscape:label="Layer 1"
     inkscape:groupmode="layer"
     id="layer1"
     transform="translate(0,-796.36214)">
    <path
       style="color:#000000;clip-rule:nonzero;display:inline;overflow:visible;visibility:visible;opacity:1;isolation:auto;mix-blend-mode:normal;color-interpolation:sRGB;color-interpolation-filters:linearRGB;solid-color:#000000;solid-opacity:1;fill:#a05a2c;fill-opacity:1;fill-rule:evenodd;stroke:#502d16;stroke-width:1px;stroke-linecap:round;stroke-linejoin:round;stroke-miterlimit:4;stroke-dasharray:none;stroke-dashoffset:0;stroke-opacity:1;color-rendering:auto;image-rendering:auto;shape-rendering:auto;text-rendering:auto;enable-background:accumulate"
       d="m 51.365857,915.55912 24.292683,40.23616 0,30.8491 -12.146341,-10.731 -4.048781,4.0237 16.195122,14.3066 0,33.97672 -24.292683,8.0472 24.292683,-2.0118 -8.097561,12.0709 20.243902,-8.0472 16.195119,14.0826 -6.07317,-16.0945 22.26829,-4.0236 -20.2439,-4.0236 0,-40.23612 16.19512,-16.0945 0,-8.0472 -16.19512,16.0945 0,-64.37796 -24.29268,0 0,16.09448 -8.097561,-16.09448 -16.195122,0 z"
       id="path4191"
       inkscape:connector-curvature="0" />
    <ellipse
       style="color:#000000;clip-rule:nonzero;display:inline;overflow:visible;visibility:visible;opacity:1;isolation:auto;mix-blend-mode:normal;color-interpolation:sRGB;color-interpolation-filters:linearRGB;solid-color:#000000;solid-opacity:1;fill:#677821;fill-opacity:1;fill-rule:evenodd;stroke:#445016;stroke-width:2;stroke-linecap:round;stroke-linejoin:round;stroke-miterlimit:4;stroke-dasharray:none;stroke-dashoffset:0;stroke-opacity:1;color-rendering:auto;image-rendering:auto;shape-rendering:auto;text-rendering:auto;enable-background:accumulate"
       id="path4207"
       cx="55.414635"
       cy="969.87787"
       rx="16.195122"
       ry="16.094481" />
    <path
       style="color:#000000;clip-rule:nonzero;display:inline;overflow:visible;visibility:visible;opacity:1;isolation:auto;mix-blend-mode:normal;color-interpolation:sRGB;color-interpolation-filters:linearRGB;solid-color:#000000;solid-opacity:1;fill:#677821;fill-opacity:1;fill-rule:evenodd;stroke:#445016;stroke-width:2;stroke-linecap:round;stroke-linejoin:round;stroke-miterlimit:4;stroke-dasharray:none;stroke-dashoffset:0;stroke-opacity:1;color-rendering:auto;image-rendering:auto;shape-rendering:auto;text-rendering:auto;enable-background:accumulate"
       d="m 60.064419,799.01414 a 22.268292,18.10632 0 0 0 -21.038637,12.24376 30.365853,28.165321 0 0 0 -3.254045,-0.1729 30.365853,28.165321 0 0 0 -30.365853,28.16534 30.365853,28.165321 0 0 0 8.793445,19.80376 22.268292,18.10632 0 0 0 -8.793445,14.39701 22.268292,18.10632 0 0 0 9.702839,14.94713 35.426828,30.177172 0 0 0 -3.629669,13.21822 35.426828,30.177172 0 0 0 35.426829,30.17715 35.426828,30.177172 0 0 0 27.329268,-10.99817 35.426828,30.177172 0 0 0 14.214215,2.91164 35.426828,30.177172 0 0 0 31.334564,16.13372 35.426828,30.177172 0 0 0 35.35565,-28.93938 35.426828,30.177172 0 0 0 16.2663,-25.37944 35.426828,30.177172 0 0 0 -2.69655,-11.48539 22.268292,18.10632 0 0 0 2.69655,-8.63272 22.268292,18.10632 0 0 0 -8.76181,-14.36559 35.426828,30.177172 0 0 0 0.66425,-5.75251 35.426828,30.177172 0 0 0 -16.4719,-25.4541 22.268292,18.10632 0 0 0 0.27677,-2.71124 22.268292,18.10632 0 0 0 -22.26829,-18.10629 22.268292,18.10632 0 0 0 -13.00039,3.43422 35.426828,30.177172 0 0 0 -16.353262,-3.43422 35.426828,30.177172 0 0 0 -19.832708,5.20634 22.268292,18.10632 0 0 0 -15.594121,-5.20634 z"
       id="circle4223"
       inkscape:connector-curvature="0" />
    <ellipse
       cy="959.81891"
       cx="120.19512"
       id="circle4149"
       style="color:#000000;clip-rule:nonzero;display:inline;overflow:visible;visibility:visible;opacity:1;isolation:auto;mix-blend-mode:normal;color-interpolation:sRGB;color-interpolation-filters:linearRGB;solid-color:#000000;solid-opacity:1;fill:#677821;fill-opacity:1;fill-rule:evenodd;stroke:#445016;stroke-width:2;stroke-linecap:round;stroke-linejoin:round;stroke-miterlimit:4;stroke-dasharray:none;stroke-dashoffset:0;stroke-opacity:1;color-rendering:auto;image-rendering:auto;shape-rendering:auto;text-rendering:auto;enable-background:accumulate"
       rx="16.195122"
       ry="16.094481" />
    <path
       style="color:#000000;clip-rule:nonzero;display:inline;overflow:visible;visibility:visible;opacity:1;isolation:auto;mix-blend-mode:normal;color-interpolation:sRGB;color-interpolation-filters:linearRGB;solid-color:#000000;solid-opacity:1;fill:#677821;fill-opacity:1;fill-rule:evenodd;stroke:#445016;stroke-width:2;stroke-linecap:round;stroke-linejoin:round;stroke-miterlimit:4;stroke-dasharray:none;stroke-dashoffset:0;stroke-opacity:1;color-rendering:auto;image-rendering:auto;shape-rendering:auto;text-rendering:auto;enable-background:accumulate"
       d="m 106.02439,1014.1377 a 16.195122,16.094481 0 0 0 -14.091652,8.1809 12.146341,10.059029 0 0 0 -10.201028,9.9254 12.146341,10.059029 0 0 0 12.146342,10.0591 12.146341,10.059029 0 0 0 1.371998,-0.075 16.195122,16.094481 0 0 0 10.77434,4.0983 16.195122,16.094481 0 0 0 10.76644,-4.0944 12.146341,10.059029 0 0 0 1.3799,0.071 12.146341,10.059029 0 0 0 12.14635,-10.0591 12.146341,10.059029 0 0 0 -10.20894,-9.9176 16.195122,16.094481 0 0 0 -14.08375,-8.1887 z"
       id="circle4151"
       inkscape:connector-curvature="0" />
  </g>
</svg>
