<?xml version="1.0" encoding="UTF-8" standalone="no"?>
<!-- Created with Inkscape (http://www.inkscape.org/) -->

<svg
   xmlns:dc="http://purl.org/dc/elements/1.1/"
   xmlns:cc="http://creativecommons.org/ns#"
   xmlns:rdf="http://www.w3.org/1999/02/22-rdf-syntax-ns#"
   xmlns:svg="http://www.w3.org/2000/svg"
   xmlns="http://www.w3.org/2000/svg"
   xmlns:sodipodi="http://sodipodi.sourceforge.net/DTD/sodipodi-0.dtd"
   xmlns:inkscape="http://www.inkscape.org/namespaces/inkscape"
   width="32"
   height="68"
   viewBox="0 0 32 68.000002"
   id="svg2"
   version="1.1"
   inkscape:version="0.91 r13725"
   sodipodi:docname="coin8.svg">
  <defs
     id="defs4" />
  <sodipodi:namedview
     id="base"
     pagecolor="#ffffff"
     bordercolor="#666666"
     borderopacity="1.0"
     inkscape:pageopacity="0.0"
     inkscape:pageshadow="2"
     inkscape:zoom="5.6568542"
     inkscape:cx="-78.561037"
     inkscape:cy="67.425441"
     inkscape:document-units="px"
     inkscape:current-layer="layer1"
     showgrid="false"
     inkscape:snap-global="true"
     inkscape:snap-bbox="true"
     inkscape:bbox-nodes="true"
     units="px"
     inkscape:window-width="2560"
     inkscape:window-height="1017"
     inkscape:window-x="-8"
     inkscape:window-y="-8"
     inkscape:window-maximized="1"
     inkscape:snap-page="true">
    <inkscape:grid
       type="xygrid"
       id="grid4136" />
  </sodipodi:namedview>
  <metadata
     id="metadata7">
    <rdf:RDF>
      <cc:Work
         rdf:about="">
        <dc:format>image/svg+xml</dc:format>
        <dc:type
           rdf:resource="http://purl.org/dc/dcmitype/StillImage" />
        <dc:title></dc:title>
      </cc:Work>
    </rdf:RDF>
  </metadata>
  <g
     inkscape:label="Layer 1"
     inkscape:groupmode="layer"
     id="layer1"
     transform="translate(0,-984.3621)">
    <g
       id="g4282"
       transform="matrix(0,-1,0.96875042,0,-526.85027,1311.8621)">
      <path
         inkscape:connector-curvature="0"
         style="color:#000000;clip-rule:nonzero;display:inline;overflow:visible;visibility:visible;opacity:1;isolation:auto;mix-blend-mode:normal;color-interpolation:sRGB;color-interpolation-filters:linearRGB;solid-color:#000000;solid-opacity:1;fill:#ffcc00;fill-opacity:1;fill-rule:evenodd;stroke:none;stroke-width:1px;stroke-linecap:round;stroke-linejoin:miter;stroke-miterlimit:4;stroke-dasharray:none;stroke-dashoffset:0;stroke-opacity:1;color-rendering:auto;image-rendering:auto;shape-rendering:auto;text-rendering:auto;enable-background:accumulate"
         d="m 268,544.3622 a 8,16 0 0 0 -8,16 8,16 0 0 0 8,16 l 4,0 a 8,16 0 0 0 8,-16 8,16 0 0 0 -8,-16 l -4,0 z"
         id="path4166" />
      <path
         id="path4277"
         d="m 272,544.36133 a 8,16 0 0 0 -8,16 8,16 0 0 0 8,16 8,16 0 0 0 0.68945,-0.0684 8,16 0 0 0 0.38282,-0.0937 8,16 0 0 0 0.40039,-0.1211 8,16 0 0 0 0.38086,-0.16992 8,16 0 0 0 1.88086,-1.40625 8,16 0 0 0 0.33398,-0.38476 8,16 0 0 0 0.68164,-0.9043 8,16 0 0 0 0.30469,-0.46094 8,16 0 0 0 0.004,-0.006 8,16 0 0 0 0.29688,-0.52343 8,16 0 0 0 0.31055,-0.57813 8,16 0 0 0 0.52734,-1.16797 8,16 0 0 0 0.22852,-0.60156 8,16 0 0 0 0.24609,-0.68945 8,16 0 0 0 0.18555,-0.60547 8,16 0 0 0 0.22851,-0.79297 8,16 0 0 0 0.006,-0.0234 8,16 0 0 0 0.13867,-0.58203 8,16 0 0 0 0.18555,-0.82031 8,16 0 0 0 0.002,-0.008 8,16 0 0 0 0.13477,-0.74414 8,16 0 0 0 0.12109,-0.73047 8,16 0 0 0 0,-0.004 8,16 0 0 0 0.10352,-0.80664 8,16 0 0 0 0.084,-0.76758 8,16 0 0 0 0.0566,-0.73242 8,16 0 0 0 0.0527,-0.85742 8,16 0 0 0 0.0332,-1.34961 8,16 0 0 0 -0.0332,-1.34961 8,16 0 0 0 -0.0527,-0.85352 8,16 0 0 0 -0.0566,-0.74023 8,16 0 0 0 -0.084,-0.75 8,16 0 0 0 -0.10352,-0.82422 8,16 0 0 0 -0.004,-0.0176 8,16 0 0 0 -0.11719,-0.70312 8,16 0 0 0 -0.13867,-0.76758 8,16 0 0 0 0,-0.004 8,16 0 0 0 -0.18164,-0.79883 8,16 0 0 0 -0.14844,-0.61523 8,16 0 0 0 -0.21485,-0.75586 8,16 0 0 0 -0.19726,-0.64648 8,16 0 0 0 -0.008,-0.0195 8,16 0 0 0 -0.20899,-0.58984 8,16 0 0 0 -0.26367,-0.6914 8,16 0 0 0 -0.25,-0.57032 8,16 0 0 0 -0.28516,-0.60937 8,16 0 0 0 -0.29687,-0.55469 8,16 0 0 0 -0.29492,-0.51758 8,16 0 0 0 -0.31055,-0.4707 8,16 0 0 0 -0.33789,-0.48438 8,16 0 0 0 -0.32422,-0.39843 8,16 0 0 0 -0.35547,-0.40821 8,16 0 0 0 -0.008,-0.008 8,16 0 0 0 -0.35547,-0.3418 8,16 0 0 0 -0.36328,-0.32617 8,16 0 0 0 -0.004,-0.002 8,16 0 0 0 -0.36523,-0.26758 8,16 0 0 0 -0.38477,-0.25586 8,16 0 0 0 -0.39257,-0.19922 8,16 0 0 0 -0.39258,-0.17578 8,16 0 0 0 -0.38868,-0.11719 A 8,16 0 0 0 272,544.36133 Z m -7.62891,30.25976 a 8,16 0 0 0 2.26953,1.50782 8,16 0 0 1 -2.26953,-1.50782 z m 2.26953,1.50782 a 8,16 0 0 0 1.35938,0.23242 8,16 0 0 1 -1.35938,-0.23242 z"
         style="color:#000000;clip-rule:nonzero;display:inline;overflow:visible;visibility:visible;opacity:1;isolation:auto;mix-blend-mode:normal;color-interpolation:sRGB;color-interpolation-filters:linearRGB;solid-color:#000000;solid-opacity:1;fill:none;fill-opacity:1;fill-rule:evenodd;stroke:#ffffff;stroke-width:1.01600075px;stroke-linecap:round;stroke-linejoin:miter;stroke-miterlimit:4;stroke-dasharray:none;stroke-dashoffset:0;stroke-opacity:1;color-rendering:auto;image-rendering:auto;shape-rendering:auto;text-rendering:auto;enable-background:accumulate"
         inkscape:connector-curvature="0" />
      <path
         inkscape:connector-curvature="0"
         id="text4185"
         d="m 273.61955,550.49023 0,19.02344 -1.76187,0 0,1.22266 3.71263,0 0,-20.2461 -1.95076,0 z m -4.32699,4.59766 0,1.00586 0.3672,0 c 0.0738,0 0.11258,0.0105 0.18184,0.0117 -0.007,-0.0722 -0.01,-0.22753 -0.0177,-0.27344 -0.0551,-0.3168 -0.20949,-0.55449 -0.46077,-0.71289 -0.0179,-0.0122 -0.0494,-0.0199 -0.0706,-0.0312 z"
         style="font-style:normal;font-weight:normal;font-size:23.09672356px;line-height:125%;font-family:sans-serif;letter-spacing:0px;word-spacing:0px;fill:#000000;fill-opacity:0.37850467;stroke:none;stroke-width:1px;stroke-linecap:butt;stroke-linejoin:miter;stroke-opacity:1" />
      <path
         inkscape:connector-curvature="0"
         id="text4181"
         d="m 271.43222,549.26758 c -0.93156,1.63402 -2.29472,2.71306 -4.09042,3.23828 l 0,2.36328 0.3672,0 c 0.79518,0 1.31477,0.0755 1.58356,0.21875 l 0,-1.35742 c 1.79571,-0.52522 3.15886,-1.60621 4.09042,-3.24024 l 0.23657,0 0,-1.22265 -2.18733,0 z m -1.59062,6.83789 c 0.0403,0.42585 0.0635,1.21253 0.0635,2.55273 l 0,10.85547 1.95253,0 0,-9.63086 c 0,-1.56733 -0.0278,-2.50937 -0.083,-2.82617 -0.0552,-0.3168 -0.2095,-0.55449 -0.46077,-0.71289 -0.22406,-0.1524 -0.73628,-0.22518 -1.47234,-0.23828 z"
         style="font-style:normal;font-weight:normal;font-size:23.09672356px;line-height:125%;font-family:sans-serif;letter-spacing:0px;word-spacing:0px;fill:#ffffff;fill-opacity:0.43457947;stroke:none;stroke-width:1px;stroke-linecap:butt;stroke-linejoin:miter;stroke-opacity:1" />
      <path
         id="ellipse4140"
         d="m 268,544.36133 a 8,16 0 0 0 -8,16 8,16 0 0 0 8,16 l 4,0 a 8,16 0 0 1 -8,-16 8,16 0 0 1 8,-16 l -4,0 z m 4,0 a 8,16 0 0 1 0.67773,0.0684 A 8,16 0 0 0 272,544.36133 Z m 1.07227,0.16406 a 8,16 0 0 1 0.41015,0.12305 8,16 0 0 0 -0.41015,-0.12305 z m 0.78125,0.29102 a 8,16 0 0 1 0.39843,0.20312 8,16 0 0 0 -0.39843,-0.20312 z m 0.77539,0.45312 a 8,16 0 0 1 0.37695,0.27539 8,16 0 0 0 -0.37695,-0.27539 z m 0.73437,0.5957 a 8,16 0 0 1 0.36914,0.35547 8,16 0 0 0 -0.36914,-0.35547 z m 0.7207,0.75977 a 8,16 0 0 1 0.32813,0.40234 8,16 0 0 0 -0.32813,-0.40234 z m 0.66602,0.88477 a 8,16 0 0 1 0.31055,0.47265 8,16 0 0 0 -0.31055,-0.47265 z m 0.5957,0.97265 a 8,16 0 0 1 0.32032,0.5957 8,16 0 0 0 -0.32032,-0.5957 z m 0.56836,1.12891 a 8,16 0 0 1 0.27344,0.62305 8,16 0 0 0 -0.27344,-0.62305 z m 0.51758,1.26172 a 8,16 0 0 1 0.23633,0.66211 8,16 0 0 0 -0.23633,-0.66211 z m 0.42969,1.29492 a 8,16 0 0 1 0.21875,0.76953 8,16 0 0 0 -0.21875,-0.76953 z m 0.36719,1.38476 a 8,16 0 0 1 0.18164,0.80274 8,16 0 0 0 -0.18164,-0.80274 z m 0.32031,1.57032 a 8,16 0 0 1 0.12109,0.7207 8,16 0 0 0 -0.12109,-0.7207 z m 0.22461,1.54492 a 8,16 0 0 1 0.084,0.75 8,16 0 0 0 -0.084,-0.75 z m 0.14062,1.49023 a 8,16 0 0 1 0.0527,0.85352 8,16 0 0 0 -0.0527,-0.85352 z M 280,560.36133 a 8,16 0 0 1 -0.0332,1.34961 8,16 0 0 0 0.0332,-1.34961 z m -0.0859,2.20703 a 8,16 0 0 1 -0.0566,0.73242 8,16 0 0 0 0.0566,-0.73242 z m -0.14062,1.49609 a 8,16 0 0 1 -0.10352,0.81446 8,16 0 0 0 0.10352,-0.81446 z m -0.22461,1.54297 a 8,16 0 0 1 -0.13672,0.75391 8,16 0 0 0 0.13672,-0.75391 z m -0.32227,1.57422 a 8,16 0 0 1 -0.14453,0.60547 8,16 0 0 0 0.14453,-0.60547 z m -0.36718,1.38281 a 8,16 0 0 1 -0.19141,0.6211 8,16 0 0 0 0.19141,-0.6211 z m -0.43165,1.29688 a 8,16 0 0 1 -0.23437,0.61523 8,16 0 0 0 0.23437,-0.61523 z m -0.52539,1.27148 a 8,16 0 0 1 -0.23632,0.51172 8,16 0 0 0 0.23632,-0.51172 z m -0.54492,1.08789 a 8,16 0 0 1 -0.30273,0.53125 8,16 0 0 0 0.30273,-0.53125 z m -0.60742,0.99219 a 8,16 0 0 1 -0.33008,0.47266 8,16 0 0 0 0.33008,-0.47266 z m -0.68164,0.9043 a 8,16 0 0 1 -0.33398,0.38476 8,16 0 0 0 0.33398,-0.38476 z m -0.71484,0.75 a 8,16 0 0 1 -0.3379,0.30273 8,16 0 0 0 0.3379,-0.30273 z m -0.75586,0.60742 a 8,16 0 0 1 -0.33399,0.22266 8,16 0 0 0 0.33399,-0.22266 z m -0.74414,0.43359 a 8,16 0 0 1 -0.38086,0.16992 8,16 0 0 0 0.38086,-0.16992 z m -0.78125,0.29102 a 8,16 0 0 1 -0.38282,0.0937 8,16 0 0 0 0.38282,-0.0937 z"
         style="color:#000000;clip-rule:nonzero;display:inline;overflow:visible;visibility:visible;opacity:1;isolation:auto;mix-blend-mode:normal;color-interpolation:sRGB;color-interpolation-filters:linearRGB;solid-color:#000000;solid-opacity:1;fill:#000000;fill-opacity:0.25233645;fill-rule:evenodd;stroke:none;stroke-width:1px;stroke-linecap:round;stroke-linejoin:miter;stroke-miterlimit:4;stroke-dasharray:none;stroke-dashoffset:0;stroke-opacity:1;color-rendering:auto;image-rendering:auto;shape-rendering:auto;text-rendering:auto;enable-background:accumulate"
         inkscape:connector-curvature="0" />
      <path
         style="color:#000000;clip-rule:nonzero;display:inline;overflow:visible;visibility:visible;opacity:1;isolation:auto;mix-blend-mode:normal;color-interpolation:sRGB;color-interpolation-filters:linearRGB;solid-color:#000000;solid-opacity:1;fill:none;fill-opacity:1;fill-rule:evenodd;stroke:#806600;stroke-width:1.01600075px;stroke-linecap:round;stroke-linejoin:miter;stroke-miterlimit:4;stroke-dasharray:none;stroke-dashoffset:0;stroke-opacity:1;color-rendering:auto;image-rendering:auto;shape-rendering:auto;text-rendering:auto;enable-background:accumulate"
         d="m 268,544.36133 a 8,16 0 0 0 -8,16 8,16 0 0 0 8,16 l 4,0 a 8,16 0 0 0 8,-16 8,16 0 0 0 -8,-16 l -4,0 z"
         id="path4148"
         inkscape:connector-curvature="0" />
    </g>
    <g
       transform="matrix(0,-1,0.96875042,0,-526.85027,1306.8621)"
       id="g4141">
      <path
         id="path4143"
         d="m 268,544.3622 a 8,16 0 0 0 -8,16 8,16 0 0 0 8,16 l 4,0 a 8,16 0 0 0 8,-16 8,16 0 0 0 -8,-16 l -4,0 z"
         style="color:#000000;clip-rule:nonzero;display:inline;overflow:visible;visibility:visible;opacity:1;isolation:auto;mix-blend-mode:normal;color-interpolation:sRGB;color-interpolation-filters:linearRGB;solid-color:#000000;solid-opacity:1;fill:#ffcc00;fill-opacity:1;fill-rule:evenodd;stroke:none;stroke-width:1px;stroke-linecap:round;stroke-linejoin:miter;stroke-miterlimit:4;stroke-dasharray:none;stroke-dashoffset:0;stroke-opacity:1;color-rendering:auto;image-rendering:auto;shape-rendering:auto;text-rendering:auto;enable-background:accumulate"
         inkscape:connector-curvature="0" />
      <path
         inkscape:connector-curvature="0"
         style="color:#000000;clip-rule:nonzero;display:inline;overflow:visible;visibility:visible;opacity:1;isolation:auto;mix-blend-mode:normal;color-interpolation:sRGB;color-interpolation-filters:linearRGB;solid-color:#000000;solid-opacity:1;fill:none;fill-opacity:1;fill-rule:evenodd;stroke:#ffffff;stroke-width:1.01600075px;stroke-linecap:round;stroke-linejoin:miter;stroke-miterlimit:4;stroke-dasharray:none;stroke-dashoffset:0;stroke-opacity:1;color-rendering:auto;image-rendering:auto;shape-rendering:auto;text-rendering:auto;enable-background:accumulate"
         d="m 272,544.36133 a 8,16 0 0 0 -8,16 8,16 0 0 0 8,16 8,16 0 0 0 0.68945,-0.0684 8,16 0 0 0 0.38282,-0.0937 8,16 0 0 0 0.40039,-0.1211 8,16 0 0 0 0.38086,-0.16992 8,16 0 0 0 1.88086,-1.40625 8,16 0 0 0 0.33398,-0.38476 8,16 0 0 0 0.68164,-0.9043 8,16 0 0 0 0.30469,-0.46094 8,16 0 0 0 0.004,-0.006 8,16 0 0 0 0.29688,-0.52343 8,16 0 0 0 0.31055,-0.57813 8,16 0 0 0 0.52734,-1.16797 8,16 0 0 0 0.22852,-0.60156 8,16 0 0 0 0.24609,-0.68945 8,16 0 0 0 0.18555,-0.60547 8,16 0 0 0 0.22851,-0.79297 8,16 0 0 0 0.006,-0.0234 8,16 0 0 0 0.13867,-0.58203 8,16 0 0 0 0.18555,-0.82031 8,16 0 0 0 0.002,-0.008 8,16 0 0 0 0.13477,-0.74414 8,16 0 0 0 0.12109,-0.73047 8,16 0 0 0 0,-0.004 8,16 0 0 0 0.10352,-0.80664 8,16 0 0 0 0.084,-0.76758 8,16 0 0 0 0.0566,-0.73242 8,16 0 0 0 0.0527,-0.85742 8,16 0 0 0 0.0332,-1.34961 8,16 0 0 0 -0.0332,-1.34961 8,16 0 0 0 -0.0527,-0.85352 8,16 0 0 0 -0.0566,-0.74023 8,16 0 0 0 -0.084,-0.75 8,16 0 0 0 -0.10352,-0.82422 8,16 0 0 0 -0.004,-0.0176 8,16 0 0 0 -0.11719,-0.70312 8,16 0 0 0 -0.13867,-0.76758 8,16 0 0 0 0,-0.004 8,16 0 0 0 -0.18164,-0.79883 8,16 0 0 0 -0.14844,-0.61523 8,16 0 0 0 -0.21485,-0.75586 8,16 0 0 0 -0.19726,-0.64648 8,16 0 0 0 -0.008,-0.0195 8,16 0 0 0 -0.20899,-0.58984 8,16 0 0 0 -0.26367,-0.6914 8,16 0 0 0 -0.25,-0.57032 8,16 0 0 0 -0.28516,-0.60937 8,16 0 0 0 -0.29687,-0.55469 8,16 0 0 0 -0.29492,-0.51758 8,16 0 0 0 -0.31055,-0.4707 8,16 0 0 0 -0.33789,-0.48438 8,16 0 0 0 -0.32422,-0.39843 8,16 0 0 0 -0.35547,-0.40821 8,16 0 0 0 -0.008,-0.008 8,16 0 0 0 -0.35547,-0.3418 8,16 0 0 0 -0.36328,-0.32617 8,16 0 0 0 -0.004,-0.002 8,16 0 0 0 -0.36523,-0.26758 8,16 0 0 0 -0.38477,-0.25586 8,16 0 0 0 -0.39257,-0.19922 8,16 0 0 0 -0.39258,-0.17578 8,16 0 0 0 -0.38868,-0.11719 A 8,16 0 0 0 272,544.36133 Z m -7.62891,30.25976 a 8,16 0 0 0 2.26953,1.50782 8,16 0 0 1 -2.26953,-1.50782 z m 2.26953,1.50782 a 8,16 0 0 0 1.35938,0.23242 8,16 0 0 1 -1.35938,-0.23242 z"
         id="path4145" />
      <path
         style="font-style:normal;font-weight:normal;font-size:23.09672356px;line-height:125%;font-family:sans-serif;letter-spacing:0px;word-spacing:0px;fill:#000000;fill-opacity:0.37850467;stroke:none;stroke-width:1px;stroke-linecap:butt;stroke-linejoin:miter;stroke-opacity:1"
         d="m 273.61955,550.49023 0,19.02344 -1.76187,0 0,1.22266 3.71263,0 0,-20.2461 -1.95076,0 z m -4.32699,4.59766 0,1.00586 0.3672,0 c 0.0738,0 0.11258,0.0105 0.18184,0.0117 -0.007,-0.0722 -0.01,-0.22753 -0.0177,-0.27344 -0.0551,-0.3168 -0.20949,-0.55449 -0.46077,-0.71289 -0.0179,-0.0122 -0.0494,-0.0199 -0.0706,-0.0312 z"
         id="path4147"
         inkscape:connector-curvature="0" />
      <path
         style="font-style:normal;font-weight:normal;font-size:23.09672356px;line-height:125%;font-family:sans-serif;letter-spacing:0px;word-spacing:0px;fill:#ffffff;fill-opacity:0.43457947;stroke:none;stroke-width:1px;stroke-linecap:butt;stroke-linejoin:miter;stroke-opacity:1"
         d="m 271.43222,549.26758 c -0.93156,1.63402 -2.29472,2.71306 -4.09042,3.23828 l 0,2.36328 0.3672,0 c 0.79518,0 1.31477,0.0755 1.58356,0.21875 l 0,-1.35742 c 1.79571,-0.52522 3.15886,-1.60621 4.09042,-3.24024 l 0.23657,0 0,-1.22265 -2.18733,0 z m -1.59062,6.83789 c 0.0403,0.42585 0.0635,1.21253 0.0635,2.55273 l 0,10.85547 1.95253,0 0,-9.63086 c 0,-1.56733 -0.0278,-2.50937 -0.083,-2.82617 -0.0552,-0.3168 -0.2095,-0.55449 -0.46077,-0.71289 -0.22406,-0.1524 -0.73628,-0.22518 -1.47234,-0.23828 z"
         id="path4149"
         inkscape:connector-curvature="0" />
      <path
         inkscape:connector-curvature="0"
         style="color:#000000;clip-rule:nonzero;display:inline;overflow:visible;visibility:visible;opacity:1;isolation:auto;mix-blend-mode:normal;color-interpolation:sRGB;color-interpolation-filters:linearRGB;solid-color:#000000;solid-opacity:1;fill:#000000;fill-opacity:0.25233645;fill-rule:evenodd;stroke:none;stroke-width:1px;stroke-linecap:round;stroke-linejoin:miter;stroke-miterlimit:4;stroke-dasharray:none;stroke-dashoffset:0;stroke-opacity:1;color-rendering:auto;image-rendering:auto;shape-rendering:auto;text-rendering:auto;enable-background:accumulate"
         d="m 268,544.36133 a 8,16 0 0 0 -8,16 8,16 0 0 0 8,16 l 4,0 a 8,16 0 0 1 -8,-16 8,16 0 0 1 8,-16 l -4,0 z m 4,0 a 8,16 0 0 1 0.67773,0.0684 A 8,16 0 0 0 272,544.36133 Z m 1.07227,0.16406 a 8,16 0 0 1 0.41015,0.12305 8,16 0 0 0 -0.41015,-0.12305 z m 0.78125,0.29102 a 8,16 0 0 1 0.39843,0.20312 8,16 0 0 0 -0.39843,-0.20312 z m 0.77539,0.45312 a 8,16 0 0 1 0.37695,0.27539 8,16 0 0 0 -0.37695,-0.27539 z m 0.73437,0.5957 a 8,16 0 0 1 0.36914,0.35547 8,16 0 0 0 -0.36914,-0.35547 z m 0.7207,0.75977 a 8,16 0 0 1 0.32813,0.40234 8,16 0 0 0 -0.32813,-0.40234 z m 0.66602,0.88477 a 8,16 0 0 1 0.31055,0.47265 8,16 0 0 0 -0.31055,-0.47265 z m 0.5957,0.97265 a 8,16 0 0 1 0.32032,0.5957 8,16 0 0 0 -0.32032,-0.5957 z m 0.56836,1.12891 a 8,16 0 0 1 0.27344,0.62305 8,16 0 0 0 -0.27344,-0.62305 z m 0.51758,1.26172 a 8,16 0 0 1 0.23633,0.66211 8,16 0 0 0 -0.23633,-0.66211 z m 0.42969,1.29492 a 8,16 0 0 1 0.21875,0.76953 8,16 0 0 0 -0.21875,-0.76953 z m 0.36719,1.38476 a 8,16 0 0 1 0.18164,0.80274 8,16 0 0 0 -0.18164,-0.80274 z m 0.32031,1.57032 a 8,16 0 0 1 0.12109,0.7207 8,16 0 0 0 -0.12109,-0.7207 z m 0.22461,1.54492 a 8,16 0 0 1 0.084,0.75 8,16 0 0 0 -0.084,-0.75 z m 0.14062,1.49023 a 8,16 0 0 1 0.0527,0.85352 8,16 0 0 0 -0.0527,-0.85352 z M 280,560.36133 a 8,16 0 0 1 -0.0332,1.34961 8,16 0 0 0 0.0332,-1.34961 z m -0.0859,2.20703 a 8,16 0 0 1 -0.0566,0.73242 8,16 0 0 0 0.0566,-0.73242 z m -0.14062,1.49609 a 8,16 0 0 1 -0.10352,0.81446 8,16 0 0 0 0.10352,-0.81446 z m -0.22461,1.54297 a 8,16 0 0 1 -0.13672,0.75391 8,16 0 0 0 0.13672,-0.75391 z m -0.32227,1.57422 a 8,16 0 0 1 -0.14453,0.60547 8,16 0 0 0 0.14453,-0.60547 z m -0.36718,1.38281 a 8,16 0 0 1 -0.19141,0.6211 8,16 0 0 0 0.19141,-0.6211 z m -0.43165,1.29688 a 8,16 0 0 1 -0.23437,0.61523 8,16 0 0 0 0.23437,-0.61523 z m -0.52539,1.27148 a 8,16 0 0 1 -0.23632,0.51172 8,16 0 0 0 0.23632,-0.51172 z m -0.54492,1.08789 a 8,16 0 0 1 -0.30273,0.53125 8,16 0 0 0 0.30273,-0.53125 z m -0.60742,0.99219 a 8,16 0 0 1 -0.33008,0.47266 8,16 0 0 0 0.33008,-0.47266 z m -0.68164,0.9043 a 8,16 0 0 1 -0.33398,0.38476 8,16 0 0 0 0.33398,-0.38476 z m -0.71484,0.75 a 8,16 0 0 1 -0.3379,0.30273 8,16 0 0 0 0.3379,-0.30273 z m -0.75586,0.60742 a 8,16 0 0 1 -0.33399,0.22266 8,16 0 0 0 0.33399,-0.22266 z m -0.74414,0.43359 a 8,16 0 0 1 -0.38086,0.16992 8,16 0 0 0 0.38086,-0.16992 z m -0.78125,0.29102 a 8,16 0 0 1 -0.38282,0.0937 8,16 0 0 0 0.38282,-0.0937 z"
         id="path4151" />
      <path
         inkscape:connector-curvature="0"
         id="path4153"
         d="m 268,544.36133 a 8,16 0 0 0 -8,16 8,16 0 0 0 8,16 l 4,0 a 8,16 0 0 0 8,-16 8,16 0 0 0 -8,-16 l -4,0 z"
         style="color:#000000;clip-rule:nonzero;display:inline;overflow:visible;visibility:visible;opacity:1;isolation:auto;mix-blend-mode:normal;color-interpolation:sRGB;color-interpolation-filters:linearRGB;solid-color:#000000;solid-opacity:1;fill:none;fill-opacity:1;fill-rule:evenodd;stroke:#806600;stroke-width:1.01600075px;stroke-linecap:round;stroke-linejoin:miter;stroke-miterlimit:4;stroke-dasharray:none;stroke-dashoffset:0;stroke-opacity:1;color-rendering:auto;image-rendering:auto;shape-rendering:auto;text-rendering:auto;enable-background:accumulate" />
    </g>
    <g
       id="g4155"
       transform="matrix(0,-1,0.96875042,0,-526.85027,1301.8621)">
      <path
         inkscape:connector-curvature="0"
         style="color:#000000;clip-rule:nonzero;display:inline;overflow:visible;visibility:visible;opacity:1;isolation:auto;mix-blend-mode:normal;color-interpolation:sRGB;color-interpolation-filters:linearRGB;solid-color:#000000;solid-opacity:1;fill:#ffcc00;fill-opacity:1;fill-rule:evenodd;stroke:none;stroke-width:1px;stroke-linecap:round;stroke-linejoin:miter;stroke-miterlimit:4;stroke-dasharray:none;stroke-dashoffset:0;stroke-opacity:1;color-rendering:auto;image-rendering:auto;shape-rendering:auto;text-rendering:auto;enable-background:accumulate"
         d="m 268,544.3622 a 8,16 0 0 0 -8,16 8,16 0 0 0 8,16 l 4,0 a 8,16 0 0 0 8,-16 8,16 0 0 0 -8,-16 l -4,0 z"
         id="path4157" />
      <path
         id="path4159"
         d="m 272,544.36133 a 8,16 0 0 0 -8,16 8,16 0 0 0 8,16 8,16 0 0 0 0.68945,-0.0684 8,16 0 0 0 0.38282,-0.0937 8,16 0 0 0 0.40039,-0.1211 8,16 0 0 0 0.38086,-0.16992 8,16 0 0 0 1.88086,-1.40625 8,16 0 0 0 0.33398,-0.38476 8,16 0 0 0 0.68164,-0.9043 8,16 0 0 0 0.30469,-0.46094 8,16 0 0 0 0.004,-0.006 8,16 0 0 0 0.29688,-0.52343 8,16 0 0 0 0.31055,-0.57813 8,16 0 0 0 0.52734,-1.16797 8,16 0 0 0 0.22852,-0.60156 8,16 0 0 0 0.24609,-0.68945 8,16 0 0 0 0.18555,-0.60547 8,16 0 0 0 0.22851,-0.79297 8,16 0 0 0 0.006,-0.0234 8,16 0 0 0 0.13867,-0.58203 8,16 0 0 0 0.18555,-0.82031 8,16 0 0 0 0.002,-0.008 8,16 0 0 0 0.13477,-0.74414 8,16 0 0 0 0.12109,-0.73047 8,16 0 0 0 0,-0.004 8,16 0 0 0 0.10352,-0.80664 8,16 0 0 0 0.084,-0.76758 8,16 0 0 0 0.0566,-0.73242 8,16 0 0 0 0.0527,-0.85742 8,16 0 0 0 0.0332,-1.34961 8,16 0 0 0 -0.0332,-1.34961 8,16 0 0 0 -0.0527,-0.85352 8,16 0 0 0 -0.0566,-0.74023 8,16 0 0 0 -0.084,-0.75 8,16 0 0 0 -0.10352,-0.82422 8,16 0 0 0 -0.004,-0.0176 8,16 0 0 0 -0.11719,-0.70312 8,16 0 0 0 -0.13867,-0.76758 8,16 0 0 0 0,-0.004 8,16 0 0 0 -0.18164,-0.79883 8,16 0 0 0 -0.14844,-0.61523 8,16 0 0 0 -0.21485,-0.75586 8,16 0 0 0 -0.19726,-0.64648 8,16 0 0 0 -0.008,-0.0195 8,16 0 0 0 -0.20899,-0.58984 8,16 0 0 0 -0.26367,-0.6914 8,16 0 0 0 -0.25,-0.57032 8,16 0 0 0 -0.28516,-0.60937 8,16 0 0 0 -0.29687,-0.55469 8,16 0 0 0 -0.29492,-0.51758 8,16 0 0 0 -0.31055,-0.4707 8,16 0 0 0 -0.33789,-0.48438 8,16 0 0 0 -0.32422,-0.39843 8,16 0 0 0 -0.35547,-0.40821 8,16 0 0 0 -0.008,-0.008 8,16 0 0 0 -0.35547,-0.3418 8,16 0 0 0 -0.36328,-0.32617 8,16 0 0 0 -0.004,-0.002 8,16 0 0 0 -0.36523,-0.26758 8,16 0 0 0 -0.38477,-0.25586 8,16 0 0 0 -0.39257,-0.19922 8,16 0 0 0 -0.39258,-0.17578 8,16 0 0 0 -0.38868,-0.11719 A 8,16 0 0 0 272,544.36133 Z m -7.62891,30.25976 a 8,16 0 0 0 2.26953,1.50782 8,16 0 0 1 -2.26953,-1.50782 z m 2.26953,1.50782 a 8,16 0 0 0 1.35938,0.23242 8,16 0 0 1 -1.35938,-0.23242 z"
         style="color:#000000;clip-rule:nonzero;display:inline;overflow:visible;visibility:visible;opacity:1;isolation:auto;mix-blend-mode:normal;color-interpolation:sRGB;color-interpolation-filters:linearRGB;solid-color:#000000;solid-opacity:1;fill:none;fill-opacity:1;fill-rule:evenodd;stroke:#ffffff;stroke-width:1.01600075px;stroke-linecap:round;stroke-linejoin:miter;stroke-miterlimit:4;stroke-dasharray:none;stroke-dashoffset:0;stroke-opacity:1;color-rendering:auto;image-rendering:auto;shape-rendering:auto;text-rendering:auto;enable-background:accumulate"
         inkscape:connector-curvature="0" />
      <path
         inkscape:connector-curvature="0"
         id="path4161"
         d="m 273.61955,550.49023 0,19.02344 -1.76187,0 0,1.22266 3.71263,0 0,-20.2461 -1.95076,0 z m -4.32699,4.59766 0,1.00586 0.3672,0 c 0.0738,0 0.11258,0.0105 0.18184,0.0117 -0.007,-0.0722 -0.01,-0.22753 -0.0177,-0.27344 -0.0551,-0.3168 -0.20949,-0.55449 -0.46077,-0.71289 -0.0179,-0.0122 -0.0494,-0.0199 -0.0706,-0.0312 z"
         style="font-style:normal;font-weight:normal;font-size:23.09672356px;line-height:125%;font-family:sans-serif;letter-spacing:0px;word-spacing:0px;fill:#000000;fill-opacity:0.37850467;stroke:none;stroke-width:1px;stroke-linecap:butt;stroke-linejoin:miter;stroke-opacity:1" />
      <path
         inkscape:connector-curvature="0"
         id="path4163"
         d="m 271.43222,549.26758 c -0.93156,1.63402 -2.29472,2.71306 -4.09042,3.23828 l 0,2.36328 0.3672,0 c 0.79518,0 1.31477,0.0755 1.58356,0.21875 l 0,-1.35742 c 1.79571,-0.52522 3.15886,-1.60621 4.09042,-3.24024 l 0.23657,0 0,-1.22265 -2.18733,0 z m -1.59062,6.83789 c 0.0403,0.42585 0.0635,1.21253 0.0635,2.55273 l 0,10.85547 1.95253,0 0,-9.63086 c 0,-1.56733 -0.0278,-2.50937 -0.083,-2.82617 -0.0552,-0.3168 -0.2095,-0.55449 -0.46077,-0.71289 -0.22406,-0.1524 -0.73628,-0.22518 -1.47234,-0.23828 z"
         style="font-style:normal;font-weight:normal;font-size:23.09672356px;line-height:125%;font-family:sans-serif;letter-spacing:0px;word-spacing:0px;fill:#ffffff;fill-opacity:0.43457947;stroke:none;stroke-width:1px;stroke-linecap:butt;stroke-linejoin:miter;stroke-opacity:1" />
      <path
         id="path4165"
         d="m 268,544.36133 a 8,16 0 0 0 -8,16 8,16 0 0 0 8,16 l 4,0 a 8,16 0 0 1 -8,-16 8,16 0 0 1 8,-16 l -4,0 z m 4,0 a 8,16 0 0 1 0.67773,0.0684 A 8,16 0 0 0 272,544.36133 Z m 1.07227,0.16406 a 8,16 0 0 1 0.41015,0.12305 8,16 0 0 0 -0.41015,-0.12305 z m 0.78125,0.29102 a 8,16 0 0 1 0.39843,0.20312 8,16 0 0 0 -0.39843,-0.20312 z m 0.77539,0.45312 a 8,16 0 0 1 0.37695,0.27539 8,16 0 0 0 -0.37695,-0.27539 z m 0.73437,0.5957 a 8,16 0 0 1 0.36914,0.35547 8,16 0 0 0 -0.36914,-0.35547 z m 0.7207,0.75977 a 8,16 0 0 1 0.32813,0.40234 8,16 0 0 0 -0.32813,-0.40234 z m 0.66602,0.88477 a 8,16 0 0 1 0.31055,0.47265 8,16 0 0 0 -0.31055,-0.47265 z m 0.5957,0.97265 a 8,16 0 0 1 0.32032,0.5957 8,16 0 0 0 -0.32032,-0.5957 z m 0.56836,1.12891 a 8,16 0 0 1 0.27344,0.62305 8,16 0 0 0 -0.27344,-0.62305 z m 0.51758,1.26172 a 8,16 0 0 1 0.23633,0.66211 8,16 0 0 0 -0.23633,-0.66211 z m 0.42969,1.29492 a 8,16 0 0 1 0.21875,0.76953 8,16 0 0 0 -0.21875,-0.76953 z m 0.36719,1.38476 a 8,16 0 0 1 0.18164,0.80274 8,16 0 0 0 -0.18164,-0.80274 z m 0.32031,1.57032 a 8,16 0 0 1 0.12109,0.7207 8,16 0 0 0 -0.12109,-0.7207 z m 0.22461,1.54492 a 8,16 0 0 1 0.084,0.75 8,16 0 0 0 -0.084,-0.75 z m 0.14062,1.49023 a 8,16 0 0 1 0.0527,0.85352 8,16 0 0 0 -0.0527,-0.85352 z M 280,560.36133 a 8,16 0 0 1 -0.0332,1.34961 8,16 0 0 0 0.0332,-1.34961 z m -0.0859,2.20703 a 8,16 0 0 1 -0.0566,0.73242 8,16 0 0 0 0.0566,-0.73242 z m -0.14062,1.49609 a 8,16 0 0 1 -0.10352,0.81446 8,16 0 0 0 0.10352,-0.81446 z m -0.22461,1.54297 a 8,16 0 0 1 -0.13672,0.75391 8,16 0 0 0 0.13672,-0.75391 z m -0.32227,1.57422 a 8,16 0 0 1 -0.14453,0.60547 8,16 0 0 0 0.14453,-0.60547 z m -0.36718,1.38281 a 8,16 0 0 1 -0.19141,0.6211 8,16 0 0 0 0.19141,-0.6211 z m -0.43165,1.29688 a 8,16 0 0 1 -0.23437,0.61523 8,16 0 0 0 0.23437,-0.61523 z m -0.52539,1.27148 a 8,16 0 0 1 -0.23632,0.51172 8,16 0 0 0 0.23632,-0.51172 z m -0.54492,1.08789 a 8,16 0 0 1 -0.30273,0.53125 8,16 0 0 0 0.30273,-0.53125 z m -0.60742,0.99219 a 8,16 0 0 1 -0.33008,0.47266 8,16 0 0 0 0.33008,-0.47266 z m -0.68164,0.9043 a 8,16 0 0 1 -0.33398,0.38476 8,16 0 0 0 0.33398,-0.38476 z m -0.71484,0.75 a 8,16 0 0 1 -0.3379,0.30273 8,16 0 0 0 0.3379,-0.30273 z m -0.75586,0.60742 a 8,16 0 0 1 -0.33399,0.22266 8,16 0 0 0 0.33399,-0.22266 z m -0.74414,0.43359 a 8,16 0 0 1 -0.38086,0.16992 8,16 0 0 0 0.38086,-0.16992 z m -0.78125,0.29102 a 8,16 0 0 1 -0.38282,0.0937 8,16 0 0 0 0.38282,-0.0937 z"
         style="color:#000000;clip-rule:nonzero;display:inline;overflow:visible;visibility:visible;opacity:1;isolation:auto;mix-blend-mode:normal;color-interpolation:sRGB;color-interpolation-filters:linearRGB;solid-color:#000000;solid-opacity:1;fill:#000000;fill-opacity:0.25233645;fill-rule:evenodd;stroke:none;stroke-width:1px;stroke-linecap:round;stroke-linejoin:miter;stroke-miterlimit:4;stroke-dasharray:none;stroke-dashoffset:0;stroke-opacity:1;color-rendering:auto;image-rendering:auto;shape-rendering:auto;text-rendering:auto;enable-background:accumulate"
         inkscape:connector-curvature="0" />
      <path
         style="color:#000000;clip-rule:nonzero;display:inline;overflow:visible;visibility:visible;opacity:1;isolation:auto;mix-blend-mode:normal;color-interpolation:sRGB;color-interpolation-filters:linearRGB;solid-color:#000000;solid-opacity:1;fill:none;fill-opacity:1;fill-rule:evenodd;stroke:#806600;stroke-width:1.01600075px;stroke-linecap:round;stroke-linejoin:miter;stroke-miterlimit:4;stroke-dasharray:none;stroke-dashoffset:0;stroke-opacity:1;color-rendering:auto;image-rendering:auto;shape-rendering:auto;text-rendering:auto;enable-background:accumulate"
         d="m 268,544.36133 a 8,16 0 0 0 -8,16 8,16 0 0 0 8,16 l 4,0 a 8,16 0 0 0 8,-16 8,16 0 0 0 -8,-16 l -4,0 z"
         id="path4167"
         inkscape:connector-curvature="0" />
    </g>
    <g
       transform="matrix(0,-1,0.96875042,0,-526.85027,1296.8621)"
       id="g4169">
      <path
         id="path4171"
         d="m 268,544.3622 a 8,16 0 0 0 -8,16 8,16 0 0 0 8,16 l 4,0 a 8,16 0 0 0 8,-16 8,16 0 0 0 -8,-16 l -4,0 z"
         style="color:#000000;clip-rule:nonzero;display:inline;overflow:visible;visibility:visible;opacity:1;isolation:auto;mix-blend-mode:normal;color-interpolation:sRGB;color-interpolation-filters:linearRGB;solid-color:#000000;solid-opacity:1;fill:#ffcc00;fill-opacity:1;fill-rule:evenodd;stroke:none;stroke-width:1px;stroke-linecap:round;stroke-linejoin:miter;stroke-miterlimit:4;stroke-dasharray:none;stroke-dashoffset:0;stroke-opacity:1;color-rendering:auto;image-rendering:auto;shape-rendering:auto;text-rendering:auto;enable-background:accumulate"
         inkscape:connector-curvature="0" />
      <path
         inkscape:connector-curvature="0"
         style="color:#000000;clip-rule:nonzero;display:inline;overflow:visible;visibility:visible;opacity:1;isolation:auto;mix-blend-mode:normal;color-interpolation:sRGB;color-interpolation-filters:linearRGB;solid-color:#000000;solid-opacity:1;fill:none;fill-opacity:1;fill-rule:evenodd;stroke:#ffffff;stroke-width:1.01600075px;stroke-linecap:round;stroke-linejoin:miter;stroke-miterlimit:4;stroke-dasharray:none;stroke-dashoffset:0;stroke-opacity:1;color-rendering:auto;image-rendering:auto;shape-rendering:auto;text-rendering:auto;enable-background:accumulate"
         d="m 272,544.36133 a 8,16 0 0 0 -8,16 8,16 0 0 0 8,16 8,16 0 0 0 0.68945,-0.0684 8,16 0 0 0 0.38282,-0.0937 8,16 0 0 0 0.40039,-0.1211 8,16 0 0 0 0.38086,-0.16992 8,16 0 0 0 1.88086,-1.40625 8,16 0 0 0 0.33398,-0.38476 8,16 0 0 0 0.68164,-0.9043 8,16 0 0 0 0.30469,-0.46094 8,16 0 0 0 0.004,-0.006 8,16 0 0 0 0.29688,-0.52343 8,16 0 0 0 0.31055,-0.57813 8,16 0 0 0 0.52734,-1.16797 8,16 0 0 0 0.22852,-0.60156 8,16 0 0 0 0.24609,-0.68945 8,16 0 0 0 0.18555,-0.60547 8,16 0 0 0 0.22851,-0.79297 8,16 0 0 0 0.006,-0.0234 8,16 0 0 0 0.13867,-0.58203 8,16 0 0 0 0.18555,-0.82031 8,16 0 0 0 0.002,-0.008 8,16 0 0 0 0.13477,-0.74414 8,16 0 0 0 0.12109,-0.73047 8,16 0 0 0 0,-0.004 8,16 0 0 0 0.10352,-0.80664 8,16 0 0 0 0.084,-0.76758 8,16 0 0 0 0.0566,-0.73242 8,16 0 0 0 0.0527,-0.85742 8,16 0 0 0 0.0332,-1.34961 8,16 0 0 0 -0.0332,-1.34961 8,16 0 0 0 -0.0527,-0.85352 8,16 0 0 0 -0.0566,-0.74023 8,16 0 0 0 -0.084,-0.75 8,16 0 0 0 -0.10352,-0.82422 8,16 0 0 0 -0.004,-0.0176 8,16 0 0 0 -0.11719,-0.70312 8,16 0 0 0 -0.13867,-0.76758 8,16 0 0 0 0,-0.004 8,16 0 0 0 -0.18164,-0.79883 8,16 0 0 0 -0.14844,-0.61523 8,16 0 0 0 -0.21485,-0.75586 8,16 0 0 0 -0.19726,-0.64648 8,16 0 0 0 -0.008,-0.0195 8,16 0 0 0 -0.20899,-0.58984 8,16 0 0 0 -0.26367,-0.6914 8,16 0 0 0 -0.25,-0.57032 8,16 0 0 0 -0.28516,-0.60937 8,16 0 0 0 -0.29687,-0.55469 8,16 0 0 0 -0.29492,-0.51758 8,16 0 0 0 -0.31055,-0.4707 8,16 0 0 0 -0.33789,-0.48438 8,16 0 0 0 -0.32422,-0.39843 8,16 0 0 0 -0.35547,-0.40821 8,16 0 0 0 -0.008,-0.008 8,16 0 0 0 -0.35547,-0.3418 8,16 0 0 0 -0.36328,-0.32617 8,16 0 0 0 -0.004,-0.002 8,16 0 0 0 -0.36523,-0.26758 8,16 0 0 0 -0.38477,-0.25586 8,16 0 0 0 -0.39257,-0.19922 8,16 0 0 0 -0.39258,-0.17578 8,16 0 0 0 -0.38868,-0.11719 A 8,16 0 0 0 272,544.36133 Z m -7.62891,30.25976 a 8,16 0 0 0 2.26953,1.50782 8,16 0 0 1 -2.26953,-1.50782 z m 2.26953,1.50782 a 8,16 0 0 0 1.35938,0.23242 8,16 0 0 1 -1.35938,-0.23242 z"
         id="path4173" />
      <path
         style="font-style:normal;font-weight:normal;font-size:23.09672356px;line-height:125%;font-family:sans-serif;letter-spacing:0px;word-spacing:0px;fill:#000000;fill-opacity:0.37850467;stroke:none;stroke-width:1px;stroke-linecap:butt;stroke-linejoin:miter;stroke-opacity:1"
         d="m 273.61955,550.49023 0,19.02344 -1.76187,0 0,1.22266 3.71263,0 0,-20.2461 -1.95076,0 z m -4.32699,4.59766 0,1.00586 0.3672,0 c 0.0738,0 0.11258,0.0105 0.18184,0.0117 -0.007,-0.0722 -0.01,-0.22753 -0.0177,-0.27344 -0.0551,-0.3168 -0.20949,-0.55449 -0.46077,-0.71289 -0.0179,-0.0122 -0.0494,-0.0199 -0.0706,-0.0312 z"
         id="path4175"
         inkscape:connector-curvature="0" />
      <path
         style="font-style:normal;font-weight:normal;font-size:23.09672356px;line-height:125%;font-family:sans-serif;letter-spacing:0px;word-spacing:0px;fill:#ffffff;fill-opacity:0.43457947;stroke:none;stroke-width:1px;stroke-linecap:butt;stroke-linejoin:miter;stroke-opacity:1"
         d="m 271.43222,549.26758 c -0.93156,1.63402 -2.29472,2.71306 -4.09042,3.23828 l 0,2.36328 0.3672,0 c 0.79518,0 1.31477,0.0755 1.58356,0.21875 l 0,-1.35742 c 1.79571,-0.52522 3.15886,-1.60621 4.09042,-3.24024 l 0.23657,0 0,-1.22265 -2.18733,0 z m -1.59062,6.83789 c 0.0403,0.42585 0.0635,1.21253 0.0635,2.55273 l 0,10.85547 1.95253,0 0,-9.63086 c 0,-1.56733 -0.0278,-2.50937 -0.083,-2.82617 -0.0552,-0.3168 -0.2095,-0.55449 -0.46077,-0.71289 -0.22406,-0.1524 -0.73628,-0.22518 -1.47234,-0.23828 z"
         id="path4177"
         inkscape:connector-curvature="0" />
      <path
         inkscape:connector-curvature="0"
         style="color:#000000;clip-rule:nonzero;display:inline;overflow:visible;visibility:visible;opacity:1;isolation:auto;mix-blend-mode:normal;color-interpolation:sRGB;color-interpolation-filters:linearRGB;solid-color:#000000;solid-opacity:1;fill:#000000;fill-opacity:0.25233645;fill-rule:evenodd;stroke:none;stroke-width:1px;stroke-linecap:round;stroke-linejoin:miter;stroke-miterlimit:4;stroke-dasharray:none;stroke-dashoffset:0;stroke-opacity:1;color-rendering:auto;image-rendering:auto;shape-rendering:auto;text-rendering:auto;enable-background:accumulate"
         d="m 268,544.36133 a 8,16 0 0 0 -8,16 8,16 0 0 0 8,16 l 4,0 a 8,16 0 0 1 -8,-16 8,16 0 0 1 8,-16 l -4,0 z m 4,0 a 8,16 0 0 1 0.67773,0.0684 A 8,16 0 0 0 272,544.36133 Z m 1.07227,0.16406 a 8,16 0 0 1 0.41015,0.12305 8,16 0 0 0 -0.41015,-0.12305 z m 0.78125,0.29102 a 8,16 0 0 1 0.39843,0.20312 8,16 0 0 0 -0.39843,-0.20312 z m 0.77539,0.45312 a 8,16 0 0 1 0.37695,0.27539 8,16 0 0 0 -0.37695,-0.27539 z m 0.73437,0.5957 a 8,16 0 0 1 0.36914,0.35547 8,16 0 0 0 -0.36914,-0.35547 z m 0.7207,0.75977 a 8,16 0 0 1 0.32813,0.40234 8,16 0 0 0 -0.32813,-0.40234 z m 0.66602,0.88477 a 8,16 0 0 1 0.31055,0.47265 8,16 0 0 0 -0.31055,-0.47265 z m 0.5957,0.97265 a 8,16 0 0 1 0.32032,0.5957 8,16 0 0 0 -0.32032,-0.5957 z m 0.56836,1.12891 a 8,16 0 0 1 0.27344,0.62305 8,16 0 0 0 -0.27344,-0.62305 z m 0.51758,1.26172 a 8,16 0 0 1 0.23633,0.66211 8,16 0 0 0 -0.23633,-0.66211 z m 0.42969,1.29492 a 8,16 0 0 1 0.21875,0.76953 8,16 0 0 0 -0.21875,-0.76953 z m 0.36719,1.38476 a 8,16 0 0 1 0.18164,0.80274 8,16 0 0 0 -0.18164,-0.80274 z m 0.32031,1.57032 a 8,16 0 0 1 0.12109,0.7207 8,16 0 0 0 -0.12109,-0.7207 z m 0.22461,1.54492 a 8,16 0 0 1 0.084,0.75 8,16 0 0 0 -0.084,-0.75 z m 0.14062,1.49023 a 8,16 0 0 1 0.0527,0.85352 8,16 0 0 0 -0.0527,-0.85352 z M 280,560.36133 a 8,16 0 0 1 -0.0332,1.34961 8,16 0 0 0 0.0332,-1.34961 z m -0.0859,2.20703 a 8,16 0 0 1 -0.0566,0.73242 8,16 0 0 0 0.0566,-0.73242 z m -0.14062,1.49609 a 8,16 0 0 1 -0.10352,0.81446 8,16 0 0 0 0.10352,-0.81446 z m -0.22461,1.54297 a 8,16 0 0 1 -0.13672,0.75391 8,16 0 0 0 0.13672,-0.75391 z m -0.32227,1.57422 a 8,16 0 0 1 -0.14453,0.60547 8,16 0 0 0 0.14453,-0.60547 z m -0.36718,1.38281 a 8,16 0 0 1 -0.19141,0.6211 8,16 0 0 0 0.19141,-0.6211 z m -0.43165,1.29688 a 8,16 0 0 1 -0.23437,0.61523 8,16 0 0 0 0.23437,-0.61523 z m -0.52539,1.27148 a 8,16 0 0 1 -0.23632,0.51172 8,16 0 0 0 0.23632,-0.51172 z m -0.54492,1.08789 a 8,16 0 0 1 -0.30273,0.53125 8,16 0 0 0 0.30273,-0.53125 z m -0.60742,0.99219 a 8,16 0 0 1 -0.33008,0.47266 8,16 0 0 0 0.33008,-0.47266 z m -0.68164,0.9043 a 8,16 0 0 1 -0.33398,0.38476 8,16 0 0 0 0.33398,-0.38476 z m -0.71484,0.75 a 8,16 0 0 1 -0.3379,0.30273 8,16 0 0 0 0.3379,-0.30273 z m -0.75586,0.60742 a 8,16 0 0 1 -0.33399,0.22266 8,16 0 0 0 0.33399,-0.22266 z m -0.74414,0.43359 a 8,16 0 0 1 -0.38086,0.16992 8,16 0 0 0 0.38086,-0.16992 z m -0.78125,0.29102 a 8,16 0 0 1 -0.38282,0.0937 8,16 0 0 0 0.38282,-0.0937 z"
         id="path4179" />
      <path
         inkscape:connector-curvature="0"
         id="path4181"
         d="m 268,544.36133 a 8,16 0 0 0 -8,16 8,16 0 0 0 8,16 l 4,0 a 8,16 0 0 0 8,-16 8,16 0 0 0 -8,-16 l -4,0 z"
         style="color:#000000;clip-rule:nonzero;display:inline;overflow:visible;visibility:visible;opacity:1;isolation:auto;mix-blend-mode:normal;color-interpolation:sRGB;color-interpolation-filters:linearRGB;solid-color:#000000;solid-opacity:1;fill:none;fill-opacity:1;fill-rule:evenodd;stroke:#806600;stroke-width:1.01600075px;stroke-linecap:round;stroke-linejoin:miter;stroke-miterlimit:4;stroke-dasharray:none;stroke-dashoffset:0;stroke-opacity:1;color-rendering:auto;image-rendering:auto;shape-rendering:auto;text-rendering:auto;enable-background:accumulate" />
    </g>
    <g
       id="g4183"
       transform="matrix(0,-1,0.96875042,0,-526.85027,1291.8621)">
      <path
         inkscape:connector-curvature="0"
         style="color:#000000;clip-rule:nonzero;display:inline;overflow:visible;visibility:visible;opacity:1;isolation:auto;mix-blend-mode:normal;color-interpolation:sRGB;color-interpolation-filters:linearRGB;solid-color:#000000;solid-opacity:1;fill:#ffcc00;fill-opacity:1;fill-rule:evenodd;stroke:none;stroke-width:1px;stroke-linecap:round;stroke-linejoin:miter;stroke-miterlimit:4;stroke-dasharray:none;stroke-dashoffset:0;stroke-opacity:1;color-rendering:auto;image-rendering:auto;shape-rendering:auto;text-rendering:auto;enable-background:accumulate"
         d="m 268,544.3622 a 8,16 0 0 0 -8,16 8,16 0 0 0 8,16 l 4,0 a 8,16 0 0 0 8,-16 8,16 0 0 0 -8,-16 l -4,0 z"
         id="path4185" />
      <path
         id="path4187"
         d="m 272,544.36133 a 8,16 0 0 0 -8,16 8,16 0 0 0 8,16 8,16 0 0 0 0.68945,-0.0684 8,16 0 0 0 0.38282,-0.0937 8,16 0 0 0 0.40039,-0.1211 8,16 0 0 0 0.38086,-0.16992 8,16 0 0 0 1.88086,-1.40625 8,16 0 0 0 0.33398,-0.38476 8,16 0 0 0 0.68164,-0.9043 8,16 0 0 0 0.30469,-0.46094 8,16 0 0 0 0.004,-0.006 8,16 0 0 0 0.29688,-0.52343 8,16 0 0 0 0.31055,-0.57813 8,16 0 0 0 0.52734,-1.16797 8,16 0 0 0 0.22852,-0.60156 8,16 0 0 0 0.24609,-0.68945 8,16 0 0 0 0.18555,-0.60547 8,16 0 0 0 0.22851,-0.79297 8,16 0 0 0 0.006,-0.0234 8,16 0 0 0 0.13867,-0.58203 8,16 0 0 0 0.18555,-0.82031 8,16 0 0 0 0.002,-0.008 8,16 0 0 0 0.13477,-0.74414 8,16 0 0 0 0.12109,-0.73047 8,16 0 0 0 0,-0.004 8,16 0 0 0 0.10352,-0.80664 8,16 0 0 0 0.084,-0.76758 8,16 0 0 0 0.0566,-0.73242 8,16 0 0 0 0.0527,-0.85742 8,16 0 0 0 0.0332,-1.34961 8,16 0 0 0 -0.0332,-1.34961 8,16 0 0 0 -0.0527,-0.85352 8,16 0 0 0 -0.0566,-0.74023 8,16 0 0 0 -0.084,-0.75 8,16 0 0 0 -0.10352,-0.82422 8,16 0 0 0 -0.004,-0.0176 8,16 0 0 0 -0.11719,-0.70312 8,16 0 0 0 -0.13867,-0.76758 8,16 0 0 0 0,-0.004 8,16 0 0 0 -0.18164,-0.79883 8,16 0 0 0 -0.14844,-0.61523 8,16 0 0 0 -0.21485,-0.75586 8,16 0 0 0 -0.19726,-0.64648 8,16 0 0 0 -0.008,-0.0195 8,16 0 0 0 -0.20899,-0.58984 8,16 0 0 0 -0.26367,-0.6914 8,16 0 0 0 -0.25,-0.57032 8,16 0 0 0 -0.28516,-0.60937 8,16 0 0 0 -0.29687,-0.55469 8,16 0 0 0 -0.29492,-0.51758 8,16 0 0 0 -0.31055,-0.4707 8,16 0 0 0 -0.33789,-0.48438 8,16 0 0 0 -0.32422,-0.39843 8,16 0 0 0 -0.35547,-0.40821 8,16 0 0 0 -0.008,-0.008 8,16 0 0 0 -0.35547,-0.3418 8,16 0 0 0 -0.36328,-0.32617 8,16 0 0 0 -0.004,-0.002 8,16 0 0 0 -0.36523,-0.26758 8,16 0 0 0 -0.38477,-0.25586 8,16 0 0 0 -0.39257,-0.19922 8,16 0 0 0 -0.39258,-0.17578 8,16 0 0 0 -0.38868,-0.11719 A 8,16 0 0 0 272,544.36133 Z m -7.62891,30.25976 a 8,16 0 0 0 2.26953,1.50782 8,16 0 0 1 -2.26953,-1.50782 z m 2.26953,1.50782 a 8,16 0 0 0 1.35938,0.23242 8,16 0 0 1 -1.35938,-0.23242 z"
         style="color:#000000;clip-rule:nonzero;display:inline;overflow:visible;visibility:visible;opacity:1;isolation:auto;mix-blend-mode:normal;color-interpolation:sRGB;color-interpolation-filters:linearRGB;solid-color:#000000;solid-opacity:1;fill:none;fill-opacity:1;fill-rule:evenodd;stroke:#ffffff;stroke-width:1.01600075px;stroke-linecap:round;stroke-linejoin:miter;stroke-miterlimit:4;stroke-dasharray:none;stroke-dashoffset:0;stroke-opacity:1;color-rendering:auto;image-rendering:auto;shape-rendering:auto;text-rendering:auto;enable-background:accumulate"
         inkscape:connector-curvature="0" />
      <path
         inkscape:connector-curvature="0"
         id="path4189"
         d="m 273.61955,550.49023 0,19.02344 -1.76187,0 0,1.22266 3.71263,0 0,-20.2461 -1.95076,0 z m -4.32699,4.59766 0,1.00586 0.3672,0 c 0.0738,0 0.11258,0.0105 0.18184,0.0117 -0.007,-0.0722 -0.01,-0.22753 -0.0177,-0.27344 -0.0551,-0.3168 -0.20949,-0.55449 -0.46077,-0.71289 -0.0179,-0.0122 -0.0494,-0.0199 -0.0706,-0.0312 z"
         style="font-style:normal;font-weight:normal;font-size:23.09672356px;line-height:125%;font-family:sans-serif;letter-spacing:0px;word-spacing:0px;fill:#000000;fill-opacity:0.37850467;stroke:none;stroke-width:1px;stroke-linecap:butt;stroke-linejoin:miter;stroke-opacity:1" />
      <path
         inkscape:connector-curvature="0"
         id="path4191"
         d="m 271.43222,549.26758 c -0.93156,1.63402 -2.29472,2.71306 -4.09042,3.23828 l 0,2.36328 0.3672,0 c 0.79518,0 1.31477,0.0755 1.58356,0.21875 l 0,-1.35742 c 1.79571,-0.52522 3.15886,-1.60621 4.09042,-3.24024 l 0.23657,0 0,-1.22265 -2.18733,0 z m -1.59062,6.83789 c 0.0403,0.42585 0.0635,1.21253 0.0635,2.55273 l 0,10.85547 1.95253,0 0,-9.63086 c 0,-1.56733 -0.0278,-2.50937 -0.083,-2.82617 -0.0552,-0.3168 -0.2095,-0.55449 -0.46077,-0.71289 -0.22406,-0.1524 -0.73628,-0.22518 -1.47234,-0.23828 z"
         style="font-style:normal;font-weight:normal;font-size:23.09672356px;line-height:125%;font-family:sans-serif;letter-spacing:0px;word-spacing:0px;fill:#ffffff;fill-opacity:0.43457947;stroke:none;stroke-width:1px;stroke-linecap:butt;stroke-linejoin:miter;stroke-opacity:1" />
      <path
         id="path4193"
         d="m 268,544.36133 a 8,16 0 0 0 -8,16 8,16 0 0 0 8,16 l 4,0 a 8,16 0 0 1 -8,-16 8,16 0 0 1 8,-16 l -4,0 z m 4,0 a 8,16 0 0 1 0.67773,0.0684 A 8,16 0 0 0 272,544.36133 Z m 1.07227,0.16406 a 8,16 0 0 1 0.41015,0.12305 8,16 0 0 0 -0.41015,-0.12305 z m 0.78125,0.29102 a 8,16 0 0 1 0.39843,0.20312 8,16 0 0 0 -0.39843,-0.20312 z m 0.77539,0.45312 a 8,16 0 0 1 0.37695,0.27539 8,16 0 0 0 -0.37695,-0.27539 z m 0.73437,0.5957 a 8,16 0 0 1 0.36914,0.35547 8,16 0 0 0 -0.36914,-0.35547 z m 0.7207,0.75977 a 8,16 0 0 1 0.32813,0.40234 8,16 0 0 0 -0.32813,-0.40234 z m 0.66602,0.88477 a 8,16 0 0 1 0.31055,0.47265 8,16 0 0 0 -0.31055,-0.47265 z m 0.5957,0.97265 a 8,16 0 0 1 0.32032,0.5957 8,16 0 0 0 -0.32032,-0.5957 z m 0.56836,1.12891 a 8,16 0 0 1 0.27344,0.62305 8,16 0 0 0 -0.27344,-0.62305 z m 0.51758,1.26172 a 8,16 0 0 1 0.23633,0.66211 8,16 0 0 0 -0.23633,-0.66211 z m 0.42969,1.29492 a 8,16 0 0 1 0.21875,0.76953 8,16 0 0 0 -0.21875,-0.76953 z m 0.36719,1.38476 a 8,16 0 0 1 0.18164,0.80274 8,16 0 0 0 -0.18164,-0.80274 z m 0.32031,1.57032 a 8,16 0 0 1 0.12109,0.7207 8,16 0 0 0 -0.12109,-0.7207 z m 0.22461,1.54492 a 8,16 0 0 1 0.084,0.75 8,16 0 0 0 -0.084,-0.75 z m 0.14062,1.49023 a 8,16 0 0 1 0.0527,0.85352 8,16 0 0 0 -0.0527,-0.85352 z M 280,560.36133 a 8,16 0 0 1 -0.0332,1.34961 8,16 0 0 0 0.0332,-1.34961 z m -0.0859,2.20703 a 8,16 0 0 1 -0.0566,0.73242 8,16 0 0 0 0.0566,-0.73242 z m -0.14062,1.49609 a 8,16 0 0 1 -0.10352,0.81446 8,16 0 0 0 0.10352,-0.81446 z m -0.22461,1.54297 a 8,16 0 0 1 -0.13672,0.75391 8,16 0 0 0 0.13672,-0.75391 z m -0.32227,1.57422 a 8,16 0 0 1 -0.14453,0.60547 8,16 0 0 0 0.14453,-0.60547 z m -0.36718,1.38281 a 8,16 0 0 1 -0.19141,0.6211 8,16 0 0 0 0.19141,-0.6211 z m -0.43165,1.29688 a 8,16 0 0 1 -0.23437,0.61523 8,16 0 0 0 0.23437,-0.61523 z m -0.52539,1.27148 a 8,16 0 0 1 -0.23632,0.51172 8,16 0 0 0 0.23632,-0.51172 z m -0.54492,1.08789 a 8,16 0 0 1 -0.30273,0.53125 8,16 0 0 0 0.30273,-0.53125 z m -0.60742,0.99219 a 8,16 0 0 1 -0.33008,0.47266 8,16 0 0 0 0.33008,-0.47266 z m -0.68164,0.9043 a 8,16 0 0 1 -0.33398,0.38476 8,16 0 0 0 0.33398,-0.38476 z m -0.71484,0.75 a 8,16 0 0 1 -0.3379,0.30273 8,16 0 0 0 0.3379,-0.30273 z m -0.75586,0.60742 a 8,16 0 0 1 -0.33399,0.22266 8,16 0 0 0 0.33399,-0.22266 z m -0.74414,0.43359 a 8,16 0 0 1 -0.38086,0.16992 8,16 0 0 0 0.38086,-0.16992 z m -0.78125,0.29102 a 8,16 0 0 1 -0.38282,0.0937 8,16 0 0 0 0.38282,-0.0937 z"
         style="color:#000000;clip-rule:nonzero;display:inline;overflow:visible;visibility:visible;opacity:1;isolation:auto;mix-blend-mode:normal;color-interpolation:sRGB;color-interpolation-filters:linearRGB;solid-color:#000000;solid-opacity:1;fill:#000000;fill-opacity:0.25233645;fill-rule:evenodd;stroke:none;stroke-width:1px;stroke-linecap:round;stroke-linejoin:miter;stroke-miterlimit:4;stroke-dasharray:none;stroke-dashoffset:0;stroke-opacity:1;color-rendering:auto;image-rendering:auto;shape-rendering:auto;text-rendering:auto;enable-background:accumulate"
         inkscape:connector-curvature="0" />
      <path
         style="color:#000000;clip-rule:nonzero;display:inline;overflow:visible;visibility:visible;opacity:1;isolation:auto;mix-blend-mode:normal;color-interpolation:sRGB;color-interpolation-filters:linearRGB;solid-color:#000000;solid-opacity:1;fill:none;fill-opacity:1;fill-rule:evenodd;stroke:#806600;stroke-width:1.01600075px;stroke-linecap:round;stroke-linejoin:miter;stroke-miterlimit:4;stroke-dasharray:none;stroke-dashoffset:0;stroke-opacity:1;color-rendering:auto;image-rendering:auto;shape-rendering:auto;text-rendering:auto;enable-background:accumulate"
         d="m 268,544.36133 a 8,16 0 0 0 -8,16 8,16 0 0 0 8,16 l 4,0 a 8,16 0 0 0 8,-16 8,16 0 0 0 -8,-16 l -4,0 z"
         id="path4195"
         inkscape:connector-curvature="0" />
    </g>
    <g
       transform="matrix(0,-1,0.96875042,0,-526.85027,1286.8621)"
       id="g4197">
      <path
         id="path4199"
         d="m 268,544.3622 a 8,16 0 0 0 -8,16 8,16 0 0 0 8,16 l 4,0 a 8,16 0 0 0 8,-16 8,16 0 0 0 -8,-16 l -4,0 z"
         style="color:#000000;clip-rule:nonzero;display:inline;overflow:visible;visibility:visible;opacity:1;isolation:auto;mix-blend-mode:normal;color-interpolation:sRGB;color-interpolation-filters:linearRGB;solid-color:#000000;solid-opacity:1;fill:#ffcc00;fill-opacity:1;fill-rule:evenodd;stroke:none;stroke-width:1px;stroke-linecap:round;stroke-linejoin:miter;stroke-miterlimit:4;stroke-dasharray:none;stroke-dashoffset:0;stroke-opacity:1;color-rendering:auto;image-rendering:auto;shape-rendering:auto;text-rendering:auto;enable-background:accumulate"
         inkscape:connector-curvature="0" />
      <path
         inkscape:connector-curvature="0"
         style="color:#000000;clip-rule:nonzero;display:inline;overflow:visible;visibility:visible;opacity:1;isolation:auto;mix-blend-mode:normal;color-interpolation:sRGB;color-interpolation-filters:linearRGB;solid-color:#000000;solid-opacity:1;fill:none;fill-opacity:1;fill-rule:evenodd;stroke:#ffffff;stroke-width:1.01600075px;stroke-linecap:round;stroke-linejoin:miter;stroke-miterlimit:4;stroke-dasharray:none;stroke-dashoffset:0;stroke-opacity:1;color-rendering:auto;image-rendering:auto;shape-rendering:auto;text-rendering:auto;enable-background:accumulate"
         d="m 272,544.36133 a 8,16 0 0 0 -8,16 8,16 0 0 0 8,16 8,16 0 0 0 0.68945,-0.0684 8,16 0 0 0 0.38282,-0.0937 8,16 0 0 0 0.40039,-0.1211 8,16 0 0 0 0.38086,-0.16992 8,16 0 0 0 1.88086,-1.40625 8,16 0 0 0 0.33398,-0.38476 8,16 0 0 0 0.68164,-0.9043 8,16 0 0 0 0.30469,-0.46094 8,16 0 0 0 0.004,-0.006 8,16 0 0 0 0.29688,-0.52343 8,16 0 0 0 0.31055,-0.57813 8,16 0 0 0 0.52734,-1.16797 8,16 0 0 0 0.22852,-0.60156 8,16 0 0 0 0.24609,-0.68945 8,16 0 0 0 0.18555,-0.60547 8,16 0 0 0 0.22851,-0.79297 8,16 0 0 0 0.006,-0.0234 8,16 0 0 0 0.13867,-0.58203 8,16 0 0 0 0.18555,-0.82031 8,16 0 0 0 0.002,-0.008 8,16 0 0 0 0.13477,-0.74414 8,16 0 0 0 0.12109,-0.73047 8,16 0 0 0 0,-0.004 8,16 0 0 0 0.10352,-0.80664 8,16 0 0 0 0.084,-0.76758 8,16 0 0 0 0.0566,-0.73242 8,16 0 0 0 0.0527,-0.85742 8,16 0 0 0 0.0332,-1.34961 8,16 0 0 0 -0.0332,-1.34961 8,16 0 0 0 -0.0527,-0.85352 8,16 0 0 0 -0.0566,-0.74023 8,16 0 0 0 -0.084,-0.75 8,16 0 0 0 -0.10352,-0.82422 8,16 0 0 0 -0.004,-0.0176 8,16 0 0 0 -0.11719,-0.70312 8,16 0 0 0 -0.13867,-0.76758 8,16 0 0 0 0,-0.004 8,16 0 0 0 -0.18164,-0.79883 8,16 0 0 0 -0.14844,-0.61523 8,16 0 0 0 -0.21485,-0.75586 8,16 0 0 0 -0.19726,-0.64648 8,16 0 0 0 -0.008,-0.0195 8,16 0 0 0 -0.20899,-0.58984 8,16 0 0 0 -0.26367,-0.6914 8,16 0 0 0 -0.25,-0.57032 8,16 0 0 0 -0.28516,-0.60937 8,16 0 0 0 -0.29687,-0.55469 8,16 0 0 0 -0.29492,-0.51758 8,16 0 0 0 -0.31055,-0.4707 8,16 0 0 0 -0.33789,-0.48438 8,16 0 0 0 -0.32422,-0.39843 8,16 0 0 0 -0.35547,-0.40821 8,16 0 0 0 -0.008,-0.008 8,16 0 0 0 -0.35547,-0.3418 8,16 0 0 0 -0.36328,-0.32617 8,16 0 0 0 -0.004,-0.002 8,16 0 0 0 -0.36523,-0.26758 8,16 0 0 0 -0.38477,-0.25586 8,16 0 0 0 -0.39257,-0.19922 8,16 0 0 0 -0.39258,-0.17578 8,16 0 0 0 -0.38868,-0.11719 A 8,16 0 0 0 272,544.36133 Z m -7.62891,30.25976 a 8,16 0 0 0 2.26953,1.50782 8,16 0 0 1 -2.26953,-1.50782 z m 2.26953,1.50782 a 8,16 0 0 0 1.35938,0.23242 8,16 0 0 1 -1.35938,-0.23242 z"
         id="path4201" />
      <path
         style="font-style:normal;font-weight:normal;font-size:23.09672356px;line-height:125%;font-family:sans-serif;letter-spacing:0px;word-spacing:0px;fill:#000000;fill-opacity:0.37850467;stroke:none;stroke-width:1px;stroke-linecap:butt;stroke-linejoin:miter;stroke-opacity:1"
         d="m 273.61955,550.49023 0,19.02344 -1.76187,0 0,1.22266 3.71263,0 0,-20.2461 -1.95076,0 z m -4.32699,4.59766 0,1.00586 0.3672,0 c 0.0738,0 0.11258,0.0105 0.18184,0.0117 -0.007,-0.0722 -0.01,-0.22753 -0.0177,-0.27344 -0.0551,-0.3168 -0.20949,-0.55449 -0.46077,-0.71289 -0.0179,-0.0122 -0.0494,-0.0199 -0.0706,-0.0312 z"
         id="path4203"
         inkscape:connector-curvature="0" />
      <path
         style="font-style:normal;font-weight:normal;font-size:23.09672356px;line-height:125%;font-family:sans-serif;letter-spacing:0px;word-spacing:0px;fill:#ffffff;fill-opacity:0.43457947;stroke:none;stroke-width:1px;stroke-linecap:butt;stroke-linejoin:miter;stroke-opacity:1"
         d="m 271.43222,549.26758 c -0.93156,1.63402 -2.29472,2.71306 -4.09042,3.23828 l 0,2.36328 0.3672,0 c 0.79518,0 1.31477,0.0755 1.58356,0.21875 l 0,-1.35742 c 1.79571,-0.52522 3.15886,-1.60621 4.09042,-3.24024 l 0.23657,0 0,-1.22265 -2.18733,0 z m -1.59062,6.83789 c 0.0403,0.42585 0.0635,1.21253 0.0635,2.55273 l 0,10.85547 1.95253,0 0,-9.63086 c 0,-1.56733 -0.0278,-2.50937 -0.083,-2.82617 -0.0552,-0.3168 -0.2095,-0.55449 -0.46077,-0.71289 -0.22406,-0.1524 -0.73628,-0.22518 -1.47234,-0.23828 z"
         id="path4205"
         inkscape:connector-curvature="0" />
      <path
         inkscape:connector-curvature="0"
         style="color:#000000;clip-rule:nonzero;display:inline;overflow:visible;visibility:visible;opacity:1;isolation:auto;mix-blend-mode:normal;color-interpolation:sRGB;color-interpolation-filters:linearRGB;solid-color:#000000;solid-opacity:1;fill:#000000;fill-opacity:0.25233645;fill-rule:evenodd;stroke:none;stroke-width:1px;stroke-linecap:round;stroke-linejoin:miter;stroke-miterlimit:4;stroke-dasharray:none;stroke-dashoffset:0;stroke-opacity:1;color-rendering:auto;image-rendering:auto;shape-rendering:auto;text-rendering:auto;enable-background:accumulate"
         d="m 268,544.36133 a 8,16 0 0 0 -8,16 8,16 0 0 0 8,16 l 4,0 a 8,16 0 0 1 -8,-16 8,16 0 0 1 8,-16 l -4,0 z m 4,0 a 8,16 0 0 1 0.67773,0.0684 A 8,16 0 0 0 272,544.36133 Z m 1.07227,0.16406 a 8,16 0 0 1 0.41015,0.12305 8,16 0 0 0 -0.41015,-0.12305 z m 0.78125,0.29102 a 8,16 0 0 1 0.39843,0.20312 8,16 0 0 0 -0.39843,-0.20312 z m 0.77539,0.45312 a 8,16 0 0 1 0.37695,0.27539 8,16 0 0 0 -0.37695,-0.27539 z m 0.73437,0.5957 a 8,16 0 0 1 0.36914,0.35547 8,16 0 0 0 -0.36914,-0.35547 z m 0.7207,0.75977 a 8,16 0 0 1 0.32813,0.40234 8,16 0 0 0 -0.32813,-0.40234 z m 0.66602,0.88477 a 8,16 0 0 1 0.31055,0.47265 8,16 0 0 0 -0.31055,-0.47265 z m 0.5957,0.97265 a 8,16 0 0 1 0.32032,0.5957 8,16 0 0 0 -0.32032,-0.5957 z m 0.56836,1.12891 a 8,16 0 0 1 0.27344,0.62305 8,16 0 0 0 -0.27344,-0.62305 z m 0.51758,1.26172 a 8,16 0 0 1 0.23633,0.66211 8,16 0 0 0 -0.23633,-0.66211 z m 0.42969,1.29492 a 8,16 0 0 1 0.21875,0.76953 8,16 0 0 0 -0.21875,-0.76953 z m 0.36719,1.38476 a 8,16 0 0 1 0.18164,0.80274 8,16 0 0 0 -0.18164,-0.80274 z m 0.32031,1.57032 a 8,16 0 0 1 0.12109,0.7207 8,16 0 0 0 -0.12109,-0.7207 z m 0.22461,1.54492 a 8,16 0 0 1 0.084,0.75 8,16 0 0 0 -0.084,-0.75 z m 0.14062,1.49023 a 8,16 0 0 1 0.0527,0.85352 8,16 0 0 0 -0.0527,-0.85352 z M 280,560.36133 a 8,16 0 0 1 -0.0332,1.34961 8,16 0 0 0 0.0332,-1.34961 z m -0.0859,2.20703 a 8,16 0 0 1 -0.0566,0.73242 8,16 0 0 0 0.0566,-0.73242 z m -0.14062,1.49609 a 8,16 0 0 1 -0.10352,0.81446 8,16 0 0 0 0.10352,-0.81446 z m -0.22461,1.54297 a 8,16 0 0 1 -0.13672,0.75391 8,16 0 0 0 0.13672,-0.75391 z m -0.32227,1.57422 a 8,16 0 0 1 -0.14453,0.60547 8,16 0 0 0 0.14453,-0.60547 z m -0.36718,1.38281 a 8,16 0 0 1 -0.19141,0.6211 8,16 0 0 0 0.19141,-0.6211 z m -0.43165,1.29688 a 8,16 0 0 1 -0.23437,0.61523 8,16 0 0 0 0.23437,-0.61523 z m -0.52539,1.27148 a 8,16 0 0 1 -0.23632,0.51172 8,16 0 0 0 0.23632,-0.51172 z m -0.54492,1.08789 a 8,16 0 0 1 -0.30273,0.53125 8,16 0 0 0 0.30273,-0.53125 z m -0.60742,0.99219 a 8,16 0 0 1 -0.33008,0.47266 8,16 0 0 0 0.33008,-0.47266 z m -0.68164,0.9043 a 8,16 0 0 1 -0.33398,0.38476 8,16 0 0 0 0.33398,-0.38476 z m -0.71484,0.75 a 8,16 0 0 1 -0.3379,0.30273 8,16 0 0 0 0.3379,-0.30273 z m -0.75586,0.60742 a 8,16 0 0 1 -0.33399,0.22266 8,16 0 0 0 0.33399,-0.22266 z m -0.74414,0.43359 a 8,16 0 0 1 -0.38086,0.16992 8,16 0 0 0 0.38086,-0.16992 z m -0.78125,0.29102 a 8,16 0 0 1 -0.38282,0.0937 8,16 0 0 0 0.38282,-0.0937 z"
         id="path4207" />
      <path
         inkscape:connector-curvature="0"
         id="path4209"
         d="m 268,544.36133 a 8,16 0 0 0 -8,16 8,16 0 0 0 8,16 l 4,0 a 8,16 0 0 0 8,-16 8,16 0 0 0 -8,-16 l -4,0 z"
         style="color:#000000;clip-rule:nonzero;display:inline;overflow:visible;visibility:visible;opacity:1;isolation:auto;mix-blend-mode:normal;color-interpolation:sRGB;color-interpolation-filters:linearRGB;solid-color:#000000;solid-opacity:1;fill:none;fill-opacity:1;fill-rule:evenodd;stroke:#806600;stroke-width:1.01600075px;stroke-linecap:round;stroke-linejoin:miter;stroke-miterlimit:4;stroke-dasharray:none;stroke-dashoffset:0;stroke-opacity:1;color-rendering:auto;image-rendering:auto;shape-rendering:auto;text-rendering:auto;enable-background:accumulate" />
    </g>
    <g
       id="g4211"
       transform="matrix(0,-1,0.96875042,0,-526.85027,1281.8621)">
      <path
         inkscape:connector-curvature="0"
         style="color:#000000;clip-rule:nonzero;display:inline;overflow:visible;visibility:visible;opacity:1;isolation:auto;mix-blend-mode:normal;color-interpolation:sRGB;color-interpolation-filters:linearRGB;solid-color:#000000;solid-opacity:1;fill:#ffcc00;fill-opacity:1;fill-rule:evenodd;stroke:none;stroke-width:1px;stroke-linecap:round;stroke-linejoin:miter;stroke-miterlimit:4;stroke-dasharray:none;stroke-dashoffset:0;stroke-opacity:1;color-rendering:auto;image-rendering:auto;shape-rendering:auto;text-rendering:auto;enable-background:accumulate"
         d="m 268,544.3622 a 8,16 0 0 0 -8,16 8,16 0 0 0 8,16 l 4,0 a 8,16 0 0 0 8,-16 8,16 0 0 0 -8,-16 l -4,0 z"
         id="path4213" />
      <path
         id="path4215"
         d="m 272,544.36133 a 8,16 0 0 0 -8,16 8,16 0 0 0 8,16 8,16 0 0 0 0.68945,-0.0684 8,16 0 0 0 0.38282,-0.0937 8,16 0 0 0 0.40039,-0.1211 8,16 0 0 0 0.38086,-0.16992 8,16 0 0 0 1.88086,-1.40625 8,16 0 0 0 0.33398,-0.38476 8,16 0 0 0 0.68164,-0.9043 8,16 0 0 0 0.30469,-0.46094 8,16 0 0 0 0.004,-0.006 8,16 0 0 0 0.29688,-0.52343 8,16 0 0 0 0.31055,-0.57813 8,16 0 0 0 0.52734,-1.16797 8,16 0 0 0 0.22852,-0.60156 8,16 0 0 0 0.24609,-0.68945 8,16 0 0 0 0.18555,-0.60547 8,16 0 0 0 0.22851,-0.79297 8,16 0 0 0 0.006,-0.0234 8,16 0 0 0 0.13867,-0.58203 8,16 0 0 0 0.18555,-0.82031 8,16 0 0 0 0.002,-0.008 8,16 0 0 0 0.13477,-0.74414 8,16 0 0 0 0.12109,-0.73047 8,16 0 0 0 0,-0.004 8,16 0 0 0 0.10352,-0.80664 8,16 0 0 0 0.084,-0.76758 8,16 0 0 0 0.0566,-0.73242 8,16 0 0 0 0.0527,-0.85742 8,16 0 0 0 0.0332,-1.34961 8,16 0 0 0 -0.0332,-1.34961 8,16 0 0 0 -0.0527,-0.85352 8,16 0 0 0 -0.0566,-0.74023 8,16 0 0 0 -0.084,-0.75 8,16 0 0 0 -0.10352,-0.82422 8,16 0 0 0 -0.004,-0.0176 8,16 0 0 0 -0.11719,-0.70312 8,16 0 0 0 -0.13867,-0.76758 8,16 0 0 0 0,-0.004 8,16 0 0 0 -0.18164,-0.79883 8,16 0 0 0 -0.14844,-0.61523 8,16 0 0 0 -0.21485,-0.75586 8,16 0 0 0 -0.19726,-0.64648 8,16 0 0 0 -0.008,-0.0195 8,16 0 0 0 -0.20899,-0.58984 8,16 0 0 0 -0.26367,-0.6914 8,16 0 0 0 -0.25,-0.57032 8,16 0 0 0 -0.28516,-0.60937 8,16 0 0 0 -0.29687,-0.55469 8,16 0 0 0 -0.29492,-0.51758 8,16 0 0 0 -0.31055,-0.4707 8,16 0 0 0 -0.33789,-0.48438 8,16 0 0 0 -0.32422,-0.39843 8,16 0 0 0 -0.35547,-0.40821 8,16 0 0 0 -0.008,-0.008 8,16 0 0 0 -0.35547,-0.3418 8,16 0 0 0 -0.36328,-0.32617 8,16 0 0 0 -0.004,-0.002 8,16 0 0 0 -0.36523,-0.26758 8,16 0 0 0 -0.38477,-0.25586 8,16 0 0 0 -0.39257,-0.19922 8,16 0 0 0 -0.39258,-0.17578 8,16 0 0 0 -0.38868,-0.11719 A 8,16 0 0 0 272,544.36133 Z m -7.62891,30.25976 a 8,16 0 0 0 2.26953,1.50782 8,16 0 0 1 -2.26953,-1.50782 z m 2.26953,1.50782 a 8,16 0 0 0 1.35938,0.23242 8,16 0 0 1 -1.35938,-0.23242 z"
         style="color:#000000;clip-rule:nonzero;display:inline;overflow:visible;visibility:visible;opacity:1;isolation:auto;mix-blend-mode:normal;color-interpolation:sRGB;color-interpolation-filters:linearRGB;solid-color:#000000;solid-opacity:1;fill:none;fill-opacity:1;fill-rule:evenodd;stroke:#ffffff;stroke-width:1.01600075px;stroke-linecap:round;stroke-linejoin:miter;stroke-miterlimit:4;stroke-dasharray:none;stroke-dashoffset:0;stroke-opacity:1;color-rendering:auto;image-rendering:auto;shape-rendering:auto;text-rendering:auto;enable-background:accumulate"
         inkscape:connector-curvature="0" />
      <path
         inkscape:connector-curvature="0"
         id="path4217"
         d="m 273.61955,550.49023 0,19.02344 -1.76187,0 0,1.22266 3.71263,0 0,-20.2461 -1.95076,0 z m -4.32699,4.59766 0,1.00586 0.3672,0 c 0.0738,0 0.11258,0.0105 0.18184,0.0117 -0.007,-0.0722 -0.01,-0.22753 -0.0177,-0.27344 -0.0551,-0.3168 -0.20949,-0.55449 -0.46077,-0.71289 -0.0179,-0.0122 -0.0494,-0.0199 -0.0706,-0.0312 z"
         style="font-style:normal;font-weight:normal;font-size:23.09672356px;line-height:125%;font-family:sans-serif;letter-spacing:0px;word-spacing:0px;fill:#000000;fill-opacity:0.37850467;stroke:none;stroke-width:1px;stroke-linecap:butt;stroke-linejoin:miter;stroke-opacity:1" />
      <path
         inkscape:connector-curvature="0"
         id="path4219"
         d="m 271.43222,549.26758 c -0.93156,1.63402 -2.29472,2.71306 -4.09042,3.23828 l 0,2.36328 0.3672,0 c 0.79518,0 1.31477,0.0755 1.58356,0.21875 l 0,-1.35742 c 1.79571,-0.52522 3.15886,-1.60621 4.09042,-3.24024 l 0.23657,0 0,-1.22265 -2.18733,0 z m -1.59062,6.83789 c 0.0403,0.42585 0.0635,1.21253 0.0635,2.55273 l 0,10.85547 1.95253,0 0,-9.63086 c 0,-1.56733 -0.0278,-2.50937 -0.083,-2.82617 -0.0552,-0.3168 -0.2095,-0.55449 -0.46077,-0.71289 -0.22406,-0.1524 -0.73628,-0.22518 -1.47234,-0.23828 z"
         style="font-style:normal;font-weight:normal;font-size:23.09672356px;line-height:125%;font-family:sans-serif;letter-spacing:0px;word-spacing:0px;fill:#ffffff;fill-opacity:0.43457947;stroke:none;stroke-width:1px;stroke-linecap:butt;stroke-linejoin:miter;stroke-opacity:1" />
      <path
         id="path4221"
         d="m 268,544.36133 a 8,16 0 0 0 -8,16 8,16 0 0 0 8,16 l 4,0 a 8,16 0 0 1 -8,-16 8,16 0 0 1 8,-16 l -4,0 z m 4,0 a 8,16 0 0 1 0.67773,0.0684 A 8,16 0 0 0 272,544.36133 Z m 1.07227,0.16406 a 8,16 0 0 1 0.41015,0.12305 8,16 0 0 0 -0.41015,-0.12305 z m 0.78125,0.29102 a 8,16 0 0 1 0.39843,0.20312 8,16 0 0 0 -0.39843,-0.20312 z m 0.77539,0.45312 a 8,16 0 0 1 0.37695,0.27539 8,16 0 0 0 -0.37695,-0.27539 z m 0.73437,0.5957 a 8,16 0 0 1 0.36914,0.35547 8,16 0 0 0 -0.36914,-0.35547 z m 0.7207,0.75977 a 8,16 0 0 1 0.32813,0.40234 8,16 0 0 0 -0.32813,-0.40234 z m 0.66602,0.88477 a 8,16 0 0 1 0.31055,0.47265 8,16 0 0 0 -0.31055,-0.47265 z m 0.5957,0.97265 a 8,16 0 0 1 0.32032,0.5957 8,16 0 0 0 -0.32032,-0.5957 z m 0.56836,1.12891 a 8,16 0 0 1 0.27344,0.62305 8,16 0 0 0 -0.27344,-0.62305 z m 0.51758,1.26172 a 8,16 0 0 1 0.23633,0.66211 8,16 0 0 0 -0.23633,-0.66211 z m 0.42969,1.29492 a 8,16 0 0 1 0.21875,0.76953 8,16 0 0 0 -0.21875,-0.76953 z m 0.36719,1.38476 a 8,16 0 0 1 0.18164,0.80274 8,16 0 0 0 -0.18164,-0.80274 z m 0.32031,1.57032 a 8,16 0 0 1 0.12109,0.7207 8,16 0 0 0 -0.12109,-0.7207 z m 0.22461,1.54492 a 8,16 0 0 1 0.084,0.75 8,16 0 0 0 -0.084,-0.75 z m 0.14062,1.49023 a 8,16 0 0 1 0.0527,0.85352 8,16 0 0 0 -0.0527,-0.85352 z M 280,560.36133 a 8,16 0 0 1 -0.0332,1.34961 8,16 0 0 0 0.0332,-1.34961 z m -0.0859,2.20703 a 8,16 0 0 1 -0.0566,0.73242 8,16 0 0 0 0.0566,-0.73242 z m -0.14062,1.49609 a 8,16 0 0 1 -0.10352,0.81446 8,16 0 0 0 0.10352,-0.81446 z m -0.22461,1.54297 a 8,16 0 0 1 -0.13672,0.75391 8,16 0 0 0 0.13672,-0.75391 z m -0.32227,1.57422 a 8,16 0 0 1 -0.14453,0.60547 8,16 0 0 0 0.14453,-0.60547 z m -0.36718,1.38281 a 8,16 0 0 1 -0.19141,0.6211 8,16 0 0 0 0.19141,-0.6211 z m -0.43165,1.29688 a 8,16 0 0 1 -0.23437,0.61523 8,16 0 0 0 0.23437,-0.61523 z m -0.52539,1.27148 a 8,16 0 0 1 -0.23632,0.51172 8,16 0 0 0 0.23632,-0.51172 z m -0.54492,1.08789 a 8,16 0 0 1 -0.30273,0.53125 8,16 0 0 0 0.30273,-0.53125 z m -0.60742,0.99219 a 8,16 0 0 1 -0.33008,0.47266 8,16 0 0 0 0.33008,-0.47266 z m -0.68164,0.9043 a 8,16 0 0 1 -0.33398,0.38476 8,16 0 0 0 0.33398,-0.38476 z m -0.71484,0.75 a 8,16 0 0 1 -0.3379,0.30273 8,16 0 0 0 0.3379,-0.30273 z m -0.75586,0.60742 a 8,16 0 0 1 -0.33399,0.22266 8,16 0 0 0 0.33399,-0.22266 z m -0.74414,0.43359 a 8,16 0 0 1 -0.38086,0.16992 8,16 0 0 0 0.38086,-0.16992 z m -0.78125,0.29102 a 8,16 0 0 1 -0.38282,0.0937 8,16 0 0 0 0.38282,-0.0937 z"
         style="color:#000000;clip-rule:nonzero;display:inline;overflow:visible;visibility:visible;opacity:1;isolation:auto;mix-blend-mode:normal;color-interpolation:sRGB;color-interpolation-filters:linearRGB;solid-color:#000000;solid-opacity:1;fill:#000000;fill-opacity:0.25233645;fill-rule:evenodd;stroke:none;stroke-width:1px;stroke-linecap:round;stroke-linejoin:miter;stroke-miterlimit:4;stroke-dasharray:none;stroke-dashoffset:0;stroke-opacity:1;color-rendering:auto;image-rendering:auto;shape-rendering:auto;text-rendering:auto;enable-background:accumulate"
         inkscape:connector-curvature="0" />
      <path
         style="color:#000000;clip-rule:nonzero;display:inline;overflow:visible;visibility:visible;opacity:1;isolation:auto;mix-blend-mode:normal;color-interpolation:sRGB;color-interpolation-filters:linearRGB;solid-color:#000000;solid-opacity:1;fill:none;fill-opacity:1;fill-rule:evenodd;stroke:#806600;stroke-width:1.01600075px;stroke-linecap:round;stroke-linejoin:miter;stroke-miterlimit:4;stroke-dasharray:none;stroke-dashoffset:0;stroke-opacity:1;color-rendering:auto;image-rendering:auto;shape-rendering:auto;text-rendering:auto;enable-background:accumulate"
         d="m 268,544.36133 a 8,16 0 0 0 -8,16 8,16 0 0 0 8,16 l 4,0 a 8,16 0 0 0 8,-16 8,16 0 0 0 -8,-16 l -4,0 z"
         id="path4223"
         inkscape:connector-curvature="0" />
    </g>
    <g
       transform="matrix(0,-1,0.96875042,0,-526.85027,1276.8621)"
       id="g4225">
      <path
         id="path4227"
         d="m 268,544.3622 a 8,16 0 0 0 -8,16 8,16 0 0 0 8,16 l 4,0 a 8,16 0 0 0 8,-16 8,16 0 0 0 -8,-16 l -4,0 z"
         style="color:#000000;clip-rule:nonzero;display:inline;overflow:visible;visibility:visible;opacity:1;isolation:auto;mix-blend-mode:normal;color-interpolation:sRGB;color-interpolation-filters:linearRGB;solid-color:#000000;solid-opacity:1;fill:#ffcc00;fill-opacity:1;fill-rule:evenodd;stroke:none;stroke-width:1px;stroke-linecap:round;stroke-linejoin:miter;stroke-miterlimit:4;stroke-dasharray:none;stroke-dashoffset:0;stroke-opacity:1;color-rendering:auto;image-rendering:auto;shape-rendering:auto;text-rendering:auto;enable-background:accumulate"
         inkscape:connector-curvature="0" />
      <path
         inkscape:connector-curvature="0"
         style="color:#000000;clip-rule:nonzero;display:inline;overflow:visible;visibility:visible;opacity:1;isolation:auto;mix-blend-mode:normal;color-interpolation:sRGB;color-interpolation-filters:linearRGB;solid-color:#000000;solid-opacity:1;fill:none;fill-opacity:1;fill-rule:evenodd;stroke:#ffffff;stroke-width:1.01600075px;stroke-linecap:round;stroke-linejoin:miter;stroke-miterlimit:4;stroke-dasharray:none;stroke-dashoffset:0;stroke-opacity:1;color-rendering:auto;image-rendering:auto;shape-rendering:auto;text-rendering:auto;enable-background:accumulate"
         d="m 272,544.36133 a 8,16 0 0 0 -8,16 8,16 0 0 0 8,16 8,16 0 0 0 0.68945,-0.0684 8,16 0 0 0 0.38282,-0.0937 8,16 0 0 0 0.40039,-0.1211 8,16 0 0 0 0.38086,-0.16992 8,16 0 0 0 1.88086,-1.40625 8,16 0 0 0 0.33398,-0.38476 8,16 0 0 0 0.68164,-0.9043 8,16 0 0 0 0.30469,-0.46094 8,16 0 0 0 0.004,-0.006 8,16 0 0 0 0.29688,-0.52343 8,16 0 0 0 0.31055,-0.57813 8,16 0 0 0 0.52734,-1.16797 8,16 0 0 0 0.22852,-0.60156 8,16 0 0 0 0.24609,-0.68945 8,16 0 0 0 0.18555,-0.60547 8,16 0 0 0 0.22851,-0.79297 8,16 0 0 0 0.006,-0.0234 8,16 0 0 0 0.13867,-0.58203 8,16 0 0 0 0.18555,-0.82031 8,16 0 0 0 0.002,-0.008 8,16 0 0 0 0.13477,-0.74414 8,16 0 0 0 0.12109,-0.73047 8,16 0 0 0 0,-0.004 8,16 0 0 0 0.10352,-0.80664 8,16 0 0 0 0.084,-0.76758 8,16 0 0 0 0.0566,-0.73242 8,16 0 0 0 0.0527,-0.85742 8,16 0 0 0 0.0332,-1.34961 8,16 0 0 0 -0.0332,-1.34961 8,16 0 0 0 -0.0527,-0.85352 8,16 0 0 0 -0.0566,-0.74023 8,16 0 0 0 -0.084,-0.75 8,16 0 0 0 -0.10352,-0.82422 8,16 0 0 0 -0.004,-0.0176 8,16 0 0 0 -0.11719,-0.70312 8,16 0 0 0 -0.13867,-0.76758 8,16 0 0 0 0,-0.004 8,16 0 0 0 -0.18164,-0.79883 8,16 0 0 0 -0.14844,-0.61523 8,16 0 0 0 -0.21485,-0.75586 8,16 0 0 0 -0.19726,-0.64648 8,16 0 0 0 -0.008,-0.0195 8,16 0 0 0 -0.20899,-0.58984 8,16 0 0 0 -0.26367,-0.6914 8,16 0 0 0 -0.25,-0.57032 8,16 0 0 0 -0.28516,-0.60937 8,16 0 0 0 -0.29687,-0.55469 8,16 0 0 0 -0.29492,-0.51758 8,16 0 0 0 -0.31055,-0.4707 8,16 0 0 0 -0.33789,-0.48438 8,16 0 0 0 -0.32422,-0.39843 8,16 0 0 0 -0.35547,-0.40821 8,16 0 0 0 -0.008,-0.008 8,16 0 0 0 -0.35547,-0.3418 8,16 0 0 0 -0.36328,-0.32617 8,16 0 0 0 -0.004,-0.002 8,16 0 0 0 -0.36523,-0.26758 8,16 0 0 0 -0.38477,-0.25586 8,16 0 0 0 -0.39257,-0.19922 8,16 0 0 0 -0.39258,-0.17578 8,16 0 0 0 -0.38868,-0.11719 A 8,16 0 0 0 272,544.36133 Z m -7.62891,30.25976 a 8,16 0 0 0 2.26953,1.50782 8,16 0 0 1 -2.26953,-1.50782 z m 2.26953,1.50782 a 8,16 0 0 0 1.35938,0.23242 8,16 0 0 1 -1.35938,-0.23242 z"
         id="path4229" />
      <path
         style="font-style:normal;font-weight:normal;font-size:23.09672356px;line-height:125%;font-family:sans-serif;letter-spacing:0px;word-spacing:0px;fill:#000000;fill-opacity:0.37850467;stroke:none;stroke-width:1px;stroke-linecap:butt;stroke-linejoin:miter;stroke-opacity:1"
         d="m 273.61955,550.49023 0,19.02344 -1.76187,0 0,1.22266 3.71263,0 0,-20.2461 -1.95076,0 z m -4.32699,4.59766 0,1.00586 0.3672,0 c 0.0738,0 0.11258,0.0105 0.18184,0.0117 -0.007,-0.0722 -0.01,-0.22753 -0.0177,-0.27344 -0.0551,-0.3168 -0.20949,-0.55449 -0.46077,-0.71289 -0.0179,-0.0122 -0.0494,-0.0199 -0.0706,-0.0312 z"
         id="path4231"
         inkscape:connector-curvature="0" />
      <path
         style="font-style:normal;font-weight:normal;font-size:23.09672356px;line-height:125%;font-family:sans-serif;letter-spacing:0px;word-spacing:0px;fill:#ffffff;fill-opacity:0.43457947;stroke:none;stroke-width:1px;stroke-linecap:butt;stroke-linejoin:miter;stroke-opacity:1"
         d="m 271.43222,549.26758 c -0.93156,1.63402 -2.29472,2.71306 -4.09042,3.23828 l 0,2.36328 0.3672,0 c 0.79518,0 1.31477,0.0755 1.58356,0.21875 l 0,-1.35742 c 1.79571,-0.52522 3.15886,-1.60621 4.09042,-3.24024 l 0.23657,0 0,-1.22265 -2.18733,0 z m -1.59062,6.83789 c 0.0403,0.42585 0.0635,1.21253 0.0635,2.55273 l 0,10.85547 1.95253,0 0,-9.63086 c 0,-1.56733 -0.0278,-2.50937 -0.083,-2.82617 -0.0552,-0.3168 -0.2095,-0.55449 -0.46077,-0.71289 -0.22406,-0.1524 -0.73628,-0.22518 -1.47234,-0.23828 z"
         id="path4233"
         inkscape:connector-curvature="0" />
      <path
         inkscape:connector-curvature="0"
         style="color:#000000;clip-rule:nonzero;display:inline;overflow:visible;visibility:visible;opacity:1;isolation:auto;mix-blend-mode:normal;color-interpolation:sRGB;color-interpolation-filters:linearRGB;solid-color:#000000;solid-opacity:1;fill:#000000;fill-opacity:0.25233645;fill-rule:evenodd;stroke:none;stroke-width:1px;stroke-linecap:round;stroke-linejoin:miter;stroke-miterlimit:4;stroke-dasharray:none;stroke-dashoffset:0;stroke-opacity:1;color-rendering:auto;image-rendering:auto;shape-rendering:auto;text-rendering:auto;enable-background:accumulate"
         d="m 268,544.36133 a 8,16 0 0 0 -8,16 8,16 0 0 0 8,16 l 4,0 a 8,16 0 0 1 -8,-16 8,16 0 0 1 8,-16 l -4,0 z m 4,0 a 8,16 0 0 1 0.67773,0.0684 A 8,16 0 0 0 272,544.36133 Z m 1.07227,0.16406 a 8,16 0 0 1 0.41015,0.12305 8,16 0 0 0 -0.41015,-0.12305 z m 0.78125,0.29102 a 8,16 0 0 1 0.39843,0.20312 8,16 0 0 0 -0.39843,-0.20312 z m 0.77539,0.45312 a 8,16 0 0 1 0.37695,0.27539 8,16 0 0 0 -0.37695,-0.27539 z m 0.73437,0.5957 a 8,16 0 0 1 0.36914,0.35547 8,16 0 0 0 -0.36914,-0.35547 z m 0.7207,0.75977 a 8,16 0 0 1 0.32813,0.40234 8,16 0 0 0 -0.32813,-0.40234 z m 0.66602,0.88477 a 8,16 0 0 1 0.31055,0.47265 8,16 0 0 0 -0.31055,-0.47265 z m 0.5957,0.97265 a 8,16 0 0 1 0.32032,0.5957 8,16 0 0 0 -0.32032,-0.5957 z m 0.56836,1.12891 a 8,16 0 0 1 0.27344,0.62305 8,16 0 0 0 -0.27344,-0.62305 z m 0.51758,1.26172 a 8,16 0 0 1 0.23633,0.66211 8,16 0 0 0 -0.23633,-0.66211 z m 0.42969,1.29492 a 8,16 0 0 1 0.21875,0.76953 8,16 0 0 0 -0.21875,-0.76953 z m 0.36719,1.38476 a 8,16 0 0 1 0.18164,0.80274 8,16 0 0 0 -0.18164,-0.80274 z m 0.32031,1.57032 a 8,16 0 0 1 0.12109,0.7207 8,16 0 0 0 -0.12109,-0.7207 z m 0.22461,1.54492 a 8,16 0 0 1 0.084,0.75 8,16 0 0 0 -0.084,-0.75 z m 0.14062,1.49023 a 8,16 0 0 1 0.0527,0.85352 8,16 0 0 0 -0.0527,-0.85352 z M 280,560.36133 a 8,16 0 0 1 -0.0332,1.34961 8,16 0 0 0 0.0332,-1.34961 z m -0.0859,2.20703 a 8,16 0 0 1 -0.0566,0.73242 8,16 0 0 0 0.0566,-0.73242 z m -0.14062,1.49609 a 8,16 0 0 1 -0.10352,0.81446 8,16 0 0 0 0.10352,-0.81446 z m -0.22461,1.54297 a 8,16 0 0 1 -0.13672,0.75391 8,16 0 0 0 0.13672,-0.75391 z m -0.32227,1.57422 a 8,16 0 0 1 -0.14453,0.60547 8,16 0 0 0 0.14453,-0.60547 z m -0.36718,1.38281 a 8,16 0 0 1 -0.19141,0.6211 8,16 0 0 0 0.19141,-0.6211 z m -0.43165,1.29688 a 8,16 0 0 1 -0.23437,0.61523 8,16 0 0 0 0.23437,-0.61523 z m -0.52539,1.27148 a 8,16 0 0 1 -0.23632,0.51172 8,16 0 0 0 0.23632,-0.51172 z m -0.54492,1.08789 a 8,16 0 0 1 -0.30273,0.53125 8,16 0 0 0 0.30273,-0.53125 z m -0.60742,0.99219 a 8,16 0 0 1 -0.33008,0.47266 8,16 0 0 0 0.33008,-0.47266 z m -0.68164,0.9043 a 8,16 0 0 1 -0.33398,0.38476 8,16 0 0 0 0.33398,-0.38476 z m -0.71484,0.75 a 8,16 0 0 1 -0.3379,0.30273 8,16 0 0 0 0.3379,-0.30273 z m -0.75586,0.60742 a 8,16 0 0 1 -0.33399,0.22266 8,16 0 0 0 0.33399,-0.22266 z m -0.74414,0.43359 a 8,16 0 0 1 -0.38086,0.16992 8,16 0 0 0 0.38086,-0.16992 z m -0.78125,0.29102 a 8,16 0 0 1 -0.38282,0.0937 8,16 0 0 0 0.38282,-0.0937 z"
         id="path4235" />
      <path
         inkscape:connector-curvature="0"
         id="path4237"
         d="m 268,544.36133 a 8,16 0 0 0 -8,16 8,16 0 0 0 8,16 l 4,0 a 8,16 0 0 0 8,-16 8,16 0 0 0 -8,-16 l -4,0 z"
         style="color:#000000;clip-rule:nonzero;display:inline;overflow:visible;visibility:visible;opacity:1;isolation:auto;mix-blend-mode:normal;color-interpolation:sRGB;color-interpolation-filters:linearRGB;solid-color:#000000;solid-opacity:1;fill:none;fill-opacity:1;fill-rule:evenodd;stroke:#806600;stroke-width:1.01600075px;stroke-linecap:round;stroke-linejoin:miter;stroke-miterlimit:4;stroke-dasharray:none;stroke-dashoffset:0;stroke-opacity:1;color-rendering:auto;image-rendering:auto;shape-rendering:auto;text-rendering:auto;enable-background:accumulate" />
    </g>
  </g>
</svg>
